<svg width="467" height="469" viewBox="0 0 467 469" fill="none" xmlns="http://www.w3.org/2000/svg">
<mask id="mask0_243:1466" style="mask-type:alpha" maskUnits="userSpaceOnUse" x="0" y="0" width="467" height="469">
<rect width="467" height="469" fill="#C4C4C4"/>
</mask>
<g mask="url(#mask0_243:1466)">
<ellipse cx="32" cy="48.6093" rx="113" ry="115.915" fill="#F9CF00" fill-opacity="0.6"/>
<ellipse cx="429.5" cy="37.3918" rx="71.5" ry="76.9203" fill="#F19F4D" fill-opacity="0.6"/>
<ellipse cx="49.5" cy="441.223" rx="71.5" ry="76.9203" fill="#F19F4D" fill-opacity="0.6"/>
<ellipse rx="97.8983" ry="100.423" transform="matrix(-1 -0.000583125 0.000510911 -1 309.95 478.672)" fill="#F9CF00" fill-opacity="0.6"/>
<ellipse cx="176.5" cy="-15.3341" rx="86.5" ry="93.6363" fill="#4484CE" fill-opacity="0.6"/>
<ellipse cx="429.5" cy="418.411" rx="86.5" ry="93.6363" transform="rotate(-180 429.5 418.411)" fill="#4484CE" fill-opacity="0.6"/>
<path d="M95.8052 391.967H97.4092C98.2783 391.967 98.9131 391.796 99.3135 391.454C99.7139 391.112 99.9141 390.604 99.9141 389.93C99.9141 389.257 99.7114 388.766 99.3062 388.458C98.9009 388.146 98.2441 387.99 97.3359 387.99H95.8052V391.967ZM95.8052 393.109V397.533H94.4575V386.825H97.4092C98.7373 386.825 99.7188 387.079 100.354 387.587C100.993 388.09 101.313 388.849 101.313 389.865C101.313 391.285 100.598 392.242 99.167 392.736L102.104 397.533H100.529L97.9365 393.109H95.8052ZM107.026 397.68C105.82 397.68 104.873 397.316 104.184 396.588C103.5 395.856 103.159 394.85 103.159 393.571C103.159 392.282 103.479 391.256 104.118 390.494C104.758 389.728 105.622 389.345 106.711 389.345C107.722 389.345 108.527 389.672 109.128 390.326C109.729 390.975 110.029 391.857 110.029 392.97V393.768H104.521C104.545 394.681 104.777 395.375 105.217 395.848C105.656 396.322 106.279 396.559 107.084 396.559C107.514 396.559 107.922 396.522 108.308 396.449C108.693 396.371 109.145 396.222 109.663 396.002V397.159C109.218 397.35 108.801 397.484 108.41 397.562C108.02 397.64 107.558 397.68 107.026 397.68ZM106.696 390.421C106.066 390.421 105.568 390.624 105.202 391.029C104.836 391.434 104.619 391.998 104.55 392.721H108.645C108.635 391.969 108.461 391.398 108.125 391.007C107.788 390.617 107.312 390.421 106.696 390.421ZM115.134 396.603C115.944 396.603 116.533 396.386 116.899 395.951C117.27 395.512 117.456 394.808 117.456 393.842V393.527C117.456 392.452 117.27 391.671 116.899 391.183C116.528 390.695 115.93 390.451 115.104 390.451C114.431 390.451 113.908 390.719 113.537 391.256C113.171 391.788 112.988 392.55 112.988 393.541C112.988 394.537 113.166 395.297 113.522 395.819C113.884 396.342 114.421 396.603 115.134 396.603ZM117.441 397.46L117.485 396.471H117.426C116.884 397.277 116.054 397.68 114.936 397.68C113.896 397.68 113.083 397.318 112.497 396.596C111.916 395.868 111.625 394.845 111.625 393.527C111.625 392.233 111.918 391.212 112.504 390.465C113.095 389.718 113.901 389.345 114.921 389.345C116.01 389.345 116.85 389.75 117.441 390.56H117.521L117.697 389.491H118.745V397.665C118.745 398.817 118.452 399.684 117.866 400.265C117.285 400.846 116.379 401.137 115.148 401.137C113.977 401.137 113.012 400.966 112.255 400.624V399.408C113.037 399.828 114.025 400.038 115.222 400.038C115.905 400.038 116.445 399.838 116.84 399.437C117.241 399.037 117.441 398.483 117.441 397.775V397.46ZM122.619 397.533H121.301V389.491H122.619V397.533ZM121.198 387.316C121.198 387.023 121.271 386.81 121.418 386.679C121.569 386.547 121.755 386.481 121.975 386.481C122.18 386.481 122.358 386.547 122.509 386.679C122.666 386.81 122.744 387.023 122.744 387.316C122.744 387.604 122.666 387.816 122.509 387.953C122.358 388.09 122.18 388.158 121.975 388.158C121.755 388.158 121.569 388.09 121.418 387.953C121.271 387.816 121.198 387.604 121.198 387.316ZM130.405 395.314C130.405 396.066 130.124 396.649 129.562 397.064C129.001 397.474 128.212 397.68 127.197 397.68C126.137 397.68 125.295 397.511 124.67 397.174V395.973C125.554 396.403 126.406 396.617 127.226 396.617C127.89 396.617 128.374 396.51 128.676 396.295C128.979 396.08 129.13 395.792 129.13 395.431C129.13 395.114 128.984 394.845 128.691 394.625C128.403 394.406 127.888 394.154 127.146 393.871C126.389 393.578 125.856 393.329 125.549 393.124C125.241 392.914 125.014 392.68 124.868 392.421C124.726 392.162 124.655 391.847 124.655 391.476C124.655 390.817 124.924 390.297 125.461 389.916C125.998 389.535 126.735 389.345 127.673 389.345C128.586 389.345 129.44 389.525 130.236 389.887L129.79 390.934C128.974 390.592 128.239 390.421 127.585 390.421C127.038 390.421 126.623 390.509 126.34 390.685C126.057 390.856 125.915 391.093 125.915 391.395C125.915 391.688 126.037 391.932 126.281 392.128C126.525 392.318 127.094 392.584 127.988 392.926C128.657 393.175 129.15 393.407 129.467 393.622C129.79 393.837 130.026 394.078 130.178 394.347C130.329 394.616 130.405 394.938 130.405 395.314ZM135.048 396.603C135.219 396.603 135.419 396.586 135.649 396.552C135.878 396.517 136.052 396.478 136.169 396.434V397.445C136.047 397.499 135.856 397.55 135.598 397.599C135.344 397.653 135.085 397.68 134.821 397.68C133.249 397.68 132.463 396.852 132.463 395.197V390.516H131.328V389.887L132.478 389.359L133.005 387.645H133.789V389.491H136.11V390.516H133.789V395.16C133.789 395.624 133.898 395.98 134.118 396.229C134.343 396.478 134.653 396.603 135.048 396.603ZM141.53 389.345C141.887 389.345 142.202 389.374 142.475 389.432L142.314 390.648C142.016 390.58 141.726 390.546 141.442 390.546C141.018 390.546 140.622 390.663 140.256 390.897C139.895 391.132 139.611 391.456 139.406 391.871C139.201 392.282 139.099 392.738 139.099 393.241V397.533H137.78V389.491H138.864L139.011 390.963H139.069C139.377 390.431 139.741 390.028 140.161 389.755C140.581 389.481 141.037 389.345 141.53 389.345ZM148.796 397.533L148.54 396.39H148.481C148.081 396.893 147.68 397.235 147.28 397.416C146.884 397.592 146.384 397.68 145.778 397.68C144.987 397.68 144.367 397.472 143.918 397.057C143.469 396.642 143.244 396.056 143.244 395.299C143.244 393.668 144.531 392.814 147.104 392.736L148.466 392.684V392.208C148.466 391.598 148.334 391.149 148.071 390.861C147.807 390.568 147.385 390.421 146.804 390.421C146.379 390.421 145.976 390.485 145.595 390.612C145.219 390.739 144.865 390.88 144.533 391.036L144.13 390.048C144.536 389.833 144.978 389.664 145.456 389.542C145.935 389.42 146.408 389.359 146.877 389.359C147.849 389.359 148.571 389.574 149.045 390.004C149.519 390.433 149.755 391.117 149.755 392.055V397.533H148.796ZM146.079 396.617C146.816 396.617 147.395 396.42 147.814 396.024C148.239 395.624 148.452 395.057 148.452 394.325V393.6L147.265 393.651C146.342 393.685 145.668 393.832 145.244 394.091C144.824 394.349 144.614 394.757 144.614 395.314C144.614 395.734 144.741 396.056 144.995 396.281C145.253 396.505 145.615 396.617 146.079 396.617ZM154.941 396.603C155.112 396.603 155.312 396.586 155.542 396.552C155.771 396.517 155.944 396.478 156.062 396.434V397.445C155.939 397.499 155.749 397.55 155.49 397.599C155.236 397.653 154.978 397.68 154.714 397.68C153.142 397.68 152.355 396.852 152.355 395.197V390.516H151.22V389.887L152.37 389.359L152.897 387.645H153.681V389.491H156.003V390.516H153.681V395.16C153.681 395.624 153.791 395.98 154.011 396.229C154.235 396.478 154.545 396.603 154.941 396.603ZM161.093 397.68C159.887 397.68 158.94 397.316 158.251 396.588C157.568 395.856 157.226 394.85 157.226 393.571C157.226 392.282 157.546 391.256 158.186 390.494C158.825 389.728 159.689 389.345 160.778 389.345C161.789 389.345 162.595 389.672 163.195 390.326C163.796 390.975 164.096 391.857 164.096 392.97V393.768H158.588C158.613 394.681 158.845 395.375 159.284 395.848C159.724 396.322 160.346 396.559 161.152 396.559C161.582 396.559 161.989 396.522 162.375 396.449C162.761 396.371 163.212 396.222 163.73 396.002V397.159C163.286 397.35 162.868 397.484 162.478 397.562C162.087 397.64 161.625 397.68 161.093 397.68ZM160.764 390.421C160.134 390.421 159.636 390.624 159.27 391.029C158.903 391.434 158.686 391.998 158.618 392.721H162.712C162.702 391.969 162.529 391.398 162.192 391.007C161.855 390.617 161.379 390.421 160.764 390.421ZM173.581 397.68C172.502 397.68 171.672 397.291 171.091 396.515H171.003L171.032 396.815C171.071 397.196 171.091 397.535 171.091 397.833V401.137H169.772V389.491H170.856L171.032 390.59H171.091C171.403 390.15 171.765 389.833 172.175 389.638C172.585 389.442 173.059 389.345 173.596 389.345C174.641 389.345 175.451 389.708 176.027 390.436C176.608 391.159 176.899 392.179 176.899 393.497C176.899 394.811 176.608 395.836 176.027 396.574C175.446 397.311 174.631 397.68 173.581 397.68ZM173.361 390.451C172.565 390.451 171.989 390.675 171.633 391.124C171.281 391.574 171.101 392.279 171.091 393.241V393.497C171.091 394.586 171.271 395.375 171.633 395.863C171.994 396.346 172.58 396.588 173.391 396.588C174.064 396.588 174.589 396.315 174.965 395.768C175.346 395.221 175.537 394.459 175.537 393.483C175.537 392.501 175.346 391.752 174.965 391.234C174.589 390.712 174.055 390.451 173.361 390.451ZM183.967 397.533L183.71 396.39H183.652C183.251 396.893 182.851 397.235 182.451 397.416C182.055 397.592 181.555 397.68 180.949 397.68C180.158 397.68 179.538 397.472 179.089 397.057C178.64 396.642 178.415 396.056 178.415 395.299C178.415 393.668 179.702 392.814 182.275 392.736L183.637 392.684V392.208C183.637 391.598 183.505 391.149 183.242 390.861C182.978 390.568 182.556 390.421 181.975 390.421C181.55 390.421 181.147 390.485 180.766 390.612C180.39 390.739 180.036 390.88 179.704 391.036L179.301 390.048C179.707 389.833 180.148 389.664 180.627 389.542C181.105 389.42 181.579 389.359 182.048 389.359C183.02 389.359 183.742 389.574 184.216 390.004C184.689 390.433 184.926 391.117 184.926 392.055V397.533H183.967ZM181.25 396.617C181.987 396.617 182.565 396.42 182.985 396.024C183.41 395.624 183.623 395.057 183.623 394.325V393.6L182.436 393.651C181.513 393.685 180.839 393.832 180.415 394.091C179.995 394.349 179.785 394.757 179.785 395.314C179.785 395.734 179.912 396.056 180.166 396.281C180.424 396.505 180.786 396.617 181.25 396.617ZM191.174 389.345C191.53 389.345 191.845 389.374 192.119 389.432L191.958 390.648C191.66 390.58 191.369 390.546 191.086 390.546C190.661 390.546 190.266 390.663 189.899 390.897C189.538 391.132 189.255 391.456 189.05 391.871C188.845 392.282 188.742 392.738 188.742 393.241V397.533H187.424V389.491H188.508L188.654 390.963H188.713C189.021 390.431 189.384 390.028 189.804 389.755C190.224 389.481 190.681 389.345 191.174 389.345ZM198.439 397.533L198.183 396.39H198.125C197.724 396.893 197.324 397.235 196.923 397.416C196.528 397.592 196.027 397.68 195.422 397.68C194.631 397.68 194.011 397.472 193.562 397.057C193.112 396.642 192.888 396.056 192.888 395.299C192.888 393.668 194.174 392.814 196.748 392.736L198.11 392.684V392.208C198.11 391.598 197.978 391.149 197.714 390.861C197.451 390.568 197.028 390.421 196.447 390.421C196.022 390.421 195.62 390.485 195.239 390.612C194.863 390.739 194.509 390.88 194.177 391.036L193.774 390.048C194.179 389.833 194.621 389.664 195.1 389.542C195.578 389.42 196.052 389.359 196.521 389.359C197.492 389.359 198.215 389.574 198.688 390.004C199.162 390.433 199.399 391.117 199.399 392.055V397.533H198.439ZM195.722 396.617C196.459 396.617 197.038 396.42 197.458 396.024C197.883 395.624 198.095 395.057 198.095 394.325V393.6L196.909 393.651C195.986 393.685 195.312 393.832 194.887 394.091C194.467 394.349 194.257 394.757 194.257 395.314C194.257 395.734 194.384 396.056 194.638 396.281C194.897 396.505 195.258 396.617 195.722 396.617ZM208.752 397.68C207.595 397.68 206.694 397.326 206.049 396.617C205.405 395.905 205.083 394.884 205.083 393.556C205.083 392.208 205.407 391.171 206.057 390.443C206.711 389.711 207.641 389.345 208.847 389.345C209.238 389.345 209.624 389.386 210.004 389.469C210.39 389.547 210.708 389.65 210.957 389.777L210.554 390.875C209.875 390.621 209.296 390.494 208.818 390.494C208.007 390.494 207.409 390.751 207.023 391.263C206.638 391.771 206.445 392.531 206.445 393.541C206.445 394.513 206.638 395.258 207.023 395.775C207.409 396.288 207.98 396.544 208.737 396.544C209.445 396.544 210.141 396.388 210.825 396.076V397.247C210.268 397.535 209.577 397.68 208.752 397.68ZM216.486 389.345C216.843 389.345 217.158 389.374 217.431 389.432L217.27 390.648C216.972 390.58 216.682 390.546 216.398 390.546C215.974 390.546 215.578 390.663 215.212 390.897C214.851 391.132 214.567 391.456 214.362 391.871C214.157 392.282 214.055 392.738 214.055 393.241V397.533H212.736V389.491H213.82L213.967 390.963H214.025C214.333 390.431 214.697 390.028 215.117 389.755C215.537 389.481 215.993 389.345 216.486 389.345ZM222.207 397.68C221 397.68 220.053 397.316 219.365 396.588C218.681 395.856 218.339 394.85 218.339 393.571C218.339 392.282 218.659 391.256 219.299 390.494C219.938 389.728 220.803 389.345 221.892 389.345C222.902 389.345 223.708 389.672 224.309 390.326C224.909 390.975 225.209 391.857 225.209 392.97V393.768H219.702C219.726 394.681 219.958 395.375 220.397 395.848C220.837 396.322 221.459 396.559 222.265 396.559C222.695 396.559 223.103 396.522 223.488 396.449C223.874 396.371 224.326 396.222 224.843 396.002V397.159C224.399 397.35 223.981 397.484 223.591 397.562C223.2 397.64 222.739 397.68 222.207 397.68ZM221.877 390.421C221.247 390.421 220.749 390.624 220.383 391.029C220.017 391.434 219.799 391.998 219.731 392.721H223.825C223.815 391.969 223.642 391.398 223.305 391.007C222.968 390.617 222.492 390.421 221.877 390.421ZM232.219 397.533L231.962 396.39H231.904C231.503 396.893 231.103 397.235 230.703 397.416C230.307 397.592 229.807 397.68 229.201 397.68C228.41 397.68 227.79 397.472 227.341 397.057C226.892 396.642 226.667 396.056 226.667 395.299C226.667 393.668 227.954 392.814 230.527 392.736L231.889 392.684V392.208C231.889 391.598 231.757 391.149 231.494 390.861C231.23 390.568 230.808 390.421 230.227 390.421C229.802 390.421 229.399 390.485 229.018 390.612C228.642 390.739 228.288 390.88 227.956 391.036L227.553 390.048C227.958 389.833 228.4 389.664 228.879 389.542C229.357 389.42 229.831 389.359 230.3 389.359C231.271 389.359 231.994 389.574 232.468 390.004C232.941 390.433 233.178 391.117 233.178 392.055V397.533H232.219ZM229.501 396.617C230.239 396.617 230.817 396.42 231.237 396.024C231.662 395.624 231.875 395.057 231.875 394.325V393.6L230.688 393.651C229.765 393.685 229.091 393.832 228.667 394.091C228.247 394.349 228.037 394.757 228.037 395.314C228.037 395.734 228.164 396.056 228.417 396.281C228.676 396.505 229.038 396.617 229.501 396.617ZM239.426 389.345C239.782 389.345 240.097 389.374 240.371 389.432L240.209 390.648C239.912 390.58 239.621 390.546 239.338 390.546C238.913 390.546 238.518 390.663 238.151 390.897C237.79 391.132 237.507 391.456 237.302 391.871C237.097 392.282 236.994 392.738 236.994 393.241V397.533H235.676V389.491H236.76L236.906 390.963H236.965C237.272 390.431 237.636 390.028 238.056 389.755C238.476 389.481 238.933 389.345 239.426 389.345ZM244.245 389.491H245.659L247.395 394.069C247.761 395.065 247.985 395.795 248.068 396.259H248.127C248.171 396.078 248.271 395.741 248.427 395.248C248.583 394.75 248.715 394.352 248.823 394.054L250.456 389.491H251.877L248.413 398.646C248.076 399.535 247.675 400.172 247.211 400.558C246.748 400.944 246.174 401.137 245.49 401.137C245.124 401.137 244.76 401.095 244.399 401.012V399.965C244.643 400.023 244.936 400.053 245.278 400.053C245.698 400.053 246.054 399.935 246.347 399.701C246.64 399.471 246.879 399.115 247.065 398.632L247.482 397.562L244.245 389.491ZM261.75 397.533L261.494 396.39H261.435C261.035 396.893 260.634 397.235 260.234 397.416C259.838 397.592 259.338 397.68 258.732 397.68C257.941 397.68 257.321 397.472 256.872 397.057C256.423 396.642 256.198 396.056 256.198 395.299C256.198 393.668 257.485 392.814 260.058 392.736L261.42 392.684V392.208C261.42 391.598 261.289 391.149 261.025 390.861C260.761 390.568 260.339 390.421 259.758 390.421C259.333 390.421 258.93 390.485 258.549 390.612C258.173 390.739 257.819 390.88 257.487 391.036L257.084 390.048C257.49 389.833 257.932 389.664 258.41 389.542C258.889 389.42 259.362 389.359 259.831 389.359C260.803 389.359 261.525 389.574 261.999 390.004C262.473 390.433 262.709 391.117 262.709 392.055V397.533H261.75ZM259.033 396.617C259.77 396.617 260.349 396.42 260.769 396.024C261.193 395.624 261.406 395.057 261.406 394.325V393.6L260.219 393.651C259.296 393.685 258.623 393.832 258.198 394.091C257.778 394.349 257.568 394.757 257.568 395.314C257.568 395.734 257.695 396.056 257.949 396.281C258.208 396.505 258.569 396.617 259.033 396.617ZM270.444 395.314C270.444 396.066 270.163 396.649 269.602 397.064C269.04 397.474 268.251 397.68 267.236 397.68C266.176 397.68 265.334 397.511 264.709 397.174V395.973C265.593 396.403 266.445 396.617 267.265 396.617C267.929 396.617 268.413 396.51 268.715 396.295C269.018 396.08 269.169 395.792 269.169 395.431C269.169 395.114 269.023 394.845 268.73 394.625C268.442 394.406 267.927 394.154 267.185 393.871C266.428 393.578 265.896 393.329 265.588 393.124C265.28 392.914 265.053 392.68 264.907 392.421C264.765 392.162 264.694 391.847 264.694 391.476C264.694 390.817 264.963 390.297 265.5 389.916C266.037 389.535 266.774 389.345 267.712 389.345C268.625 389.345 269.479 389.525 270.275 389.887L269.829 390.934C269.013 390.592 268.278 390.421 267.624 390.421C267.077 390.421 266.662 390.509 266.379 390.685C266.096 390.856 265.954 391.093 265.954 391.395C265.954 391.688 266.076 391.932 266.32 392.128C266.564 392.318 267.133 392.584 268.027 392.926C268.696 393.175 269.189 393.407 269.506 393.622C269.829 393.837 270.065 394.078 270.217 394.347C270.368 394.616 270.444 394.938 270.444 395.314ZM273.718 397.533H272.399V389.491H273.718V397.533ZM272.297 387.316C272.297 387.023 272.37 386.81 272.517 386.679C272.668 386.547 272.854 386.481 273.073 386.481C273.278 386.481 273.457 386.547 273.608 386.679C273.764 386.81 273.842 387.023 273.842 387.316C273.842 387.604 273.764 387.816 273.608 387.953C273.457 388.09 273.278 388.158 273.073 388.158C272.854 388.158 272.668 388.09 272.517 387.953C272.37 387.816 272.297 387.604 272.297 387.316ZM281.503 395.314C281.503 396.066 281.223 396.649 280.661 397.064C280.1 397.474 279.311 397.68 278.295 397.68C277.236 397.68 276.394 397.511 275.769 397.174V395.973C276.652 396.403 277.504 396.617 278.325 396.617C278.989 396.617 279.472 396.51 279.775 396.295C280.078 396.08 280.229 395.792 280.229 395.431C280.229 395.114 280.083 394.845 279.79 394.625C279.501 394.406 278.986 394.154 278.244 393.871C277.487 393.578 276.955 393.329 276.647 393.124C276.34 392.914 276.113 392.68 275.966 392.421C275.825 392.162 275.754 391.847 275.754 391.476C275.754 390.817 276.022 390.297 276.56 389.916C277.097 389.535 277.834 389.345 278.771 389.345C279.685 389.345 280.539 389.525 281.335 389.887L280.888 390.934C280.073 390.592 279.338 390.421 278.684 390.421C278.137 390.421 277.722 390.509 277.438 390.685C277.155 390.856 277.014 391.093 277.014 391.395C277.014 391.688 277.136 391.932 277.38 392.128C277.624 392.318 278.193 392.584 279.086 392.926C279.755 393.175 280.249 393.407 280.566 393.622C280.888 393.837 281.125 394.078 281.276 394.347C281.428 394.616 281.503 394.938 281.503 395.314ZM286.147 396.603C286.318 396.603 286.518 396.586 286.748 396.552C286.977 396.517 287.15 396.478 287.268 396.434V397.445C287.146 397.499 286.955 397.55 286.696 397.599C286.442 397.653 286.184 397.68 285.92 397.68C284.348 397.68 283.562 396.852 283.562 395.197V390.516H282.426V389.887L283.576 389.359L284.104 387.645H284.887V389.491H287.209V390.516H284.887V395.16C284.887 395.624 284.997 395.98 285.217 396.229C285.441 396.478 285.751 396.603 286.147 396.603ZM290.197 397.533H288.879V389.491H290.197V397.533ZM288.776 387.316C288.776 387.023 288.85 386.81 288.996 386.679C289.147 386.547 289.333 386.481 289.553 386.481C289.758 386.481 289.936 386.547 290.087 386.679C290.244 386.81 290.322 387.023 290.322 387.316C290.322 387.604 290.244 387.816 290.087 387.953C289.936 388.09 289.758 388.158 289.553 388.158C289.333 388.158 289.147 388.09 288.996 387.953C288.85 387.816 288.776 387.604 288.776 387.316ZM296.496 389.345C296.853 389.345 297.167 389.374 297.441 389.432L297.28 390.648C296.982 390.58 296.691 390.546 296.408 390.546C295.983 390.546 295.588 390.663 295.222 390.897C294.86 391.132 294.577 391.456 294.372 391.871C294.167 392.282 294.064 392.738 294.064 393.241V397.533H292.746V389.491H293.83L293.977 390.963H294.035C294.343 390.431 294.707 390.028 295.126 389.755C295.546 389.481 296.003 389.345 296.496 389.345ZM307.541 397.533L307.285 396.39H307.226C306.826 396.893 306.425 397.235 306.025 397.416C305.629 397.592 305.129 397.68 304.523 397.68C303.732 397.68 303.112 397.472 302.663 397.057C302.214 396.642 301.989 396.056 301.989 395.299C301.989 393.668 303.276 392.814 305.849 392.736L307.211 392.684V392.208C307.211 391.598 307.08 391.149 306.816 390.861C306.552 390.568 306.13 390.421 305.549 390.421C305.124 390.421 304.721 390.485 304.34 390.612C303.964 390.739 303.61 390.88 303.278 391.036L302.875 390.048C303.281 389.833 303.723 389.664 304.201 389.542C304.68 389.42 305.153 389.359 305.622 389.359C306.594 389.359 307.316 389.574 307.79 390.004C308.264 390.433 308.5 391.117 308.5 392.055V397.533H307.541ZM304.824 396.617C305.561 396.617 306.14 396.42 306.56 396.024C306.984 395.624 307.197 395.057 307.197 394.325V393.6L306.01 393.651C305.087 393.685 304.414 393.832 303.989 394.091C303.569 394.349 303.359 394.757 303.359 395.314C303.359 395.734 303.486 396.056 303.74 396.281C303.999 396.505 304.36 396.617 304.824 396.617ZM318.051 397.68C316.845 397.68 315.898 397.316 315.209 396.588C314.526 395.856 314.184 394.85 314.184 393.571C314.184 392.282 314.504 391.256 315.144 390.494C315.783 389.728 316.647 389.345 317.736 389.345C318.747 389.345 319.553 389.672 320.153 390.326C320.754 390.975 321.054 391.857 321.054 392.97V393.768H315.546C315.571 394.681 315.803 395.375 316.242 395.848C316.682 396.322 317.304 396.559 318.11 396.559C318.54 396.559 318.947 396.522 319.333 396.449C319.719 396.371 320.17 396.222 320.688 396.002V397.159C320.244 397.35 319.826 397.484 319.436 397.562C319.045 397.64 318.583 397.68 318.051 397.68ZM317.722 390.421C317.092 390.421 316.594 390.624 316.228 391.029C315.861 391.434 315.644 391.998 315.576 392.721H319.67C319.66 391.969 319.487 391.398 319.15 391.007C318.813 390.617 318.337 390.421 317.722 390.421ZM324.724 397.533L321.677 389.491H323.09L324.797 394.23C325.134 395.182 325.349 395.892 325.441 396.361H325.5C325.515 396.298 325.532 396.227 325.551 396.149C325.576 396.066 325.603 395.978 325.632 395.885C325.661 395.787 325.842 395.236 326.174 394.23L327.888 389.491H329.294L326.24 397.533H324.724ZM333.989 397.68C332.783 397.68 331.835 397.316 331.147 396.588C330.463 395.856 330.122 394.85 330.122 393.571C330.122 392.282 330.441 391.256 331.081 390.494C331.721 389.728 332.585 389.345 333.674 389.345C334.685 389.345 335.49 389.672 336.091 390.326C336.691 390.975 336.992 391.857 336.992 392.97V393.768H331.484C331.508 394.681 331.74 395.375 332.18 395.848C332.619 396.322 333.242 396.559 334.047 396.559C334.477 396.559 334.885 396.522 335.271 396.449C335.656 396.371 336.108 396.222 336.625 396.002V397.159C336.181 397.35 335.764 397.484 335.373 397.562C334.982 397.64 334.521 397.68 333.989 397.68ZM333.659 390.421C333.029 390.421 332.531 390.624 332.165 391.029C331.799 391.434 331.582 391.998 331.513 392.721H335.607C335.598 391.969 335.424 391.398 335.087 391.007C334.75 390.617 334.274 390.421 333.659 390.421ZM344.514 397.533V392.391C344.514 391.737 344.367 391.251 344.074 390.934C343.786 390.612 343.332 390.451 342.712 390.451C341.887 390.451 341.286 390.68 340.91 391.139C340.539 391.593 340.354 392.335 340.354 393.366V397.533H339.035V389.491H340.097L340.295 390.59H340.368C340.617 390.194 340.966 389.889 341.416 389.674C341.865 389.454 342.36 389.345 342.902 389.345C343.889 389.345 344.621 389.584 345.1 390.062C345.578 390.541 345.817 391.285 345.817 392.296V397.533H344.514ZM350.996 396.603C351.167 396.603 351.367 396.586 351.596 396.552C351.826 396.517 351.999 396.478 352.116 396.434V397.445C351.994 397.499 351.804 397.55 351.545 397.599C351.291 397.653 351.032 397.68 350.769 397.68C349.196 397.68 348.41 396.852 348.41 395.197V390.516H347.275V389.887L348.425 389.359L348.952 387.645H349.736V389.491H352.058V390.516H349.736V395.16C349.736 395.624 349.846 395.98 350.065 396.229C350.29 396.478 350.6 396.603 350.996 396.603ZM360.715 393.497C360.715 394.811 360.383 395.836 359.719 396.574C359.055 397.311 358.137 397.68 356.965 397.68C356.237 397.68 355.593 397.511 355.031 397.174C354.47 396.832 354.038 396.344 353.735 395.709C353.432 395.075 353.281 394.337 353.281 393.497C353.281 392.189 353.608 391.171 354.262 390.443C354.917 389.711 355.834 389.345 357.016 389.345C358.149 389.345 359.047 389.718 359.711 390.465C360.38 391.207 360.715 392.218 360.715 393.497ZM354.643 393.497C354.643 394.508 354.841 395.277 355.236 395.805C355.637 396.327 356.225 396.588 357.001 396.588C357.768 396.588 358.352 396.327 358.752 395.805C359.152 395.277 359.353 394.508 359.353 393.497C359.353 392.487 359.15 391.727 358.745 391.22C358.344 390.707 357.756 390.451 356.979 390.451C355.422 390.451 354.643 391.466 354.643 393.497ZM368.046 395.314C368.046 396.066 367.766 396.649 367.204 397.064C366.643 397.474 365.854 397.68 364.838 397.68C363.779 397.68 362.937 397.511 362.312 397.174V395.973C363.195 396.403 364.047 396.617 364.868 396.617C365.532 396.617 366.015 396.51 366.318 396.295C366.621 396.08 366.772 395.792 366.772 395.431C366.772 395.114 366.625 394.845 366.333 394.625C366.044 394.406 365.529 394.154 364.787 393.871C364.03 393.578 363.498 393.329 363.19 393.124C362.883 392.914 362.656 392.68 362.509 392.421C362.368 392.162 362.297 391.847 362.297 391.476C362.297 390.817 362.565 390.297 363.103 389.916C363.64 389.535 364.377 389.345 365.314 389.345C366.228 389.345 367.082 389.525 367.878 389.887L367.431 390.934C366.616 390.592 365.881 390.421 365.227 390.421C364.68 390.421 364.265 390.509 363.981 390.685C363.698 390.856 363.557 391.093 363.557 391.395C363.557 391.688 363.679 391.932 363.923 392.128C364.167 392.318 364.736 392.584 365.629 392.926C366.298 393.175 366.792 393.407 367.109 393.622C367.431 393.837 367.668 394.078 367.819 394.347C367.971 394.616 368.046 394.938 368.046 395.314Z" fill="black"/>
</g>
<g clip-path="url(#clip0_243:1466)">
<path d="M428 105.229H40.1655V364.605H428V105.229Z" fill="#E6E6E6"/>
<path d="M416.91 137.762H51.2559V349.261H416.91V137.762Z" fill="white"/>
<path d="M427.834 105H40V122.206H427.834V105Z" fill="#4484CE"/>
<path d="M52.2442 116.985C53.9308 116.985 55.2981 115.558 55.2981 113.796C55.2981 112.035 53.9308 110.607 52.2442 110.607C50.5577 110.607 49.1904 112.035 49.1904 113.796C49.1904 115.558 50.5577 116.985 52.2442 116.985Z" fill="white"/>
<path d="M63.8356 116.985C65.5221 116.985 66.8894 115.558 66.8894 113.796C66.8894 112.035 65.5221 110.607 63.8356 110.607C62.149 110.607 60.7817 112.035 60.7817 113.796C60.7817 115.558 62.149 116.985 63.8356 116.985Z" fill="white"/>
<path d="M75.4274 116.985C77.1139 116.985 78.4812 115.558 78.4812 113.796C78.4812 112.035 77.1139 110.607 75.4274 110.607C73.7408 110.607 72.3735 112.035 72.3735 113.796C72.3735 115.558 73.7408 116.985 75.4274 116.985Z" fill="white"/>
<path d="M167.762 155.158H96.2451V236.18H167.762V155.158Z" fill="#E6E6E6"/>
<path d="M269.84 155.158H198.324V236.18H269.84V155.158Z" fill="#E6E6E6"/>
<path d="M371.918 155.158H300.402V236.18H371.918V155.158Z" fill="#E6E6E6"/>
<path d="M167.762 250.845H96.2451V331.867H167.762V250.845Z" fill="#E6E6E6"/>
<path d="M269.84 250.845H198.324V331.867H269.84V250.845Z" fill="#E6E6E6"/>
<path d="M371.918 250.845H300.402V331.867H371.918V250.845Z" fill="#E6E6E6"/>
<path d="M124.025 204.149C130.701 204.149 136.114 198.497 136.114 191.525C136.114 184.553 130.701 178.901 124.025 178.901C117.348 178.901 111.936 184.553 111.936 191.525C111.936 198.497 117.348 204.149 124.025 204.149Z" fill="#FFB9B9"/>
<path d="M119.302 201.19C119.302 201.19 120.813 208.686 120.813 209.475C120.813 210.264 127.991 213.814 127.991 213.814L134.414 212.631L136.68 205.53C136.68 205.53 132.902 199.612 132.902 197.245L119.302 201.19Z" fill="#FFB9B9"/>
<path d="M113.541 181.354C113.541 181.354 117.379 172.67 124.736 174.674C132.092 176.678 136.251 179.684 136.57 182.69C136.89 185.697 136.41 190.206 136.41 190.206C136.41 190.206 135.611 184.027 130.493 185.363C125.375 186.699 117.379 185.697 117.379 185.697L116.1 197.721C116.1 197.721 114.66 195.55 113.061 196.886C111.462 198.222 108.423 184.027 113.541 181.354Z" fill="#2F2E41"/>
<path d="M162.368 233.145L159.349 218.941C157.834 214.206 154.06 210.265 154.06 210.265L135.429 203.423H135.424C135.388 205.142 134.833 206.806 133.838 208.177C132.843 209.548 131.459 210.556 129.884 211.058C124.215 213.026 120.312 206.393 120.312 206.393L104.563 218.941C104.563 218.941 99.6542 223.284 100.034 231.569L99.5117 236.18H163.821L162.368 233.145Z" fill="#4484CE"/>
<path d="M225.83 210.44C234.892 210.44 242.239 202.297 242.239 192.251C242.239 182.206 234.892 174.062 225.83 174.062C216.768 174.062 209.421 182.206 209.421 192.251C209.421 202.297 216.768 210.44 225.83 210.44Z" fill="#2F2E41"/>
<path d="M240.389 219.776C245.156 219.776 249.021 215.74 249.021 210.762C249.021 205.784 245.156 201.748 240.389 201.748C235.622 201.748 231.757 205.784 231.757 210.762C231.757 215.74 235.622 219.776 240.389 219.776Z" fill="#2F2E41"/>
<path d="M234.377 198.69L239.002 211.245L227.287 216.396L226.258 213.961L222.662 205.451L234.377 198.69Z" fill="#9F616A"/>
<path d="M225.128 206.899C230.832 206.899 235.456 202.07 235.456 196.114C235.456 190.158 230.832 185.33 225.128 185.33C219.425 185.33 214.801 190.158 214.801 196.114C214.801 202.07 219.425 206.899 225.128 206.899Z" fill="#9F616A"/>
<path d="M216.687 194.931C223.178 190.408 225.119 189.327 232.559 191.074L233.006 179.739L213.778 183.951L216.687 194.931Z" fill="#2F2E41"/>
<path d="M258.422 220.577L258.137 220.612C258.13 220.601 258.122 220.591 258.113 220.582C256.983 219.402 251.59 217.255 247.568 215.768H247.564C245.009 214.821 243.01 214.142 243.01 214.142L238.149 208.921C236.924 210.359 234.336 211.469 231.877 212.253C229.994 212.848 228.079 213.325 226.141 213.681H226.137L225.13 217.037C225.13 217.037 213.721 226.056 212.8 227.017H212.795V227.027C212.722 227.137 212.691 227.272 212.71 227.404V227.429C212.134 230.307 211.838 233.239 211.827 236.18H261.508V233.135C261.508 228.951 258.422 220.577 258.422 220.577Z" fill="#575A89"/>
<path d="M349.779 236.18H325.214L323.861 222.243L323.78 221.395L323.614 219.714L322.935 212.689L322.085 220.235L320.291 236.18H315.828L315.994 231.217L316.16 226.184L316.231 224.157L317.148 196.571C317.077 192.199 318.402 187.928 320.913 184.429C322.307 182.534 324.105 181.005 326.165 179.965C328.225 178.924 330.489 178.4 332.777 178.435C335.112 178.427 337.416 178.984 339.51 180.062C341.604 181.139 343.431 182.709 344.846 184.647C347.441 188.181 348.83 192.52 348.792 196.973L349.214 213.671L349.779 236.18Z" fill="#2F2E41"/>
<path d="M332.778 206.442C338.745 206.442 343.583 201.391 343.583 195.159C343.583 188.928 338.745 183.876 332.778 183.876C326.81 183.876 321.973 188.928 321.973 195.159C321.973 201.391 326.81 206.442 332.778 206.442Z" fill="#FBBEBE"/>
<path d="M327.375 203.219C327.375 203.219 330.462 214.099 327.375 217.323C324.288 220.546 323.516 221.755 323.516 221.755L332.392 234.247L347.828 214.502C347.828 214.502 337.023 211.278 339.724 202.413L327.375 203.219Z" fill="#FBBEBE"/>
<path d="M360.709 236.18H351.593L351.441 234.548L351.303 233.041L355.5 232.491L360.561 231.832L360.618 233.522L360.709 236.18Z" fill="#FBBEBE"/>
<path d="M361.334 233.442C361.334 233.442 359.79 223.367 358.633 219.338C357.475 215.308 356.317 215.308 356.317 215.308H356.317L356.317 215.307C354.955 213.884 351.679 213.631 349.215 213.671C347.486 213.691 346.157 213.849 346.157 213.849L332.393 229.01L325.461 219.387V219.382C324.837 219.433 324.219 219.544 323.614 219.714C323.094 219.853 322.584 220.027 322.085 220.235C319.939 221.193 317.96 222.518 316.231 224.157H316.227C315.23 225.094 314.641 225.783 314.641 225.783C313.114 229.097 311.964 232.586 311.213 236.18H355.32L355.42 234.107V234.103L361.334 233.442Z" fill="#4484CE"/>
<path d="M323.709 193.346C330.688 189.417 333.554 189.583 342.232 193.346L344.548 187.455C344.546 186.346 344.124 185.283 343.373 184.498C342.622 183.714 341.603 183.273 340.541 183.272H325.014C323.952 183.273 322.934 183.714 322.183 184.498C321.431 185.283 321.009 186.346 321.008 187.455L323.709 193.346Z" fill="#2F2E41"/>
<path d="M131.058 270.456C130.483 270.406 129.907 270.541 129.407 270.841C128.932 271.263 128.551 271.788 128.29 272.38C127.082 274.595 125.447 276.524 123.487 278.045C122.06 279.137 120.246 280.498 120.49 282.511C120.619 283.176 120.854 283.813 121.186 284.396C122.502 287.172 126.095 289.316 125.741 292.483C127.049 290.196 125.3 289.066 126.608 286.779C127.231 285.69 128.313 284.461 129.253 285.145C129.568 285.374 129.775 285.784 130.103 285.985C130.885 286.465 131.718 285.548 132.41 284.899C134.798 282.66 138.194 283.247 141.166 283.944C142.569 284.274 144.11 284.706 144.939 286.106C146.03 287.947 143.903 289.935 143.366 292.016C143.322 292.194 143.32 292.38 143.36 292.558C143.4 292.736 143.481 292.902 143.595 293.041C143.71 293.179 143.855 293.287 144.018 293.355C144.181 293.422 144.357 293.447 144.532 293.428C145.423 293.336 146.48 293.261 146.532 292.852C147.654 292.894 149.029 292.761 149.51 291.541C149.656 291.059 149.734 290.556 149.74 290.05C149.916 288 150.749 286.131 151.301 284.181C151.853 282.231 152.093 279.945 151.161 278.216C150.829 277.641 150.418 277.119 149.942 276.668C144.658 271.328 137.711 270.448 131.058 270.456Z" fill="#2F2E41"/>
<path d="M126.891 296.483C126.891 296.483 128.04 306.482 123.826 307.282C119.613 308.082 127.657 321.682 127.657 321.682L146.809 324.082L142.212 308.082C142.212 308.082 139.148 306.882 141.063 298.883C142.978 290.883 126.891 296.483 126.891 296.483Z" fill="#9F616A"/>
<path d="M135.509 303.083C141.855 303.083 147 297.71 147 291.083C147 284.456 141.855 279.083 135.509 279.083C129.163 279.083 124.018 284.456 124.018 291.083C124.018 297.71 129.163 303.083 135.509 303.083Z" fill="#9F616A"/>
<path d="M115.73 331.867C117.763 323.523 120.569 312.283 120.569 312.283C120.569 312.283 121.661 312.516 123.379 312.779C125.89 313.17 128.42 313.41 130.957 313.498C134.204 313.592 137.623 313.369 140.267 312.412C141.264 312.078 142.195 311.559 143.016 310.88C143.362 310.59 143.671 310.255 143.937 309.884C148.533 303.483 150.447 327.881 150.447 327.881L150.803 331.867L115.73 331.867Z" fill="#4484CE"/>
<path d="M152.446 357.648C152.294 357.648 152.142 357.653 151.99 357.663L152.208 357.237C152.284 357.371 152.36 357.509 152.446 357.648Z" fill="#FFB8B8"/>
<path d="M131.618 273.595C131.155 273.559 130.691 273.653 130.274 273.868C129.897 274.155 129.587 274.527 129.365 274.955C128.343 276.56 127.012 277.924 125.455 278.96C124.293 279.731 122.816 280.693 123.015 282.116C123.123 282.593 123.315 283.045 123.581 283.448C124.657 285.43 125.085 287.723 124.801 289.981L127.995 285.132C128.502 284.363 129.383 283.494 130.149 283.977C130.405 284.139 130.574 284.429 130.841 284.571C131.477 284.91 132.155 284.263 132.719 283.804C134.663 282.221 137.427 282.636 139.846 283.129C140.988 283.362 142.243 283.667 142.918 284.657C144.04 286.301 142.868 288.678 143.523 290.578C143.706 290.444 143.862 290.272 143.981 290.074C144.1 289.877 144.179 289.656 144.215 289.425C145.128 289.454 146.247 289.361 146.638 288.498C146.757 288.161 146.821 287.804 146.826 287.444C146.969 285.996 147.647 284.675 148.097 283.296C148.546 281.918 148.741 280.302 147.983 279.08C147.706 278.666 147.371 278.297 146.99 277.986C142.689 274.212 137.034 273.59 131.618 273.595Z" fill="#2F2E41"/>
<path d="M130.529 312.68C127.909 309.552 126.351 304.99 126.28 304.787V304.782C126.28 304.782 122.102 302.283 120.953 304.683C119.804 307.082 109.079 313.082 107.93 313.082C107.921 313.086 107.911 313.089 107.901 313.091C107.445 313.25 101.739 315.417 100.271 323.483C99.873 326.259 99.6604 329.06 99.6353 331.867H130.871C131.194 328.332 131.436 325.025 131.531 322.169C131.669 318.188 131.536 315.094 130.957 313.498C130.864 313.2 130.719 312.923 130.529 312.68Z" fill="#2F2E41"/>
<path d="M157.388 314.931C157.369 314.837 157.355 314.757 157.341 314.683C157.29 314.47 157.203 314.269 157.084 314.088C157.082 314.083 157.08 314.078 157.079 314.073C154.867 310.494 140.638 305.565 140.638 305.565L140.106 307.484C140.106 307.484 140.172 309.378 140.267 312.412C140.362 315.253 140.476 319.091 140.585 323.305C140.661 326.056 140.728 328.972 140.79 331.867H162.074C160.881 326.117 159.316 320.459 157.388 314.931Z" fill="#2F2E41"/>
<path d="M356.531 331.867L358.159 323.558L359.674 322.888L359.683 322.893C359.821 322.948 361.469 323.677 361.469 326.438C361.469 326.993 361.388 328.991 361.255 331.867H356.531Z" fill="#575A89"/>
<path d="M339.426 302.843C346.73 302.843 352.651 296.66 352.651 289.033C352.651 281.405 346.73 275.222 339.426 275.222C332.121 275.222 326.2 281.405 326.2 289.033C326.2 296.66 332.121 302.843 339.426 302.843Z" fill="#FFB8B8"/>
<path d="M347.691 297.089L346.589 320.682L329.506 310.324L331.71 297.089H347.691Z" fill="#FFB8B8"/>
<path d="M352.652 321.832L351.531 331.867H342.562L332.829 312.338L330.085 306.84L328.77 305.942L330.294 305.58L331.495 306.488L344.936 316.656L347.092 309.899L347.149 309.725L347.69 308.025L352.652 321.832Z" fill="#4484CE"/>
<path d="M331.435 275.51C331.435 275.51 333.088 266.878 342.456 268.605L341.354 269.18C341.354 269.18 350.171 268.029 349.069 273.208C349.069 273.208 356.233 277.812 354.58 282.991C353.608 285.992 352.87 289.071 352.375 292.198L350.722 290.471C350.722 290.471 349.069 278.963 339.15 280.113C331.711 280.977 328.68 284.645 327.905 287.288C327.548 288.531 327.093 289.741 326.544 290.905L325.925 291.047C325.925 291.047 322.618 278.387 331.435 275.51Z" fill="#2F2E41"/>
<path d="M359.684 322.893L359.674 322.888L352.652 316.076V311.475L347.23 307.013L347.149 309.725L346.589 328.163L337.573 315.213L331.496 306.488L330.404 304.926L330.67 303.463L327.303 307.444L315.121 316.988L314.076 317.806C312.878 319.058 311.773 320.404 310.772 321.832C310.444 322.343 308.953 326.408 307.011 331.867H361.255C361.388 328.991 361.469 326.993 361.469 326.438C361.469 323.677 359.821 322.948 359.684 322.893Z" fill="#2F2E41"/>
<path d="M232.994 273.863C224.032 273.863 216.767 282.282 216.767 292.668V305.863H220.653L222.903 300.974L222.34 305.863H247.32L249.366 301.419L248.854 305.863H251.667V295.503C251.667 283.551 243.306 273.863 232.994 273.863Z" fill="#2F2E41"/>
<path d="M219.898 331.867H209.343L209.244 322.878C209.239 322.784 209.239 322.695 209.239 322.601L211.352 320.117L211.39 320.072L219.456 325.407L219.898 331.867Z" fill="#D0CDE1"/>
<path d="M231.558 304.019C237.938 304.019 243.11 298.619 243.11 291.956C243.11 285.294 237.938 279.893 231.558 279.893C225.178 279.893 220.006 285.294 220.006 291.956C220.006 298.619 225.178 304.019 231.558 304.019Z" fill="#FBBEBE"/>
<path d="M224.935 299.194C224.935 299.194 228.323 317.53 226.783 319.46C225.243 321.39 243.11 315.922 243.11 315.922C243.11 315.922 237.257 303.376 240.337 296.299L224.935 299.194Z" fill="#FBBEBE"/>
<path d="M256.276 311.594H256.271C255.999 310.993 255.528 310.515 254.946 310.246C252.682 309.249 250.73 308.486 249.125 307.905C246.287 306.888 243.19 306.989 240.418 308.188C240.147 308.302 239.881 308.426 239.62 308.565C239.62 308.565 228.325 310.811 226.982 310.528C226.882 310.508 226.777 310.494 226.678 310.484C226.475 310.453 226.27 310.435 226.065 310.429C223.437 310.302 220.83 310.977 218.564 312.373C214.856 314.618 209.358 318.6 209.244 322.477L209.139 322.601L209.244 331.867H258.82C258.92 322.987 258.977 316.314 258.977 315.863C258.977 314.46 256.276 311.594 256.276 311.594Z" fill="#4484CE"/>
<path d="M237.607 279.043C236.826 277.948 235.814 277.056 234.649 276.435C233.485 275.814 232.199 275.482 230.892 275.465H230.573C224.431 275.465 219.451 281.269 219.451 288.429V288.429H221.509L221.842 285.787L222.329 288.429H234.536L235.559 286.194L235.303 288.429H237.705C238.825 294.24 237.215 300.052 232.874 305.863H236.965L239.011 301.393L238.499 305.863H246.297L247.831 295.581C247.831 287.881 243.547 281.351 237.607 279.043Z" fill="#2F2E41"/>
<path d="M239.849 280.126C243.205 280.126 245.927 277.284 245.927 273.779C245.927 270.274 243.205 267.432 239.849 267.432C236.492 267.432 233.771 270.274 233.771 273.779C233.771 277.284 236.492 280.126 239.849 280.126Z" fill="#2F2E41"/>
</g>
<path d="M156.092 78.548C155.545 80.5351 154.745 82.3014 153.692 83.8468C152.639 85.3921 151.41 86.6948 150.005 87.7546C148.6 88.8143 147.079 89.6091 145.44 90.139C143.801 90.7131 142.143 91 140.466 91C138.242 91 136.33 90.5584 134.73 89.6753C133.17 88.7481 131.882 87.5778 130.868 86.1649C129.892 84.752 129.17 83.1624 128.702 81.3961C128.234 79.5858 128 77.7752 128 75.9649C128 72.6975 128.683 69.8714 130.048 67.487C131.453 65.1026 133.404 63.3363 135.901 62.1883C134.028 60.8636 132.682 59.3403 131.863 57.6182C131.043 55.8961 130.634 54.0858 130.634 52.187C130.634 50.7299 130.868 49.2727 131.336 47.8156C131.804 46.3584 132.526 45.0557 133.501 43.9078C134.477 42.7598 135.667 41.8326 137.071 41.126C138.515 40.3754 140.212 40 142.163 40C143.216 40 144.27 40.1325 145.323 40.3974C146.416 40.6623 147.391 41.126 148.249 41.7883C149.108 42.4064 149.79 43.2674 150.298 44.3714C150.844 45.4312 151.117 46.7778 151.117 48.4117C151.117 50.0895 150.824 51.4142 150.239 52.3857C149.654 53.3572 148.874 53.8429 147.898 53.8429C146.845 53.8429 145.811 53.2468 144.796 52.0546C145.343 51.7896 145.869 51.2597 146.377 50.4649C146.923 49.6259 147.196 48.5661 147.196 47.2857C147.196 46.4467 147.059 45.7404 146.786 45.1662C146.513 44.5481 146.142 44.0402 145.674 43.6428C145.245 43.2454 144.757 42.9585 144.211 42.7818C143.665 42.6051 143.099 42.5169 142.514 42.5169C141.461 42.5169 140.524 42.7818 139.705 43.3117C138.885 43.8415 138.203 44.5481 137.656 45.4312C137.11 46.2702 136.681 47.2415 136.369 48.3455C136.096 49.4052 135.959 50.4869 135.959 51.5909C135.959 52.0765 135.998 52.8274 136.076 53.8429C136.193 54.8144 136.466 55.8519 136.896 56.9558C137.364 58.0156 138.027 59.0533 138.885 60.0688C139.783 61.0404 140.992 61.7247 142.514 62.1221C139.939 62.7844 137.949 64.2858 136.545 66.626C135.179 68.9222 134.496 71.6598 134.496 74.839C134.496 78.0182 135.237 80.6455 136.72 82.7208C138.242 84.752 140.563 85.7675 143.684 85.7675C145.089 85.7675 146.377 85.5688 147.547 85.1714C148.757 84.7298 149.81 84.156 150.707 83.4494C151.644 82.6988 152.444 81.8597 153.107 80.9325C153.77 79.9609 154.277 78.9454 154.628 77.8857L156.092 78.548ZM176.064 43.4442V79.2104C176.064 79.652 176.083 80.2039 176.122 80.8662C176.161 81.5286 176.259 82.1909 176.415 82.8533C176.61 83.4713 176.883 84.0235 177.234 84.5091C177.585 84.9508 178.073 85.1714 178.697 85.1714C180.609 85.1714 182.014 82.765 182.911 77.952H185.076C184.647 80.7338 184.101 82.9415 183.438 84.5753C182.774 86.1649 182.072 87.3791 181.331 88.2182C180.59 89.0572 179.829 89.5871 179.048 89.8078C178.268 90.0727 177.566 90.2052 176.942 90.2052C176.044 90.2052 175.264 90.0285 174.601 89.6753C173.976 89.3222 173.43 88.8586 172.962 88.2844C172.533 87.7103 172.182 87.048 171.908 86.2974C171.636 85.5469 171.421 84.752 171.265 83.913C170.679 85.6351 169.724 87.1142 168.397 88.3507C167.109 89.5871 165.529 90.2052 163.657 90.2052C162.486 90.2052 161.296 89.9403 160.087 89.4104C158.916 88.8805 157.843 88.0195 156.868 86.8273C155.931 85.5908 155.151 84.0235 154.527 82.1247C153.942 80.1819 153.649 77.8195 153.649 75.0377C153.649 73.0064 153.844 70.8869 154.234 68.6792C154.664 66.4715 155.327 64.4622 156.224 62.6519C157.122 60.8416 158.272 59.3403 159.677 58.148C161.082 56.9558 162.779 56.3597 164.769 56.3597C165.237 56.3597 165.725 56.426 166.232 56.5584C166.778 56.6467 167.285 56.8234 167.753 57.0883C168.261 57.3532 168.729 57.7287 169.158 58.2143C169.587 58.6559 169.938 59.2078 170.211 59.8701V44.3714L176.064 43.4442ZM165.12 85.1714C165.705 85.1714 166.29 84.9947 166.875 84.6416C167.5 84.2442 168.046 83.7363 168.514 83.1182C169.021 82.4559 169.431 81.683 169.743 80.8C170.055 79.917 170.211 78.9675 170.211 77.952V62.8507C169.938 62.1441 169.509 61.504 168.924 60.9299C168.378 60.3118 167.656 60.0026 166.758 60.0026C165.51 60.0026 164.437 60.4882 163.54 61.4597C162.642 62.387 161.921 63.5792 161.374 65.0364C160.828 66.4493 160.418 68.0169 160.145 69.739C159.911 71.4168 159.794 73.0287 159.794 74.574C159.794 78.3713 160.243 81.0869 161.14 82.7208C162.076 84.3546 163.403 85.1714 165.12 85.1714ZM202.654 56.6909V79.2104C202.654 79.7403 202.674 80.3584 202.713 81.0649C202.752 81.7273 202.849 82.3676 203.005 82.9857C203.2 83.6038 203.474 84.1337 203.825 84.5753C204.215 84.9727 204.761 85.1714 205.463 85.1714C205.775 85.1714 206.107 85.1272 206.458 85.039C206.849 84.9507 207.161 84.8622 207.395 84.774C207.434 84.9947 207.453 85.1934 207.453 85.3701C207.492 85.5469 207.512 85.7456 207.512 85.9662C207.512 87.2909 207.063 88.3287 206.166 89.0792C205.268 89.8298 204.254 90.2052 203.122 90.2052C201.913 90.2052 200.821 89.7416 199.845 88.8143C198.87 87.8428 198.206 86.2312 197.855 83.9792C197.114 86.143 196.139 87.7326 194.929 88.7481C193.719 89.7196 192.452 90.2052 191.125 90.2052C189.994 90.2052 188.921 90.0285 187.906 89.6753C186.892 89.3222 186.014 88.7481 185.273 87.9533C184.531 87.1142 183.946 86.0544 183.517 84.774C183.088 83.4493 182.873 81.8378 182.873 79.939V56.6909H188.726V79.2104C188.726 81.3741 189.057 82.9195 189.72 83.8468C190.384 84.7298 191.223 85.1714 192.237 85.1714C192.783 85.1714 193.329 85.017 193.876 84.7078C194.422 84.3546 194.91 83.8687 195.339 83.2507C195.768 82.6326 196.119 81.8817 196.392 80.9987C196.665 80.1157 196.802 79.0999 196.802 77.952V56.6909H202.654ZM238.048 78.548C237.502 80.5351 236.702 82.3014 235.649 83.8468C234.595 85.3921 233.366 86.6948 231.962 87.7546C230.557 88.8143 229.035 89.6091 227.397 90.139C225.758 90.7131 224.1 91 222.422 91C220.198 91 218.286 90.5584 216.687 89.6753C215.126 88.7481 213.839 87.5778 212.824 86.1649C211.849 84.752 211.127 83.1624 210.659 81.3961C210.191 79.5858 209.957 77.7752 209.957 75.9649C209.957 72.6975 210.639 69.8714 212.005 67.487C213.409 65.1026 215.36 63.3363 217.857 62.1883C215.985 60.8636 214.638 59.3403 213.819 57.6182C213 55.8961 212.59 54.0858 212.59 52.187C212.59 50.7299 212.824 49.2727 213.292 47.8156C213.761 46.3584 214.482 45.0557 215.458 43.9078C216.433 42.7598 217.623 41.8326 219.028 41.126C220.471 40.3754 222.168 40 224.119 40C225.173 40 226.226 40.1325 227.28 40.3974C228.372 40.6623 229.347 41.126 230.206 41.7883C231.064 42.4064 231.747 43.2674 232.254 44.3714C232.8 45.4312 233.074 46.7778 233.074 48.4117C233.074 50.0895 232.781 51.4142 232.196 52.3857C231.61 53.3572 230.83 53.8429 229.855 53.8429C228.801 53.8429 227.767 53.2468 226.753 52.0546C227.299 51.7896 227.826 51.2597 228.333 50.4649C228.879 49.6259 229.152 48.5661 229.152 47.2857C229.152 46.4467 229.016 45.7404 228.743 45.1662C228.47 44.5481 228.099 44.0402 227.631 43.6428C227.201 43.2454 226.714 42.9585 226.168 42.7818C225.621 42.6051 225.056 42.5169 224.47 42.5169C223.417 42.5169 222.481 42.7818 221.661 43.3117C220.842 43.8415 220.159 44.5481 219.613 45.4312C219.067 46.2702 218.638 47.2415 218.325 48.3455C218.052 49.4052 217.916 50.4869 217.916 51.5909C217.916 52.0765 217.955 52.8274 218.033 53.8429C218.15 54.8144 218.423 55.8519 218.852 56.9558C219.32 58.0156 219.984 59.0533 220.842 60.0688C221.739 61.0404 222.949 61.7247 224.47 62.1221C221.895 62.7844 219.906 64.2858 218.501 66.626C217.135 68.9222 216.453 71.6598 216.453 74.839C216.453 78.0182 217.194 80.6455 218.677 82.7208C220.198 84.752 222.52 85.7675 225.641 85.7675C227.046 85.7675 228.333 85.5688 229.504 85.1714C230.713 84.7298 231.766 84.156 232.664 83.4494C233.6 82.6988 234.4 81.8597 235.063 80.9325C235.727 79.9609 236.234 78.9454 236.585 77.8857L238.048 78.548ZM255.27 67.487C255.27 70.0039 255.075 72.609 254.684 75.3026C254.333 77.952 253.729 80.3806 252.87 82.5883C252.012 84.796 250.9 86.6286 249.534 88.0857C248.169 89.4986 246.472 90.2052 244.443 90.2052C243.428 90.2052 242.433 90.0065 241.458 89.6091C240.522 89.2117 239.663 88.6376 238.883 87.887C238.142 87.1365 237.537 86.1869 237.069 85.039C236.639 83.891 236.425 82.5883 236.425 81.1312V56.6909H242.277V79.2104C242.277 79.9609 242.316 80.6895 242.394 81.3961C242.472 82.1027 242.628 82.7428 242.862 83.3169C243.136 83.8468 243.487 84.2884 243.916 84.6416C244.384 84.9947 244.969 85.1714 245.672 85.1714C246.881 85.1714 247.896 84.6858 248.715 83.7143C249.534 82.6988 250.198 81.3961 250.705 79.8065C251.251 78.2169 251.641 76.4506 251.875 74.5078C252.109 72.5208 252.226 70.5558 252.226 68.613C252.226 67.3765 252.187 66.1623 252.109 64.9701C252.031 63.7337 251.895 62.63 251.7 61.6584C251.505 61.8791 251.251 62.0339 250.939 62.1221C250.627 62.1663 250.373 62.1883 250.178 62.1883C249.242 62.1883 248.539 61.8129 248.071 61.0623C247.603 60.3118 247.369 59.517 247.369 58.6779C247.369 57.7949 247.623 57.0221 248.13 56.3597C248.637 55.6531 249.378 55.3 250.354 55.3C251.017 55.3 251.641 55.5207 252.226 55.9623C252.851 56.404 253.377 57.1103 253.806 58.0818C254.275 59.0091 254.626 60.2456 254.86 61.7909C255.133 63.3363 255.27 65.2351 255.27 67.487ZM278.118 64.9701C278.118 68.0611 276.987 70.6442 274.724 72.7195C272.5 74.7947 269.398 76.0754 265.419 76.5611C265.575 78.3274 265.848 79.7622 266.238 80.8662C266.667 81.9702 267.174 82.8533 267.76 83.5156C268.345 84.1337 269.008 84.5753 269.749 84.8403C270.53 85.061 271.33 85.1714 272.149 85.1714C274.022 85.1714 275.777 84.6196 277.416 83.5156C279.055 82.4116 280.381 80.5571 281.396 77.952H283.268C282.761 79.5858 282.059 81.1532 281.162 82.6545C280.264 84.1117 279.211 85.4144 278.001 86.5624C276.792 87.6663 275.485 88.5494 274.08 89.2117C272.676 89.874 271.232 90.2052 269.749 90.2052C268.384 90.2052 267.057 89.9403 265.77 89.4104C264.521 88.8805 263.409 88.0195 262.434 86.8273C261.458 85.5908 260.659 84.0012 260.034 82.0585C259.449 80.1157 259.157 77.7313 259.157 74.9052C259.157 73.0507 259.332 71.0416 259.683 68.8779C260.073 66.7142 260.698 64.7052 261.556 62.8507C262.453 60.9961 263.604 59.4507 265.009 58.2143C266.452 56.9778 268.228 56.3597 270.335 56.3597C271.31 56.3597 272.246 56.4922 273.144 56.7571C274.08 56.9778 274.919 57.4195 275.66 58.0818C276.401 58.6999 276.987 59.561 277.416 60.6649C277.884 61.7689 278.118 63.2038 278.118 64.9701ZM265.36 73.9779C268.13 73.4923 270.315 72.3883 271.915 70.6662C273.553 68.9442 274.373 66.8247 274.373 64.3078C274.373 62.63 274.119 61.4378 273.612 60.7312C273.105 59.9806 272.383 59.6052 271.447 59.6052C270.432 59.6052 269.535 60.0468 268.754 60.9299C268.013 61.8129 267.389 62.9611 266.882 64.374C266.374 65.7429 265.984 67.2883 265.711 69.0104C265.477 70.6882 265.36 72.3441 265.36 73.9779ZM287.199 56.6909V61.7247C287.784 60.5325 288.37 59.5832 288.955 58.8766C289.579 58.1261 290.203 57.5739 290.828 57.2208C291.452 56.8676 292.037 56.6467 292.583 56.5584C293.168 56.426 293.715 56.3597 294.222 56.3597C295.978 56.3597 297.382 56.7351 298.436 57.4857C299.528 58.2363 300.347 59.2078 300.894 60.4C301.44 61.548 301.791 62.8287 301.947 64.2416C302.142 65.6105 302.24 66.9352 302.24 68.2156C302.24 69.0104 302.22 69.8934 302.181 70.8649C302.142 71.7922 302.103 72.7637 302.064 73.7792C302.025 74.7508 301.986 75.7442 301.947 76.7597C301.908 77.7313 301.889 78.6363 301.889 79.4753C301.889 79.8285 301.908 80.3364 301.947 80.9987C301.986 81.6168 302.084 82.2352 302.24 82.8533C302.396 83.4713 302.649 84.0235 303.001 84.5091C303.352 84.9508 303.859 85.1714 304.522 85.1714C305.419 85.1714 306.219 84.5973 306.922 83.4494C307.663 82.3014 308.268 80.4688 308.736 77.952H310.901C310.472 80.7338 309.926 82.9415 309.263 84.5753C308.599 86.1649 307.897 87.3791 307.156 88.2182C306.414 89.0572 305.673 89.5871 304.932 89.8078C304.19 90.0727 303.508 90.2052 302.883 90.2052C301.635 90.2052 300.582 89.9403 299.723 89.4104C298.865 88.8363 298.162 88.0857 297.616 87.1584C297.07 86.2312 296.66 85.1495 296.387 83.913C296.153 82.6765 296.036 81.3961 296.036 80.0714C296.036 79.674 296.036 78.9454 296.036 77.8857C296.075 76.7817 296.095 75.6118 296.095 74.3753C296.134 73.1389 296.153 71.9689 296.153 70.8649C296.192 69.7609 296.212 68.9884 296.212 68.5467C296.212 67.1339 296.114 65.9636 295.919 65.0364C295.724 64.1091 295.451 63.3805 295.1 62.8507C294.749 62.3208 294.339 61.9454 293.871 61.7247C293.442 61.504 292.973 61.3935 292.466 61.3935C291.257 61.3935 290.203 61.9454 289.306 63.0493C288.447 64.1533 287.745 66.0079 287.199 68.613V89.8078H281.347V56.6909H287.199ZM314.576 46.6234V56.6909H319.083V59.0091H314.576V79.2104C314.576 79.7403 314.596 80.3584 314.635 81.0649C314.674 81.7273 314.772 82.3676 314.927 82.9857C315.123 83.6038 315.396 84.1337 315.747 84.5753C316.137 84.9727 316.664 85.1714 317.327 85.1714C318.38 85.1714 319.375 84.5753 320.312 83.3831C321.287 82.1909 322.048 80.3806 322.594 77.952H324.759C324.096 80.7338 323.375 82.9415 322.594 84.5753C321.853 86.1649 321.072 87.3791 320.253 88.2182C319.434 89.0572 318.614 89.5871 317.795 89.8078C317.015 90.0727 316.293 90.2052 315.63 90.2052C314.225 90.2052 313.074 89.9183 312.177 89.3442C311.28 88.7261 310.577 87.9533 310.07 87.026C309.563 86.0987 309.212 85.0832 309.017 83.9792C308.822 82.8313 308.724 81.7053 308.724 80.6013V59.0091H306.734V56.6909H308.724V47.5507L314.576 46.6234ZM334.142 54.6377C335.079 58.8766 335.859 62.3428 336.483 65.0364C337.108 67.6857 337.595 69.9377 337.947 71.7922C338.337 73.6025 338.61 75.2144 338.766 76.6273C338.922 78.0402 339 79.6078 339 81.3299C339 82.9637 338.688 84.3547 338.064 85.5026C337.44 86.6066 336.659 87.5116 335.723 88.2182C334.786 88.9248 333.791 89.4324 332.738 89.7416C331.684 90.0508 330.748 90.2052 329.929 90.2052C328.212 90.2052 326.788 89.896 325.657 89.2779C324.564 88.6598 323.686 87.887 323.023 86.9598C322.36 85.9882 321.892 84.9285 321.618 83.7805C321.345 82.5883 321.209 81.4623 321.209 80.4026C321.209 79.2546 321.404 78.2611 321.794 77.4221C322.223 76.5391 322.73 75.9207 323.316 75.5675C324.33 72.2559 325.325 68.9884 326.3 65.7649C327.276 62.4975 327.92 59.2298 328.232 55.9623L334.142 54.6377ZM332.796 80.6013C332.796 79.2324 332.718 78.0182 332.562 76.9585C332.445 75.8987 332.25 74.7285 331.977 73.4481C331.704 72.1676 331.353 70.622 330.924 68.8117C330.534 66.9571 330.065 64.5947 329.519 61.7247C329.285 64.1973 328.797 66.5597 328.056 68.8117C327.354 71.0636 326.71 73.3818 326.125 75.7662C326.476 76.0312 326.768 76.4066 327.003 76.8922C327.276 77.3339 327.412 77.93 327.412 78.6805C327.412 79.5196 327.217 80.1596 326.827 80.6013C326.437 81.0429 326.008 81.2636 325.539 81.2636C324.915 81.2636 324.389 80.9545 323.959 80.3364C324.272 81.8817 324.818 83.0962 325.598 83.9792C326.378 84.8183 327.412 85.2377 328.7 85.2377C329.948 85.2377 330.943 84.8845 331.684 84.1779C332.426 83.4274 332.796 82.2352 332.796 80.6013Z" fill="black"/>
<defs>
<clipPath id="clip0_243:1466">
<rect width="388" height="259.606" fill="white" transform="translate(40 105)"/>
</clipPath>
</defs>
</svg>
