<svg width="395" height="241" viewBox="0 0 495 341" fill="none" xmlns="http://www.w3.org/2000/svg">
<g clip-path="url(#clip0_250:2402)">
<path opacity="0.1" d="M279.986 46.681C248.334 46.7232 217.866 37.7666 188.725 27.8166C159.583 17.8666 130.666 6.72467 99.6016 2.0033C79.6233 -1.03157 56.9053 -0.752601 41.2885 10.2668C26.2561 20.8677 21.903 38.4133 19.8027 54.6232C18.2233 66.8176 17.495 79.6165 23.4105 90.7711C27.518 98.5147 34.5472 104.897 39.5016 112.277C56.7952 137.951 46.3953 170.747 29.5886 197.017C21.7083 209.342 12.4771 221.156 6.51917 234.188C0.561252 247.219 -1.88205 261.996 4.19444 274.858C10.2159 287.606 23.817 296.859 38.4133 303.178C68.0547 316.036 102.566 318.792 136.149 319.853C210.49 322.207 284.975 317.406 359.26 312.604C386.75 310.829 414.363 309.041 441.286 303.897C456.234 301.044 471.626 296.808 482.225 287.526C495.678 275.742 498.431 256.501 488.641 242.671C472.223 219.474 428.934 215.099 417.162 190C410.671 176.183 416.269 160.336 424.514 147.018C442.197 118.44 472.634 92.8423 473.147 60.8789C473.498 38.929 457.67 17.5158 434.028 7.97582C409.248 -2.01642 375.461 0.553492 358.1 19.1769C340.247 38.3626 307.934 46.6514 279.986 46.681Z" fill="#F9CF00"/>
<path d="M420.957 273.134C420.957 273.134 415.752 269.706 410.595 272.145C410.595 272.145 412.183 275.197 418.712 274.909L420.957 273.134Z" fill="#F9CF00"/>
<path d="M421.617 273.316C421.617 273.316 423.201 279.335 419.229 283.43C419.229 283.43 416.841 280.949 419.229 274.871L421.617 273.316Z" fill="#F9CF00"/>
<path d="M428.088 267.538C428.088 267.538 427.702 262.419 416.121 264.118C416.121 264.118 416.066 267.419 420.131 268.983C424.196 270.547 426.059 269.228 428.088 267.538Z" fill="#F9CF00"/>
<path d="M428.816 267.504C428.816 267.504 433.711 269.072 429.345 279.914C429.345 279.914 426.114 279.195 425.534 274.88C424.954 270.564 426.673 269.076 428.816 267.504Z" fill="#F9CF00"/>
<path d="M435.354 260.242C435.354 260.242 436.018 251.818 424.183 252.68C424.183 252.68 423.336 260.289 433.266 262.267L435.354 260.242Z" fill="#F9CF00"/>
<path d="M443.175 250.732C443.175 250.732 441.553 241.183 429.722 244.028C429.722 244.028 429.68 252.283 441.244 253.006L443.175 250.732Z" fill="#F9CF00"/>
<path d="M448.892 240.9C448.892 240.9 446.173 231.601 434.452 234.382C434.452 234.382 437.243 242.747 448.113 242.616L448.892 240.9Z" fill="#F9CF00"/>
<path d="M454.32 231.297C454.32 231.297 451.665 221.647 440.346 224.534C440.346 224.534 444.123 233.702 453.57 232.928L454.32 231.297Z" fill="#F9CF00"/>
<path d="M457.818 222.175C457.818 222.175 455.777 210.374 445.225 212.986C445.225 212.986 448.29 223.722 457.043 223.896L457.818 222.175Z" fill="#F9CF00"/>
<path d="M461.1 211.156C461.1 211.156 458.648 199.261 447.973 202.702C447.973 202.702 452.156 213.946 460.342 212.783L461.1 211.156Z" fill="#F9CF00"/>
<path d="M463.115 200.902C463.115 200.902 459.224 189.003 450.971 189.324C450.971 189.324 454.947 201.891 462.425 203.273L463.115 200.902Z" fill="#F9CF00"/>
<path d="M464.419 190.892C464.419 190.892 460.185 176.572 453.469 177.675C453.469 177.675 456.399 188.623 464.182 193.124L464.419 190.892Z" fill="#F9CF00"/>
<path d="M465.156 178.952C465.156 178.952 461.184 167.019 454.57 166.542C454.57 166.542 457.271 178.284 465.025 182.054L465.156 178.952Z" fill="#F9CF00"/>
<path d="M465.957 167.81C465.957 167.81 461.006 155.865 456.641 155.594C456.641 155.594 458.792 167.357 465.533 169.771L465.957 167.81Z" fill="#F9CF00"/>
<path d="M466.503 157.445C466.503 157.445 463.458 144.473 459.084 143.395C459.084 143.395 459.681 154.009 466.062 158.418L466.503 157.445Z" fill="#F9CF00"/>
<path d="M468.154 143.869C468.154 143.869 464.953 133.526 461.409 131.949C461.409 131.949 462.107 144.144 467.337 146.396L468.154 143.869Z" fill="#F9CF00"/>
<path d="M469.522 134.992L470.166 116.758C470.166 116.758 463.539 130.504 469.044 138.192L469.522 134.992Z" fill="#F9CF00"/>
<path d="M474.637 116.855C474.637 116.855 479.41 103.541 480.566 102.797C480.566 102.797 471.207 111.436 472.122 122.549L474.637 116.855Z" fill="#F9CF00"/>
<path d="M435.676 260.179C435.676 260.179 444.068 259.084 443.819 270.923C443.819 270.923 436.235 272.157 433.757 262.364L435.676 260.179Z" fill="#F9CF00"/>
<path d="M443.573 250.41C443.573 250.41 453.27 250.381 452.465 262.499C452.465 262.499 444.322 263.953 441.638 252.701L443.573 250.41Z" fill="#F9CF00"/>
<path d="M448.985 241.682C448.985 241.682 457.788 237.561 463.42 248.2C463.42 248.2 455.29 251.632 448.206 243.402L448.985 241.682Z" fill="#F9CF00"/>
<path d="M454.515 231.385C454.515 231.385 463.53 227.002 468.823 237.392C468.823 237.392 459.431 240.621 453.77 233.03L454.515 231.385Z" fill="#F9CF00"/>
<path d="M457.703 222.433C457.703 222.433 466.38 214.161 473.303 222.526C473.303 222.526 464.44 229.335 457.305 224.276L457.703 222.433Z" fill="#F9CF00"/>
<path d="M460.608 210.873C460.608 210.873 469.336 202.419 476.204 211.261C476.204 211.261 466.41 218.206 460.295 212.648L460.608 210.873Z" fill="#F9CF00"/>
<path d="M462.239 200.563C462.239 200.563 468.963 189.996 476.882 192.355C476.882 192.355 469.903 203.543 462.315 203.044L462.239 200.563Z" fill="#F9CF00"/>
<path d="M464.221 190.825C464.221 190.825 470.996 177.519 477.407 179.835C477.407 179.835 472.52 190.064 464.047 193.069L464.221 190.825Z" fill="#F9CF00"/>
<path d="M464.69 178.258C464.69 178.258 471.656 167.784 478.181 169.065C478.181 169.065 472.486 179.687 464.013 181.289L464.69 178.258Z" fill="#F9CF00"/>
<path d="M465.232 167.577C465.232 167.577 470.631 155.822 475.018 155.742C475.018 155.742 472.427 167.412 465.597 169.572L465.232 167.577Z" fill="#F9CF00"/>
<path d="M466.291 157.192C466.291 157.192 472.291 145.289 476.801 145.264C476.801 145.264 473.731 155.442 466.49 158.236L466.291 157.192Z" fill="#F9CF00"/>
<path d="M467.193 144.613C467.193 144.613 471.681 134.764 475.399 133.648C475.399 133.648 473.155 145.653 467.688 147.225L467.193 144.613Z" fill="#F9CF00"/>
<path d="M470.055 134.633L480.087 119.379C480.087 119.379 477.517 134.426 468.59 137.554L470.055 134.633Z" fill="#F9CF00"/>
<path d="M476.941 118.085C476.941 118.085 488.598 110.054 489.022 108.756C489.022 108.756 483.094 120.004 472.084 121.991L476.941 118.085Z" fill="#F9CF00"/>
<path d="M477.639 114.471C477.639 114.471 491.024 101.626 494.442 101.638C494.442 101.638 483.402 102.141 477.317 113.786L477.639 114.471Z" fill="#F9CF00"/>
<path d="M467.324 146.519L467.811 146.582C470.326 126.932 473.994 115.304 478.135 113.879L477.974 113.414C473.583 114.936 469.89 126.387 467.324 146.519Z" fill="#444053"/>
<path d="M463.623 193.513L464.36 193.572C464.517 191.738 464.635 189.861 464.716 187.989C465.418 171.724 466.507 156.786 467.938 145.589L467.515 145.061C466.079 156.283 464.682 171.669 463.979 187.959C463.898 189.819 463.78 191.687 463.623 193.513Z" fill="#444053"/>
<path d="M407.22 282.509C407.347 282.454 420.317 276.672 433.779 262.884C441.665 254.808 448.219 245.535 453.194 235.409C459.418 222.758 463.213 207.212 464.483 192.11L463.716 192.469C460.858 226.368 445.398 249.531 433.105 262.148C419.775 275.814 406.949 281.537 406.822 281.592L407.22 282.509Z" fill="#444053"/>
<path d="M440.804 36.3761H33.9206C32.9593 36.3761 32.0373 36.7573 31.3576 37.4359C30.6778 38.1144 30.2959 39.0347 30.2959 39.9943V50.536H444.428V39.9943C444.428 39.0347 444.047 38.1144 443.367 37.4359C442.687 36.7573 441.765 36.3761 440.804 36.3761Z" fill="#3F3D56"/>
<path d="M30.2959 50.536V287.763C30.2959 289.698 31.0659 291.553 32.4366 292.922C33.8072 294.29 35.6662 295.058 37.6046 295.058H437.12C439.058 295.058 440.917 294.29 442.288 292.922C443.658 291.553 444.428 289.698 444.428 287.763V50.536H30.2959Z" fill="white"/>
<path opacity="0.8" d="M36.8549 45.0411C37.7904 45.0411 38.5487 44.2842 38.5487 43.3504C38.5487 42.4166 37.7904 41.6597 36.8549 41.6597C35.9195 41.6597 35.1611 42.4166 35.1611 43.3504C35.1611 44.2842 35.9195 45.0411 36.8549 45.0411Z" fill="#FA5959"/>
<path opacity="0.8" d="M41.5131 45.0411C42.4486 45.0411 43.2069 44.2842 43.2069 43.3504C43.2069 42.4166 42.4486 41.6597 41.5131 41.6597C40.5777 41.6597 39.8193 42.4166 39.8193 43.3504C39.8193 44.2842 40.5777 45.0411 41.5131 45.0411Z" fill="#FED253"/>
<path opacity="0.8" d="M46.1708 45.0411C47.1063 45.0411 47.8646 44.2842 47.8646 43.3504C47.8646 42.4166 47.1063 41.6597 46.1708 41.6597C45.2354 41.6597 44.4771 42.4166 44.4771 43.3504C44.4771 44.2842 45.2354 45.0411 46.1708 45.0411Z" fill="#8CCF4D"/>
<path opacity="0.05" d="M401.622 90.0908H68.7915V236.179H401.622V90.0908Z" fill="black"/>
<path d="M399.081 91.1982H71.332V234.065H399.081V91.1982Z" fill="#3F3D56"/>
<path d="M160.68 127.967C154.231 127.967 147.927 129.876 142.565 133.453C137.203 137.029 133.024 142.112 130.556 148.059C128.088 154.006 127.443 160.55 128.701 166.864C129.959 173.177 133.064 178.976 137.624 183.528C142.184 188.08 147.994 191.18 154.319 192.435C160.644 193.691 167.199 193.047 173.157 190.583C179.115 188.12 184.208 183.948 187.79 178.596C191.373 173.244 193.285 166.951 193.285 160.514C193.285 156.24 192.442 152.008 190.803 148.059C189.165 144.11 186.763 140.522 183.735 137.5C180.708 134.478 177.113 132.081 173.157 130.445C169.201 128.809 164.962 127.967 160.68 127.967ZM166.528 161.296V176.707H155.001V161.296C153.406 160.091 152.231 158.416 151.641 156.508C151.05 154.6 151.076 152.555 151.712 150.662C152.349 148.769 153.566 147.124 155.19 145.958C156.814 144.792 158.764 144.165 160.764 144.165C162.765 144.165 164.715 144.792 166.339 145.958C167.963 147.124 169.18 148.769 169.816 150.662C170.453 152.555 170.478 154.6 169.888 156.508C169.298 158.416 168.123 160.091 166.528 161.296Z" fill="#F9CF00"/>
<path opacity="0.05" d="M160.68 127.967C154.231 127.967 147.927 129.876 142.565 133.453C137.203 137.029 133.024 142.112 130.556 148.059C128.088 154.006 127.443 160.55 128.701 166.864C129.959 173.177 133.064 178.976 137.624 183.528C142.184 188.08 147.994 191.18 154.319 192.435C160.644 193.691 167.199 193.047 173.157 190.583C179.115 188.12 184.208 183.948 187.79 178.596C191.373 173.244 193.285 166.951 193.285 160.514C193.285 156.24 192.442 152.008 190.803 148.059C189.165 144.11 186.763 140.522 183.735 137.5C180.708 134.478 177.113 132.081 173.157 130.445C169.201 128.809 164.962 127.967 160.68 127.967ZM166.528 161.296V176.707H155.001V161.296C153.406 160.091 152.231 158.416 151.641 156.508C151.05 154.6 151.076 152.555 151.712 150.662C152.349 148.769 153.566 147.124 155.19 145.958C156.814 144.792 158.764 144.165 160.764 144.165C162.765 144.165 164.715 144.792 166.339 145.958C167.963 147.124 169.18 148.769 169.816 150.662C170.453 152.555 170.478 154.6 169.888 156.508C169.298 158.416 168.123 160.091 166.528 161.296Z" fill="black"/>
<path d="M160.68 118.668C152.388 118.668 144.283 121.123 137.389 125.721C130.495 130.319 125.122 136.854 121.949 144.5C118.776 152.147 117.946 160.56 119.564 168.678C121.181 176.795 125.174 184.251 131.037 190.103C136.9 195.956 144.369 199.941 152.501 201.556C160.633 203.17 169.062 202.342 176.722 199.174C184.382 196.007 190.93 190.644 195.536 183.762C200.142 176.881 202.601 168.79 202.601 160.514C202.601 149.416 198.184 138.772 190.323 130.925C182.461 123.077 171.798 118.668 160.68 118.668ZM168.196 161.52V181.331H153.375V161.52C151.324 159.97 149.812 157.816 149.052 155.363C148.293 152.909 148.325 150.279 149.144 147.844C149.963 145.41 151.527 143.293 153.616 141.794C155.705 140.294 158.213 139.488 160.786 139.488C163.358 139.488 165.866 140.294 167.955 141.794C170.044 143.293 171.608 145.41 172.427 147.844C173.246 150.279 173.278 152.909 172.519 155.363C171.76 157.816 170.248 159.97 168.196 161.52Z" fill="#F9CF00"/>
<path d="M355.466 155.023H219.962V169.395H355.466V155.023Z" fill="white"/>
<path d="M355.466 181.23H326.248V195.601H355.466V181.23Z" fill="#F9CF00"/>
<path d="M233.301 161.993H230.849L233.03 159.821C233.069 159.781 233.091 159.727 233.091 159.671C233.091 159.615 233.069 159.561 233.03 159.521C233.01 159.501 232.987 159.485 232.961 159.475C232.935 159.464 232.908 159.458 232.88 159.458C232.852 159.458 232.824 159.464 232.798 159.475C232.773 159.485 232.749 159.501 232.729 159.521L230.549 161.698V159.246C230.549 159.19 230.526 159.136 230.487 159.097C230.447 159.057 230.393 159.035 230.337 159.035C230.281 159.036 230.228 159.058 230.188 159.098C230.149 159.137 230.126 159.19 230.125 159.246V161.698L227.949 159.508C227.929 159.488 227.906 159.473 227.88 159.462C227.854 159.451 227.826 159.446 227.798 159.446C227.77 159.446 227.743 159.451 227.717 159.462C227.691 159.473 227.668 159.488 227.648 159.508C227.609 159.548 227.587 159.602 227.587 159.658C227.587 159.714 227.609 159.768 227.648 159.808L229.829 161.981H227.373C227.317 161.982 227.264 162.004 227.224 162.044C227.185 162.083 227.162 162.136 227.161 162.192C227.161 162.248 227.183 162.302 227.223 162.342C227.263 162.381 227.317 162.403 227.373 162.403H229.829L227.648 164.58C227.609 164.621 227.587 164.674 227.587 164.73C227.587 164.786 227.609 164.84 227.648 164.88C227.689 164.918 227.743 164.94 227.798 164.94C227.854 164.94 227.908 164.918 227.949 164.88L230.125 162.704V165.151C230.125 165.207 230.148 165.261 230.187 165.3C230.227 165.34 230.281 165.362 230.337 165.362C230.393 165.362 230.447 165.34 230.487 165.3C230.526 165.261 230.549 165.207 230.549 165.151V162.704L232.729 164.88C232.77 164.918 232.824 164.94 232.88 164.94C232.936 164.94 232.989 164.918 233.03 164.88C233.069 164.84 233.091 164.786 233.091 164.73C233.091 164.674 233.069 164.621 233.03 164.58L230.849 162.403H233.301C233.357 162.403 233.411 162.381 233.451 162.342C233.491 162.302 233.513 162.248 233.513 162.192C233.51 162.138 233.486 162.088 233.446 162.051C233.407 162.014 233.355 161.993 233.301 161.993Z" fill="#F9CF00"/>
<path d="M242.194 161.993H239.742L241.923 159.821C241.962 159.781 241.984 159.727 241.984 159.671C241.984 159.615 241.962 159.561 241.923 159.521C241.903 159.501 241.88 159.485 241.854 159.475C241.828 159.464 241.8 159.458 241.772 159.458C241.744 159.458 241.717 159.464 241.691 159.475C241.665 159.485 241.642 159.501 241.622 159.521L239.441 161.698V159.246C239.441 159.19 239.419 159.136 239.379 159.097C239.34 159.057 239.286 159.035 239.23 159.035C239.174 159.036 239.121 159.058 239.081 159.098C239.042 159.137 239.019 159.19 239.018 159.246V161.698L236.841 159.508C236.822 159.488 236.798 159.473 236.772 159.462C236.747 159.451 236.719 159.446 236.691 159.446C236.663 159.446 236.635 159.451 236.61 159.462C236.584 159.473 236.56 159.488 236.541 159.508C236.502 159.548 236.48 159.602 236.48 159.658C236.48 159.714 236.502 159.768 236.541 159.808L238.721 161.981H236.265C236.21 161.982 236.156 162.004 236.117 162.044C236.077 162.083 236.055 162.136 236.054 162.192C236.054 162.248 236.076 162.302 236.116 162.342C236.155 162.381 236.209 162.403 236.265 162.403H238.721L236.541 164.58C236.502 164.621 236.48 164.674 236.48 164.73C236.48 164.786 236.502 164.84 236.541 164.88C236.581 164.918 236.635 164.94 236.691 164.94C236.747 164.94 236.801 164.918 236.841 164.88L239.018 162.704V165.151C239.018 165.207 239.04 165.261 239.08 165.3C239.12 165.34 239.173 165.362 239.23 165.362C239.286 165.362 239.34 165.34 239.379 165.3C239.419 165.261 239.441 165.207 239.441 165.151V162.704L241.622 164.88C241.663 164.918 241.717 164.94 241.772 164.94C241.828 164.94 241.882 164.918 241.923 164.88C241.962 164.84 241.984 164.786 241.984 164.73C241.984 164.674 241.962 164.621 241.923 164.58L239.742 162.403H242.194C242.25 162.403 242.304 162.381 242.343 162.342C242.383 162.302 242.405 162.248 242.405 162.192C242.402 162.138 242.378 162.088 242.339 162.051C242.3 162.014 242.248 161.993 242.194 161.993Z" fill="#F9CF00"/>
<path d="M251.086 161.993H248.635L250.815 159.821C250.854 159.781 250.876 159.727 250.876 159.671C250.876 159.615 250.854 159.561 250.815 159.521C250.796 159.501 250.772 159.485 250.746 159.475C250.721 159.464 250.693 159.458 250.665 159.458C250.637 159.458 250.609 159.464 250.584 159.475C250.558 159.485 250.534 159.501 250.515 159.521L248.334 161.698V159.246C248.334 159.19 248.312 159.136 248.272 159.097C248.232 159.057 248.178 159.035 248.122 159.035C248.066 159.036 248.013 159.058 247.974 159.098C247.934 159.137 247.912 159.19 247.91 159.246V161.698L245.734 159.508C245.714 159.488 245.691 159.473 245.665 159.462C245.639 159.451 245.612 159.446 245.584 159.446C245.556 159.446 245.528 159.451 245.502 159.462C245.476 159.473 245.453 159.488 245.433 159.508C245.394 159.548 245.372 159.602 245.372 159.658C245.372 159.714 245.394 159.768 245.433 159.808L247.614 161.981H245.158C245.102 161.982 245.049 162.004 245.009 162.044C244.97 162.083 244.947 162.136 244.946 162.192C244.946 162.248 244.969 162.302 245.008 162.342C245.048 162.381 245.102 162.403 245.158 162.403H247.614L245.433 164.58C245.394 164.621 245.372 164.674 245.372 164.73C245.372 164.786 245.394 164.84 245.433 164.88C245.474 164.918 245.528 164.94 245.584 164.94C245.639 164.94 245.693 164.918 245.734 164.88L247.91 162.704V165.151C247.91 165.207 247.933 165.261 247.972 165.3C248.012 165.34 248.066 165.362 248.122 165.362C248.178 165.362 248.232 165.34 248.272 165.3C248.312 165.261 248.334 165.207 248.334 165.151V162.704L250.515 164.88C250.555 164.918 250.609 164.94 250.665 164.94C250.721 164.94 250.774 164.918 250.815 164.88C250.854 164.84 250.876 164.786 250.876 164.73C250.876 164.674 250.854 164.621 250.815 164.58L248.635 162.403H251.086C251.142 162.403 251.196 162.381 251.236 162.342C251.276 162.302 251.298 162.248 251.298 162.192C251.295 162.138 251.271 162.088 251.232 162.051C251.192 162.014 251.14 161.993 251.086 161.993Z" fill="#F9CF00"/>
<path d="M259.978 161.993H257.527L259.707 159.821C259.746 159.781 259.768 159.727 259.768 159.671C259.768 159.615 259.746 159.561 259.707 159.521C259.688 159.501 259.664 159.485 259.638 159.475C259.613 159.464 259.585 159.458 259.557 159.458C259.529 159.458 259.501 159.464 259.476 159.475C259.45 159.485 259.426 159.501 259.407 159.521L257.226 161.698V159.246C257.226 159.19 257.204 159.136 257.164 159.097C257.124 159.057 257.07 159.035 257.014 159.035C256.958 159.036 256.905 159.058 256.866 159.098C256.826 159.137 256.804 159.19 256.803 159.246V161.698L254.626 159.508C254.606 159.488 254.583 159.473 254.557 159.462C254.531 159.451 254.504 159.446 254.476 159.446C254.448 159.446 254.42 159.451 254.394 159.462C254.368 159.473 254.345 159.488 254.325 159.508C254.286 159.548 254.264 159.602 254.264 159.658C254.264 159.714 254.286 159.768 254.325 159.808L256.506 161.981H254.05C253.994 161.982 253.941 162.004 253.902 162.044C253.862 162.083 253.839 162.136 253.838 162.192C253.838 162.248 253.861 162.302 253.9 162.342C253.94 162.381 253.994 162.403 254.05 162.403H256.506L254.325 164.58C254.286 164.621 254.264 164.674 254.264 164.73C254.264 164.786 254.286 164.84 254.325 164.88C254.366 164.918 254.42 164.94 254.476 164.94C254.531 164.94 254.585 164.918 254.626 164.88L256.803 162.704V165.151C256.803 165.207 256.825 165.261 256.865 165.3C256.904 165.34 256.958 165.362 257.014 165.362C257.07 165.362 257.124 165.34 257.164 165.3C257.204 165.261 257.226 165.207 257.226 165.151V162.704L259.407 164.88C259.448 164.918 259.501 164.94 259.557 164.94C259.613 164.94 259.667 164.918 259.707 164.88C259.746 164.84 259.768 164.786 259.768 164.73C259.768 164.674 259.746 164.621 259.707 164.58L257.527 162.403H259.978C260.035 162.403 260.088 162.381 260.128 162.342C260.168 162.302 260.19 162.248 260.19 162.192C260.187 162.138 260.163 162.088 260.124 162.051C260.084 162.014 260.032 161.993 259.978 161.993Z" fill="#F9CF00"/>
<path d="M268.871 161.993H266.419L268.6 159.821C268.639 159.781 268.661 159.727 268.661 159.671C268.661 159.615 268.639 159.561 268.6 159.521C268.58 159.501 268.557 159.485 268.531 159.475C268.505 159.464 268.478 159.458 268.45 159.458C268.422 159.458 268.394 159.464 268.368 159.475C268.342 159.485 268.319 159.501 268.299 159.521L266.119 161.698V159.246C266.119 159.19 266.096 159.136 266.057 159.097C266.017 159.057 265.963 159.035 265.907 159.035C265.851 159.036 265.798 159.058 265.758 159.098C265.719 159.137 265.696 159.19 265.695 159.246V161.698L263.519 159.508C263.499 159.488 263.475 159.473 263.45 159.462C263.424 159.451 263.396 159.446 263.368 159.446C263.34 159.446 263.313 159.451 263.287 159.462C263.261 159.473 263.238 159.488 263.218 159.508C263.179 159.548 263.157 159.602 263.157 159.658C263.157 159.714 263.179 159.768 263.218 159.808L265.399 161.981H262.943C262.887 161.982 262.834 162.004 262.794 162.044C262.755 162.083 262.732 162.136 262.731 162.192C262.731 162.248 262.753 162.302 262.793 162.342C262.833 162.381 262.887 162.403 262.943 162.403H265.399L263.218 164.58C263.179 164.621 263.157 164.674 263.157 164.73C263.157 164.786 263.179 164.84 263.218 164.88C263.259 164.918 263.312 164.94 263.368 164.94C263.424 164.94 263.478 164.918 263.519 164.88L265.695 162.704V165.151C265.695 165.207 265.717 165.261 265.757 165.3C265.797 165.34 265.851 165.362 265.907 165.362C265.963 165.362 266.017 165.34 266.057 165.3C266.096 165.261 266.119 165.207 266.119 165.151V162.704L268.299 164.88C268.34 164.918 268.394 164.94 268.45 164.94C268.505 164.94 268.559 164.918 268.6 164.88C268.639 164.84 268.661 164.786 268.661 164.73C268.661 164.674 268.639 164.621 268.6 164.58L266.419 162.403H268.871C268.927 162.403 268.981 162.381 269.021 162.342C269.06 162.302 269.083 162.248 269.083 162.192C269.079 162.138 269.056 162.088 269.016 162.051C268.977 162.014 268.925 161.993 268.871 161.993Z" fill="#F9CF00"/>
<path d="M277.764 161.993H275.312L277.493 159.821C277.532 159.781 277.553 159.727 277.553 159.671C277.553 159.615 277.532 159.561 277.493 159.521C277.473 159.501 277.449 159.485 277.424 159.475C277.398 159.464 277.37 159.458 277.342 159.458C277.314 159.458 277.287 159.464 277.261 159.475C277.235 159.485 277.212 159.501 277.192 159.521L275.011 161.698V159.246C275.011 159.19 274.989 159.136 274.949 159.097C274.909 159.057 274.856 159.035 274.799 159.035C274.744 159.036 274.69 159.058 274.651 159.098C274.611 159.137 274.589 159.19 274.588 159.246V161.698L272.411 159.508C272.391 159.488 272.368 159.473 272.342 159.462C272.316 159.451 272.289 159.446 272.261 159.446C272.233 159.446 272.205 159.451 272.179 159.462C272.154 159.473 272.13 159.488 272.11 159.508C272.071 159.548 272.05 159.602 272.05 159.658C272.05 159.714 272.071 159.768 272.11 159.808L274.291 161.981H271.835C271.779 161.982 271.726 162.004 271.687 162.044C271.647 162.083 271.625 162.136 271.624 162.192C271.624 162.248 271.646 162.302 271.686 162.342C271.725 162.381 271.779 162.403 271.835 162.403H274.291L272.11 164.58C272.071 164.621 272.05 164.674 272.05 164.73C272.05 164.786 272.071 164.84 272.11 164.88C272.151 164.918 272.205 164.94 272.261 164.94C272.317 164.94 272.37 164.918 272.411 164.88L274.588 162.704V165.151C274.588 165.207 274.61 165.261 274.65 165.3C274.689 165.34 274.743 165.362 274.799 165.362C274.856 165.362 274.909 165.34 274.949 165.3C274.989 165.261 275.011 165.207 275.011 165.151V162.704L277.192 164.88C277.233 164.918 277.286 164.94 277.342 164.94C277.398 164.94 277.452 164.918 277.493 164.88C277.532 164.84 277.553 164.786 277.553 164.73C277.553 164.674 277.532 164.621 277.493 164.58L275.312 162.403H277.764C277.82 162.403 277.874 162.381 277.913 162.342C277.953 162.302 277.975 162.248 277.975 162.192C277.972 162.138 277.948 162.088 277.909 162.051C277.87 162.014 277.818 161.993 277.764 161.993Z" fill="#F9CF00"/>
<path d="M286.656 161.993H284.204L286.385 159.821C286.424 159.781 286.445 159.727 286.445 159.671C286.445 159.615 286.424 159.561 286.385 159.521C286.365 159.501 286.341 159.485 286.316 159.475C286.29 159.464 286.262 159.458 286.234 159.458C286.206 159.458 286.179 159.464 286.153 159.475C286.127 159.485 286.104 159.501 286.084 159.521L283.903 161.698V159.246C283.903 159.19 283.881 159.136 283.841 159.097C283.801 159.057 283.748 159.035 283.691 159.035C283.636 159.036 283.582 159.058 283.543 159.098C283.503 159.137 283.481 159.19 283.48 159.246V161.698L281.303 159.508C281.284 159.488 281.26 159.473 281.234 159.462C281.209 159.451 281.181 159.446 281.153 159.446C281.125 159.446 281.097 159.451 281.071 159.462C281.046 159.473 281.022 159.488 281.003 159.508C280.964 159.548 280.942 159.602 280.942 159.658C280.942 159.714 280.964 159.768 281.003 159.808L283.183 161.981H280.727C280.672 161.982 280.618 162.004 280.579 162.044C280.539 162.083 280.517 162.136 280.516 162.192C280.516 162.248 280.538 162.302 280.578 162.342C280.617 162.381 280.671 162.403 280.727 162.403H283.183L281.003 164.58C280.964 164.621 280.942 164.674 280.942 164.73C280.942 164.786 280.964 164.84 281.003 164.88C281.043 164.918 281.097 164.94 281.153 164.94C281.209 164.94 281.262 164.918 281.303 164.88L283.48 162.704V165.151C283.48 165.207 283.502 165.261 283.542 165.3C283.581 165.34 283.635 165.362 283.691 165.362C283.748 165.362 283.801 165.34 283.841 165.3C283.881 165.261 283.903 165.207 283.903 165.151V162.704L286.084 164.88C286.125 164.918 286.178 164.94 286.234 164.94C286.29 164.94 286.344 164.918 286.385 164.88C286.424 164.84 286.445 164.786 286.445 164.73C286.445 164.674 286.424 164.621 286.385 164.58L284.204 162.403H286.656C286.712 162.403 286.766 162.381 286.805 162.342C286.845 162.302 286.867 162.248 286.867 162.192C286.864 162.138 286.84 162.088 286.801 162.051C286.762 162.014 286.71 161.993 286.656 161.993Z" fill="#F9CF00"/>
<path d="M295.548 161.993H293.096L295.277 159.821C295.316 159.781 295.338 159.727 295.338 159.671C295.338 159.615 295.316 159.561 295.277 159.521C295.258 159.501 295.234 159.485 295.208 159.475C295.183 159.464 295.155 159.458 295.127 159.458C295.099 159.458 295.071 159.464 295.045 159.475C295.02 159.485 294.996 159.501 294.977 159.521L292.796 161.698V159.246C292.796 159.19 292.773 159.136 292.734 159.097C292.694 159.057 292.64 159.035 292.584 159.035C292.528 159.036 292.475 159.058 292.436 159.098C292.396 159.137 292.373 159.19 292.372 159.246V161.698L290.196 159.508C290.176 159.488 290.153 159.473 290.127 159.462C290.101 159.451 290.073 159.446 290.045 159.446C290.018 159.446 289.99 159.451 289.964 159.462C289.938 159.473 289.915 159.488 289.895 159.508C289.856 159.548 289.834 159.602 289.834 159.658C289.834 159.714 289.856 159.768 289.895 159.808L292.076 161.981H289.62C289.564 161.982 289.511 162.004 289.471 162.044C289.432 162.083 289.409 162.136 289.408 162.192C289.408 162.248 289.431 162.302 289.47 162.342C289.51 162.381 289.564 162.403 289.62 162.403H292.076L289.895 164.58C289.856 164.621 289.834 164.674 289.834 164.73C289.834 164.786 289.856 164.84 289.895 164.88C289.936 164.918 289.99 164.94 290.045 164.94C290.101 164.94 290.155 164.918 290.196 164.88L292.372 162.704V165.151C292.372 165.207 292.395 165.261 292.434 165.3C292.474 165.34 292.528 165.362 292.584 165.362C292.64 165.362 292.694 165.34 292.734 165.3C292.773 165.261 292.796 165.207 292.796 165.151V162.704L294.977 164.88C295.017 164.918 295.071 164.94 295.127 164.94C295.183 164.94 295.236 164.918 295.277 164.88C295.316 164.84 295.338 164.786 295.338 164.73C295.338 164.674 295.316 164.621 295.277 164.58L293.096 162.403H295.548C295.604 162.403 295.658 162.381 295.698 162.342C295.738 162.302 295.76 162.248 295.76 162.192C295.757 162.138 295.733 162.088 295.694 162.051C295.654 162.014 295.602 161.993 295.548 161.993Z" fill="#F9CF00"/>
<path d="M304.441 161.993H301.989L304.17 159.821C304.209 159.781 304.231 159.727 304.231 159.671C304.231 159.615 304.209 159.561 304.17 159.521C304.15 159.501 304.127 159.485 304.101 159.475C304.075 159.464 304.047 159.458 304.019 159.458C303.991 159.458 303.964 159.464 303.938 159.475C303.912 159.485 303.889 159.501 303.869 159.521L301.688 161.698V159.246C301.688 159.19 301.666 159.136 301.626 159.097C301.587 159.057 301.533 159.035 301.477 159.035C301.421 159.036 301.368 159.058 301.328 159.098C301.289 159.137 301.266 159.19 301.265 159.246V161.698L299.088 159.508C299.069 159.488 299.045 159.473 299.019 159.462C298.994 159.451 298.966 159.446 298.938 159.446C298.91 159.446 298.882 159.451 298.857 159.462C298.831 159.473 298.807 159.488 298.788 159.508C298.749 159.548 298.727 159.602 298.727 159.658C298.727 159.714 298.749 159.768 298.788 159.808L300.968 161.981H298.513C298.457 161.982 298.403 162.004 298.364 162.044C298.324 162.083 298.302 162.136 298.301 162.192C298.301 162.248 298.323 162.302 298.363 162.342C298.402 162.381 298.456 162.403 298.513 162.403H300.968L298.788 164.58C298.749 164.621 298.727 164.674 298.727 164.73C298.727 164.786 298.749 164.84 298.788 164.88C298.829 164.918 298.882 164.94 298.938 164.94C298.994 164.94 299.048 164.918 299.088 164.88L301.265 162.704V165.151C301.265 165.207 301.287 165.261 301.327 165.3C301.367 165.34 301.42 165.362 301.477 165.362C301.533 165.362 301.587 165.34 301.626 165.3C301.666 165.261 301.688 165.207 301.688 165.151V162.704L303.869 164.88C303.91 164.918 303.964 164.94 304.019 164.94C304.075 164.94 304.129 164.918 304.17 164.88C304.209 164.84 304.231 164.786 304.231 164.73C304.231 164.674 304.209 164.621 304.17 164.58L301.989 162.403H304.441C304.497 162.403 304.551 162.381 304.59 162.342C304.63 162.302 304.652 162.248 304.652 162.192C304.649 162.138 304.626 162.088 304.586 162.051C304.547 162.014 304.495 161.993 304.441 161.993Z" fill="#F9CF00"/>
<path d="M313.333 161.993H310.881L313.062 159.821C313.101 159.781 313.123 159.727 313.123 159.671C313.123 159.615 313.101 159.561 313.062 159.521C313.042 159.501 313.019 159.485 312.993 159.475C312.967 159.464 312.939 159.458 312.912 159.458C312.884 159.458 312.856 159.464 312.83 159.475C312.804 159.485 312.781 159.501 312.761 159.521L310.58 161.698V159.246C310.58 159.19 310.558 159.136 310.518 159.097C310.479 159.057 310.425 159.035 310.369 159.035C310.313 159.036 310.26 159.058 310.22 159.098C310.181 159.137 310.158 159.19 310.157 159.246V161.698L307.98 159.508C307.961 159.488 307.937 159.473 307.912 159.462C307.886 159.451 307.858 159.446 307.83 159.446C307.802 159.446 307.775 159.451 307.749 159.462C307.723 159.473 307.7 159.488 307.68 159.508C307.641 159.548 307.619 159.602 307.619 159.658C307.619 159.714 307.641 159.768 307.68 159.808L309.861 161.981H307.405C307.349 161.982 307.296 162.004 307.256 162.044C307.217 162.083 307.194 162.136 307.193 162.192C307.193 162.248 307.215 162.302 307.255 162.342C307.295 162.381 307.348 162.403 307.405 162.403H309.861L307.68 164.58C307.641 164.621 307.619 164.674 307.619 164.73C307.619 164.786 307.641 164.84 307.68 164.88C307.721 164.918 307.774 164.94 307.83 164.94C307.886 164.94 307.94 164.918 307.98 164.88L310.157 162.704V165.151C310.157 165.207 310.179 165.261 310.219 165.3C310.259 165.34 310.313 165.362 310.369 165.362C310.425 165.362 310.479 165.34 310.518 165.3C310.558 165.261 310.58 165.207 310.58 165.151V162.704L312.761 164.88C312.802 164.918 312.856 164.94 312.912 164.94C312.967 164.94 313.021 164.918 313.062 164.88C313.101 164.84 313.123 164.786 313.123 164.73C313.123 164.674 313.101 164.621 313.062 164.58L310.881 162.403H313.333C313.389 162.403 313.443 162.381 313.483 162.342C313.522 162.302 313.545 162.248 313.545 162.192C313.541 162.138 313.518 162.088 313.478 162.051C313.439 162.014 313.387 161.993 313.333 161.993Z" fill="#F9CF00"/>
<path d="M322.225 161.993H319.774L321.954 159.821C321.993 159.781 322.015 159.727 322.015 159.671C322.015 159.615 321.993 159.561 321.954 159.521C321.935 159.501 321.911 159.485 321.886 159.475C321.86 159.464 321.832 159.458 321.804 159.458C321.776 159.458 321.748 159.464 321.723 159.475C321.697 159.485 321.673 159.501 321.654 159.521L319.473 161.698V159.246C319.473 159.19 319.451 159.136 319.411 159.097C319.371 159.057 319.317 159.035 319.261 159.035C319.205 159.036 319.152 159.058 319.113 159.098C319.073 159.137 319.051 159.19 319.05 159.246V161.698L316.873 159.508C316.853 159.488 316.83 159.473 316.804 159.462C316.778 159.451 316.751 159.446 316.723 159.446C316.695 159.446 316.667 159.451 316.641 159.462C316.616 159.473 316.592 159.488 316.572 159.508C316.533 159.548 316.511 159.602 316.511 159.658C316.511 159.714 316.533 159.768 316.572 159.808L318.753 161.981H316.297C316.241 161.982 316.188 162.004 316.149 162.044C316.109 162.083 316.087 162.136 316.085 162.192C316.085 162.248 316.108 162.302 316.147 162.342C316.187 162.381 316.241 162.403 316.297 162.403H318.753L316.572 164.58C316.533 164.621 316.511 164.674 316.511 164.73C316.511 164.786 316.533 164.84 316.572 164.88C316.613 164.918 316.667 164.94 316.723 164.94C316.779 164.94 316.832 164.918 316.873 164.88L319.05 162.704V165.151C319.05 165.207 319.072 165.261 319.112 165.3C319.151 165.34 319.205 165.362 319.261 165.362C319.317 165.362 319.371 165.34 319.411 165.3C319.451 165.261 319.473 165.207 319.473 165.151V162.704L321.654 164.88C321.695 164.918 321.748 164.94 321.804 164.94C321.86 164.94 321.914 164.918 321.954 164.88C321.993 164.84 322.015 164.786 322.015 164.73C322.015 164.674 321.993 164.621 321.954 164.58L319.774 162.403H322.225C322.282 162.403 322.335 162.381 322.375 162.342C322.415 162.302 322.437 162.248 322.437 162.192C322.434 162.138 322.41 162.088 322.371 162.051C322.331 162.014 322.279 161.993 322.225 161.993Z" fill="#F9CF00"/>
<path d="M390.396 213.413C390.384 212.902 390.321 212.394 390.206 211.895C389.825 210.467 388.965 208.738 387.551 208.307C386.091 207.861 384.68 207.266 383.342 206.532C383.088 202 384.129 197.364 382.994 192.972C382.571 191.366 381.872 189.827 381.686 188.183C381.453 186.137 382.012 183.956 381.195 182.071C380.551 180.583 379.137 179.535 377.617 178.985C376.097 178.436 374.458 178.288 372.844 178.14C370.812 177.975 364.232 177.197 361.936 179.011C361.778 179.133 361.636 179.275 361.513 179.433C361.462 179.503 361.417 179.577 361.377 179.653L361.356 179.687C361.31 179.775 361.272 179.867 361.242 179.962C361.21 180.065 361.186 180.171 361.17 180.279C361.17 180.313 361.17 180.346 361.17 180.38C361.17 180.414 361.17 180.528 361.17 180.604V180.718C361.17 180.794 361.17 180.871 361.17 180.951C361.17 181.031 361.17 181.01 361.17 181.04C361.2 181.42 361.255 181.8 361.255 182.177C361.259 182.364 361.242 182.551 361.204 182.735C361.063 183.233 360.824 183.699 360.501 184.104L360.425 184.214C360.378 184.282 360.332 184.345 360.289 184.413C360.247 184.48 360.213 184.531 360.179 184.59C360.145 184.649 360.111 184.687 360.082 184.742C360.041 184.812 360.004 184.884 359.972 184.958C359.972 185 359.925 185.038 359.908 185.08C359.855 185.195 359.813 185.314 359.781 185.435C359.682 185.803 359.673 186.188 359.756 186.56C359.87 187.034 360.066 187.485 360.336 187.891C360.442 188.065 360.556 188.234 360.675 188.403L360.971 188.804C360.916 189.196 360.886 189.592 360.882 189.988C360.882 191.311 361.183 192.618 361.763 193.808C362.342 194.999 363.185 196.042 364.227 196.861C364.395 198.646 364.377 200.443 364.172 202.224C364.134 202.596 364.088 202.973 364.037 203.345C363.986 203.717 363.948 203.962 363.897 204.27C363.277 204.359 362.646 204.311 362.047 204.131C361.77 204.008 361.487 203.899 361.2 203.805C359.967 203.497 358.71 204.723 357.49 204.351C357.49 204.41 357.456 204.465 357.435 204.52C357.181 204.362 356.888 204.276 356.588 204.27C355.864 204.236 355.276 203.712 354.751 203.218L353.137 201.7C353.032 201.607 352.938 201.502 352.858 201.388C352.771 201.223 352.706 201.048 352.663 200.868C352.392 199.993 351.736 199.295 351.1 198.632C350.98 198.48 350.82 198.365 350.639 198.298C350.569 198.287 350.497 198.287 350.427 198.298C350.384 198.239 350.337 198.182 350.287 198.129C350.178 198.003 350.06 197.885 349.936 197.774C349.165 197.064 349.089 196.455 348.42 195.66C347.836 194.902 347.307 194.104 346.836 193.272C346.781 192.828 346.705 192.372 346.612 191.911C346.398 190.856 346.088 189.823 345.684 188.825L344.838 186.953L344.74 187.05C344.126 186.137 343.47 185.638 342.881 185.757C341.895 185.96 341.408 187.87 341.564 190.368L341.903 192.904C341.903 192.968 341.933 193.031 341.95 193.095C341.889 193.395 341.858 193.701 341.857 194.008C341.857 194.363 342.187 194.625 342.36 194.942C342.638 195.371 342.785 195.872 342.784 196.383C342.763 196.565 342.708 196.738 342.699 196.916C342.722 197.313 342.861 197.695 343.097 198.015L345.214 201.565L345.638 202.309L345.663 202.343C345.797 202.602 345.992 202.826 346.231 202.994C346.314 203.883 346.55 204.751 346.929 205.559C347.001 205.72 347.082 205.872 347.167 206.024C347.736 206.958 348.406 207.827 349.165 208.615L350.173 209.744C351.168 210.851 352.163 211.963 353.243 212.986C353.63 213.396 354.097 213.723 354.615 213.945C354.869 214.047 355.145 214.08 355.416 214.04C355.686 214.001 355.942 213.891 356.156 213.721C356.156 214.246 356.156 214.77 356.156 215.294C356.314 215.304 356.465 215.355 356.596 215.443C356.727 215.53 356.832 215.651 356.9 215.793C356.968 215.935 356.997 216.092 356.984 216.249C356.971 216.406 356.916 216.556 356.825 216.685C355.936 218.963 355.038 221.262 353.692 223.304C354.642 223.865 355.524 224.536 356.317 225.303C356.832 225.873 357.29 226.491 357.685 227.15C357.723 227.463 357.753 227.771 357.77 228.08C358.083 233.118 356.131 238.119 354.382 242.92C353.878 244.282 353.328 245.706 353.37 247.122C353.038 247.326 352.721 247.554 352.422 247.802C352.769 248.707 352.633 249.514 352.595 250.482C352.583 251.063 352.463 251.636 352.244 252.173C352.06 252.545 351.856 252.908 351.634 253.259C350.537 255.191 350.296 257.486 350.076 259.693C349.944 261.024 350.461 262.651 349.855 263.843C348.81 265.889 347.882 268.07 347.738 270.344C347.733 270.856 347.668 271.365 347.543 271.862C347.412 272.284 347.179 272.644 347.061 273.058C346.939 273.613 346.91 274.184 346.976 274.749C347.057 276.775 346.755 278.798 346.087 280.713C345.557 282.222 344.973 283.836 345.388 285.387C344.366 286.459 343.736 287.842 343.597 289.314C343.586 289.691 343.541 290.066 343.461 290.434C343.332 290.811 343.162 291.173 342.953 291.512C342.101 293.062 341.702 294.819 341.801 296.584C340.531 298.305 339.896 300.427 339.519 302.536C339.142 304.645 338.977 306.792 338.494 308.876C337.851 311.632 336.686 314.417 336.458 317.241C335.086 318.116 334.493 319.811 334.23 321.413C333.968 323.015 333.925 324.697 333.252 326.176C332.905 326.946 332.405 327.635 332.075 328.421C331.843 329.047 331.673 329.694 331.567 330.353C331.363 331.384 331.186 332.534 331.435 333.523C331.076 333.902 330.657 334.221 330.195 334.465C330.262 334.203 330.318 333.941 330.364 333.675C329.272 334.664 327.29 334.317 326.418 335.505C326.156 335.888 326.053 336.358 326.133 336.814C326.212 337.271 326.466 337.679 326.841 337.952C327.114 338.118 327.409 338.245 327.718 338.329C329.835 339.005 332.011 339.685 334.188 339.326C334.445 339.298 334.694 339.219 334.92 339.094C335.204 338.886 335.436 338.617 335.602 338.307C335.928 337.792 336.254 337.276 336.576 336.76C337.356 336.993 338.149 337.178 338.952 337.314C339.032 337.99 339.091 338.667 339.121 339.343C339.544 339.428 340.112 339.453 340.311 339.06C340.371 338.911 340.396 338.751 340.383 338.591C340.383 338.291 340.425 337.893 340.451 337.487H340.535C341.827 337.54 343.113 337.28 344.283 336.731C343.83 332.986 345.325 329.325 346.62 325.783C347.988 322.055 349.161 318.26 350.342 314.464C351.189 311.793 352.125 309.206 352.955 306.53C354 303.149 355.048 299.767 356.101 296.386C356.559 294.898 357.02 293.427 357.545 291.948C358.651 288.954 359.962 286.04 361.471 283.228C361.894 282.429 362.318 281.638 362.665 280.81C363.088 279.8 363.389 278.743 363.728 277.699C364.466 275.557 365.354 273.469 366.387 271.452C366.417 271.397 366.438 271.346 366.467 271.295C366.81 272.694 367.153 274.115 367.382 275.522C367.691 277.248 367.716 279.013 367.454 280.746C367.251 281.926 366.865 283.092 366.912 284.289C366.975 285.941 367.86 287.442 368.297 289.035C368.578 290.228 368.737 291.446 368.771 292.67C368.889 294.572 369.923 296.707 369.194 298.47C366.929 304.053 368.026 310.36 366.734 316.222C366.069 319.232 364.032 322.06 364.193 325.137C364.306 327.321 364.498 329.499 364.769 331.671C364.835 332.357 365.013 333.027 365.299 333.654C365.468 333.984 365.661 334.3 365.879 334.601C365.692 334.672 365.536 334.863 365.4 335.264C365.053 336.321 365.4 337.631 366.34 338.223C366.723 338.427 367.136 338.57 367.564 338.646C368.14 338.809 368.736 338.892 369.334 338.891C369.52 338.881 369.706 338.858 369.889 338.823C370.543 339.098 371.212 339.338 371.892 339.542C371.892 339.715 371.926 339.888 371.947 340.062C371.948 340.152 371.968 340.242 372.006 340.324C372.044 340.406 372.099 340.479 372.167 340.539C372.273 340.588 372.39 340.609 372.506 340.598H374.805C374.805 340.408 374.805 340.214 374.805 340.024C375.068 340.051 375.334 340.023 375.586 339.941C375.837 339.86 376.069 339.727 376.266 339.55C376.47 339.291 376.614 338.991 376.689 338.671C377.316 336.549 377.939 334.426 378.557 332.301C379.298 329.953 379.607 327.489 379.467 325.031C378.65 317.241 380.445 309.426 379.861 301.614C379.509 296.919 379.751 292.199 380.581 287.564C380.771 286.516 381.004 285.451 381.089 284.407C381.275 282.437 381.047 280.446 381.186 278.489C381.233 277.805 381.326 277.124 381.411 276.444C381.991 272.22 382.295 267.963 382.321 263.7C382.308 262.287 382.221 260.876 382.059 259.473C382.5 259.361 382.901 259.126 383.215 258.796C383.592 258.306 383.494 257.617 383.49 256.992C383.49 255.495 384.121 254.084 384.629 252.672C385.281 250.725 385.816 248.74 386.23 246.729C386.667 245.108 386.906 243.44 386.941 241.762C386.941 241.593 386.933 241.424 386.916 241.255C387.075 241.145 387.208 241 387.305 240.832C387.416 240.585 387.484 240.321 387.508 240.05C387.661 238.973 387.818 237.891 387.97 236.808C388.083 236.034 388.194 235.26 388.305 234.488L389.651 225.109C389.765 224.293 389.884 223.481 389.998 222.67L390.35 220.243C390.388 219.956 390.43 219.669 390.46 219.398C391.493 217.674 390.506 215.374 390.396 213.413ZM379.162 248.529C378.663 247.346 378.197 246.133 378.315 244.856H378.269C378.38 244.464 378.361 244.045 378.214 243.664C378.082 243.356 377.854 243.094 377.714 242.785C377.564 242.409 377.486 242.007 377.485 241.602C377.38 239.031 377.584 236.457 378.091 233.934C378.146 233.638 378.205 233.338 378.26 233.042C378.438 232.94 378.6 232.813 378.743 232.666C378.966 232.413 379.15 232.128 379.289 231.821C379.768 230.861 380.204 229.885 380.606 228.892C380.738 228.57 380.928 228.198 381.254 228.118C381.186 230.591 381.44 233.114 380.433 235.346C380.241 235.706 380.099 236.09 380.009 236.487C379.916 237.117 380.179 237.755 380.085 238.381C380.039 238.706 379.899 239.006 379.844 239.328C379.802 239.485 379.803 239.651 379.846 239.809C379.889 239.966 379.973 240.109 380.09 240.224C380.146 240.263 380.207 240.294 380.272 240.317C380.246 240.486 380.225 240.659 380.208 240.824C380.174 241.171 380.157 241.496 380.136 241.699C380.039 242.733 380.001 243.772 380.022 244.81C380.022 245.93 380.064 247.05 380.047 248.191C380.063 248.519 380.008 248.846 379.886 249.151C379.802 249.308 379.694 249.451 379.565 249.574C379.442 249.193 379.306 248.859 379.162 248.529Z" fill="url(#paint0_linear_250:2402)"/>
<path d="M345.736 199.485C347.028 199.221 347.468 196.046 346.718 192.394C345.969 188.742 344.313 185.995 343.021 186.26C341.729 186.524 341.289 189.699 342.039 193.351C342.789 197.003 344.444 199.75 345.736 199.485Z" fill="#FBBEBE"/>
<path d="M365.468 335.345C365.121 336.393 365.468 337.703 366.408 338.274C366.789 338.476 367.199 338.619 367.623 338.696C368.198 338.858 368.792 338.939 369.389 338.937C370.121 338.903 370.824 338.616 371.557 338.515C371.642 338.493 371.731 338.505 371.807 338.548C371.843 338.588 371.871 338.635 371.887 338.686C371.903 338.737 371.908 338.791 371.9 338.844C371.908 339.26 371.939 339.675 371.993 340.087C371.994 340.178 372.014 340.267 372.052 340.349C372.09 340.432 372.145 340.505 372.213 340.565C372.319 340.614 372.436 340.634 372.552 340.624H374.847C374.899 338.611 374.678 336.601 374.191 334.647C374.159 334.498 374.102 334.355 374.021 334.224C373.827 334.012 373.571 333.864 373.289 333.802C372.728 333.569 372.122 333.463 371.515 333.493C370.774 333.59 370.155 334.068 369.524 334.465C368.893 334.863 368.034 335.213 367.267 335.011C366.501 334.808 365.862 334.169 365.468 335.345Z" fill="#3F3D56"/>
<path d="M331.77 333.489C331.125 334.179 330.333 334.716 329.454 335.061L329.064 335.247C329.01 335.268 328.964 335.305 328.933 335.353C328.925 335.386 328.925 335.42 328.933 335.453C328.94 335.486 328.955 335.517 328.975 335.543C329.299 336.044 329.778 336.425 330.339 336.628C330.9 336.832 331.513 336.847 332.083 336.672C332.335 336.609 332.569 336.487 332.765 336.317C333.088 335.934 333.273 335.455 333.29 334.956C333.418 334.44 333.396 333.899 333.227 333.396C332.638 332.073 332.422 332.673 331.77 333.489Z" fill="#FBBEBE"/>
<path d="M340.569 338.696C340.582 338.856 340.558 339.017 340.497 339.165C340.298 339.554 339.744 339.533 339.312 339.449C339.246 338.015 339.072 336.587 338.791 335.18C337.969 335.142 337.377 335.919 336.936 336.617L335.801 338.413C335.637 338.722 335.406 338.991 335.124 339.199C334.897 339.323 334.648 339.402 334.391 339.432C332.223 339.791 330.034 339.111 327.942 338.434C327.634 338.352 327.339 338.227 327.066 338.062C326.692 337.789 326.44 337.381 326.361 336.926C326.282 336.47 326.383 336.002 326.642 335.619C327.519 334.436 329.488 334.774 330.58 333.793C330.466 334.483 330.279 335.159 330.021 335.809C331.482 335.59 332.465 334.254 333.642 333.362C333.937 333.112 334.294 332.943 334.675 332.872C334.96 332.848 335.248 332.878 335.522 332.961C336.879 333.302 338.149 333.925 339.248 334.791C339.693 335.142 340.387 335.636 340.582 336.177C340.79 336.824 340.569 338.007 340.569 338.696Z" fill="#3F3D56"/>
<path d="M369.698 199.236C374.53 199.236 378.447 195.326 378.447 190.503C378.447 185.681 374.53 181.771 369.698 181.771C364.867 181.771 360.95 185.681 360.95 190.503C360.95 195.326 364.867 199.236 369.698 199.236Z" fill="#FBBEBE"/>
<path d="M386.933 242.062C386.897 243.732 386.66 245.391 386.226 247.004C385.811 249.006 385.277 250.982 384.625 252.921C384.121 254.329 383.49 255.74 383.494 257.233C383.494 257.854 383.596 258.543 383.215 259.033C382.875 259.377 382.448 259.622 381.978 259.739C381.744 259.801 381.528 259.917 381.347 260.078C381.166 260.239 381.025 260.44 380.937 260.665C380.539 260.072 380.242 259.418 380.056 258.729C379.297 256.407 378.591 254.072 377.939 251.725C377.879 251.59 377.853 251.442 377.864 251.295C377.874 251.148 377.92 251.005 377.998 250.88C378.105 250.786 378.231 250.716 378.366 250.672C378.8 250.496 379.198 250.241 379.539 249.92C379.699 249.778 379.832 249.608 379.929 249.417C380.052 249.114 380.108 248.788 380.094 248.462C380.094 247.342 380.094 246.226 380.064 245.106C380.047 244.072 380.086 243.037 380.183 242.007C380.183 241.805 380.221 241.479 380.255 241.133C380.318 240.469 380.445 239.7 380.805 239.442C381.343 239.082 382.952 239.564 383.562 239.649C384.612 239.793 385.679 239.962 386.704 240.16C386.853 240.784 386.93 241.422 386.933 242.062Z" fill="#3F3D56"/>
<path d="M351.609 200.28C351.27 200.956 350.457 201.282 349.83 201.709L347.683 203.18C347.54 203.309 347.372 203.408 347.189 203.47C347.007 203.532 346.813 203.557 346.621 203.543C346.446 203.479 346.286 203.38 346.15 203.253C346.014 203.126 345.905 202.973 345.829 202.804C345.83 202.792 345.83 202.781 345.829 202.77L345.384 202.026L343.267 198.484C343.031 198.167 342.895 197.787 342.873 197.393C342.873 197.211 342.937 197.042 342.953 196.861C342.959 196.35 342.812 195.85 342.53 195.424C342.361 195.107 342.022 194.844 342.03 194.489C342.014 194.023 342.095 193.558 342.267 193.124C342.49 192.723 342.808 192.383 343.195 192.135C343.394 191.991 343.597 191.856 343.809 191.712C343.921 191.636 344.046 191.579 344.177 191.543C344.529 191.471 344.876 191.763 345.232 191.776C346.76 192.799 347.349 194.735 348.551 196.129C349.229 196.924 349.297 197.533 350.063 198.243C350.186 198.353 350.305 198.471 350.419 198.594C350.57 198.759 350.699 198.944 350.8 199.143C350.94 199.507 351.782 199.934 351.609 200.28Z" fill="#3F3D56"/>
<path d="M366.624 199.24C367.255 200.572 367.746 202.034 367.564 203.497C367.527 203.893 367.401 204.276 367.195 204.617C366.586 205.551 365.307 205.72 364.193 205.775C363.959 205.755 363.722 205.783 363.498 205.855C363.275 205.928 363.067 206.044 362.889 206.198C362.74 206.414 362.667 206.673 362.682 206.934C362.697 207.196 362.798 207.445 362.97 207.643C363.327 208.025 363.772 208.315 364.265 208.489C366.027 209.262 367.928 209.9 369.842 209.723C370.731 209.638 371.595 209.381 372.48 209.25C373.445 209.145 374.415 209.092 375.385 209.089C376.537 209.047 377.684 208.932 378.832 208.818L381.872 208.518C382.038 208.521 382.2 208.462 382.325 208.353C382.55 208.091 382.262 207.707 381.982 207.508C380.369 206.316 378.315 205.496 377.396 203.704C376.973 202.859 376.842 201.853 376.528 200.94C376.215 200.027 375.715 199.202 375.52 198.272C375.417 197.457 375.37 196.635 375.381 195.812C375.391 194.983 375.089 194.18 374.534 193.564C373.928 193.002 373.052 192.858 372.23 192.824C370.206 192.735 368.051 193.217 366.615 194.642C366.23 195.026 365.9 195.487 365.502 195.834C365.104 196.18 364.562 196.282 364.824 196.738C365.087 197.195 365.603 197.478 365.883 197.879C366.166 198.313 366.414 198.768 366.624 199.24Z" fill="#FBBEBE"/>
<path d="M383.871 211.536C383.337 214.791 382.469 217.982 381.28 221.059C380.682 222.449 380.173 223.875 379.755 225.328C379.429 226.639 379.493 228.042 379.192 229.357C378.82 230.992 378.447 232.632 378.146 234.281C377.642 236.798 377.44 239.366 377.545 241.931C377.546 242.335 377.623 242.736 377.774 243.111C377.913 243.415 378.138 243.677 378.269 243.99C378.367 244.265 378.407 244.557 378.387 244.848C378.367 245.139 378.286 245.422 378.15 245.681C377.933 246.164 377.639 246.61 377.278 246.999C373.332 248.174 369.11 247.79 364.998 248.039C361.208 248.267 357.376 249.045 353.641 248.398C353.218 246.708 353.925 244.937 354.531 243.288C356.288 238.499 358.231 233.512 357.918 228.494C357.885 227.909 357.819 227.326 357.719 226.749C357.105 223.194 357.774 219.512 358.845 216.067C359.51 213.92 359.481 211.633 359.328 209.397C359.253 208.671 359.243 207.94 359.299 207.212C359.36 206.469 359.636 205.76 360.095 205.171C360.095 205.141 360.133 205.111 360.154 205.082C360.175 205.052 360.34 205.056 360.472 205.082C360.505 205.096 360.541 205.103 360.577 205.103C360.614 205.103 360.65 205.096 360.683 205.082L360.73 205.052C360.748 205.039 360.769 205.033 360.791 205.033C360.813 205.033 360.835 205.039 360.853 205.052C360.95 205.111 361.005 205.314 361.217 205.352C361.53 205.4 361.845 205.429 362.161 205.441C362.541 205.452 362.919 205.506 363.287 205.602H363.338C363.889 205.694 364.454 205.646 364.981 205.462C365.332 205.375 365.671 205.244 365.989 205.073C366.082 204.972 366.667 204.879 366.785 204.807C367.17 204.575 367.086 203.484 367.166 203.036C367.211 202.587 367.318 202.146 367.484 201.726C367.677 201.416 367.943 201.158 368.259 200.974C368.575 200.791 368.931 200.687 369.296 200.673C370.025 200.656 370.754 200.721 371.468 200.868C373.048 201.092 374.666 201.054 376.215 201.417C376.994 201.599 377.846 201.874 378.561 201.519C378.756 201.565 378.786 201.734 378.786 201.941C378.767 202.138 378.728 202.332 378.667 202.52C378.396 203.687 379.315 204.761 380.162 205.606C380.52 206.004 380.942 206.34 381.411 206.599C381.834 206.794 382.258 206.874 382.681 207.085C383.024 207.268 383.316 207.534 383.528 207.859C383.772 208.231 383.937 208.65 384.011 209.089C384.102 209.907 384.055 210.734 383.871 211.536Z" fill="#3F3D56"/>
<path opacity="0.1" d="M383.871 211.536C383.337 214.791 382.469 217.982 381.28 221.059C380.682 222.449 380.173 223.875 379.755 225.328C379.429 226.639 379.493 228.042 379.192 229.357C378.82 230.992 378.447 232.632 378.146 234.281C378.057 234.332 377.964 234.378 377.871 234.42C377.344 234.671 376.786 234.851 376.211 234.953C375.179 235.078 374.133 235.043 373.111 234.851L367.069 234.044C364.655 233.719 362.085 233.326 360.294 231.694C359.299 230.798 358.646 229.614 357.931 228.473C357.898 227.888 357.832 227.305 357.732 226.728C357.118 223.173 357.787 219.491 358.858 216.046C359.523 213.899 359.493 211.612 359.341 209.376C359.265 208.65 359.256 207.919 359.311 207.191C359.372 206.448 359.649 205.738 360.107 205.149C360.231 205.113 360.357 205.085 360.484 205.065C360.569 205.048 360.656 205.036 360.742 205.031H360.865C361.008 205.032 361.15 205.049 361.289 205.082C361.577 205.174 361.86 205.282 362.136 205.407H362.186C362.55 205.527 362.931 205.581 363.313 205.568C363.872 205.568 364.448 205.479 365.007 205.441C365.697 205.333 366.404 205.46 367.014 205.8C367.407 206.116 367.781 206.456 368.132 206.819C368.555 207.151 369.032 207.41 369.542 207.584C373.187 208.973 377.231 208.888 380.814 207.347C381.158 207.152 381.549 207.053 381.945 207.06C382.237 207.117 382.514 207.235 382.758 207.407C383.012 207.555 383.261 207.698 383.52 207.829C383.764 208.202 383.928 208.62 384.003 209.059C384.1 209.886 384.055 210.724 383.871 211.536Z" fill="black"/>
<path d="M387.559 208.738C385.873 208.224 384.253 207.515 382.732 206.625C382.487 206.454 382.211 206.336 381.919 206.278C381.522 206.273 381.131 206.372 380.784 206.565C377.202 208.106 373.16 208.191 369.516 206.802C369.007 206.626 368.531 206.368 368.106 206.037C367.754 205.676 367.381 205.335 366.988 205.018C365.595 204.118 363.668 205.175 362.11 204.596C361.833 204.473 361.551 204.364 361.263 204.27C360.031 203.962 358.777 205.188 357.566 204.816C357.116 206.038 356.782 207.3 356.571 208.586C356.399 210.062 356.307 211.546 356.296 213.033C356.296 213.924 356.253 214.816 356.296 215.708C356.445 215.732 356.588 215.788 356.714 215.87C356.841 215.952 356.95 216.06 357.033 216.186C357.088 216.333 357.111 216.491 357.099 216.648C357.088 216.805 357.042 216.957 356.965 217.095C356.08 219.364 355.182 221.659 353.84 223.693C354.786 224.255 355.664 224.925 356.457 225.688C357.939 227.252 358.667 229.445 360.268 230.891C362.072 232.518 364.642 232.916 367.043 233.237L373.086 234.044C374.109 234.235 375.155 234.271 376.189 234.15C376.763 234.045 377.32 233.865 377.845 233.613C378.188 233.47 378.502 233.263 378.768 233.004C378.992 232.751 379.176 232.466 379.314 232.159C379.793 231.204 380.229 230.227 380.631 229.238C380.771 228.887 380.983 228.477 381.364 228.448C383.608 226.427 385.725 224.356 387.97 222.336C388.872 221.59 389.681 220.738 390.379 219.8C391.493 218.155 390.481 215.826 390.379 213.84C390.367 213.332 390.303 212.826 390.189 212.331C389.824 210.889 388.969 209.165 387.559 208.738Z" fill="#F9CF00"/>
<path opacity="0.1" d="M351.608 200.28C351.27 200.956 350.457 201.282 349.83 201.709L347.683 203.18C347.54 203.309 347.372 203.408 347.189 203.47C347.006 203.532 346.813 203.557 346.62 203.543C346.446 203.479 346.285 203.38 346.15 203.253C346.014 203.126 345.904 202.973 345.828 202.804C345.828 202.706 345.828 202.601 345.828 202.499C345.812 202.157 345.858 201.815 345.964 201.489C346.174 201.011 346.5 200.593 346.912 200.272C347.71 199.518 348.658 198.942 349.694 198.581C349.856 198.518 350.032 198.501 350.203 198.53C350.268 198.547 350.331 198.574 350.389 198.611C350.54 198.776 350.669 198.96 350.77 199.16C350.939 199.507 351.782 199.934 351.608 200.28Z" fill="black"/>
<path d="M356.664 204.735C355.945 204.701 355.356 204.182 354.831 203.687L353.226 202.199C353.119 202.108 353.025 202.003 352.947 201.886C352.86 201.722 352.794 201.547 352.752 201.366C352.412 200.513 351.878 199.749 351.194 199.135C351.074 198.983 350.914 198.869 350.732 198.805C350.56 198.773 350.382 198.791 350.22 198.856C349.183 199.216 348.234 199.792 347.438 200.546C347.025 200.868 346.7 201.286 346.489 201.764C346.383 202.089 346.337 202.432 346.354 202.774C346.363 203.891 346.615 204.992 347.09 206.003C347.162 206.16 347.243 206.316 347.327 206.468C347.892 207.4 348.56 208.267 349.318 209.051L350.325 210.175C351.316 211.283 352.307 212.39 353.383 213.409C353.768 213.819 354.236 214.145 354.755 214.364C355.015 214.47 355.3 214.503 355.578 214.458C355.856 214.413 356.116 214.293 356.33 214.11C356.533 213.876 356.686 213.603 356.779 213.307C357.431 211.617 358.049 209.858 358.087 208.036C358.096 207.307 358.065 206.577 357.994 205.851C357.931 205.082 357.384 204.782 356.664 204.735Z" fill="#F9CF00"/>
<path d="M382.326 263.911C382.301 268.163 381.998 272.409 381.419 276.621C381.335 277.302 381.242 277.982 381.195 278.663C381.055 280.637 381.284 282.619 381.098 284.58C381 285.641 380.78 286.694 380.594 287.729C379.766 292.351 379.524 297.059 379.874 301.741C380.458 309.531 378.667 317.325 379.48 325.094C379.579 326.605 379.495 328.122 379.23 329.613C379.079 330.538 378.859 331.451 378.574 332.343C377.956 334.46 377.335 336.573 376.711 338.684C376.637 339.005 376.493 339.305 376.287 339.563C376.071 339.749 375.818 339.888 375.544 339.969C375.27 340.049 374.982 340.071 374.699 340.032C372.256 339.956 369.957 338.903 367.738 337.876C367.483 337.776 367.246 337.633 367.039 337.454C366.578 336.976 366.616 336.224 366.412 335.594C366.209 334.964 365.659 334.372 365.345 333.726C365.088 333.114 364.932 332.464 364.884 331.802C364.601 329.638 364.41 327.466 364.308 325.285C364.147 322.216 366.18 319.392 366.849 316.408C368.119 310.541 367.043 304.252 369.3 298.685C370.012 296.927 368.979 294.796 368.877 292.903C368.84 291.681 368.681 290.466 368.403 289.276C367.979 287.687 367.086 286.191 367.022 284.542C366.976 283.35 367.361 282.188 367.56 281.013C367.824 279.283 367.8 277.522 367.488 275.801C367.264 274.381 366.921 272.961 366.578 271.574L366.501 271.731C365.47 273.743 364.582 275.827 363.846 277.965C363.508 279.001 363.211 280.057 362.788 281.063C362.44 281.909 362.013 282.682 361.594 283.477C360.09 286.279 358.781 289.182 357.677 292.163C357.152 293.626 356.69 295.122 356.233 296.589L353.095 306.733C352.248 309.4 351.321 311.979 350.491 314.641C349.318 318.446 348.145 322.216 346.781 325.936C345.511 329.465 343.999 333.121 344.452 336.849C343.285 337.397 342.002 337.657 340.713 337.606C338.531 337.413 336.39 336.895 334.362 336.067C333.553 335.767 332.714 335.429 332.168 334.765C331.228 333.62 331.461 331.942 331.745 330.484C331.852 329.826 332.022 329.181 332.253 328.556C332.575 327.778 333.1 327.09 333.43 326.32C334.095 324.845 334.137 323.175 334.4 321.573C334.662 319.971 335.247 318.281 336.619 317.41C336.851 314.595 338.012 311.818 338.651 309.066C339.134 306.982 339.295 304.839 339.676 302.726C340.057 300.613 340.671 298.499 341.95 296.787C341.849 295.022 342.248 293.264 343.102 291.715C343.308 291.375 343.477 291.014 343.605 290.637C343.684 290.27 343.73 289.897 343.741 289.521C343.881 288.053 344.51 286.673 345.528 285.603C345.104 284.06 345.693 282.45 346.222 280.954C346.889 279.044 347.191 277.027 347.112 275.006C347.046 274.442 347.073 273.871 347.192 273.316C347.311 272.893 347.544 272.534 347.679 272.128C347.8 271.631 347.864 271.122 347.87 270.61C348.035 268.324 348.962 266.168 349.987 264.127C350.597 262.935 350.08 261.316 350.207 259.988C350.427 257.782 350.669 255.5 351.765 253.576C351.969 253.213 352.189 252.866 352.371 252.49C352.592 251.953 352.711 251.38 352.722 250.799C352.76 249.831 352.896 249.028 352.549 248.128C354.814 246.247 357.905 245.719 360.853 245.592C363.8 245.465 366.781 245.731 369.665 245.106C370.511 244.916 371.358 244.653 372.252 244.527C374.28 244.231 376.338 244.692 378.341 245.148C378.201 246.416 378.667 247.633 379.188 248.813C381.221 253.59 382.288 258.721 382.326 263.911Z" fill="#33313F"/>
<path opacity="0.1" d="M372.353 264.879L367.488 275.801C367.263 274.381 366.92 272.961 366.577 271.574L366.501 271.731V271.502L369.152 265.682L372.353 264.879Z" fill="black"/>
<path opacity="0.1" d="M386.933 242.062C386.652 242.272 386.317 242.397 385.967 242.422C385.431 242.441 384.895 242.368 384.383 242.206L380.572 241.255C380.453 241.226 380.337 241.185 380.225 241.133C380.289 240.469 380.416 239.7 380.776 239.442C381.313 239.082 382.922 239.564 383.532 239.649C384.582 239.793 385.649 239.962 386.674 240.16C386.833 240.782 386.92 241.421 386.933 242.062Z" fill="black"/>
<path d="M390.155 216.913C390.236 217.264 390.35 217.61 390.418 217.965C390.532 218.836 390.502 219.72 390.329 220.582L389.981 222.999L389.634 225.43L388.292 234.784L387.962 237.1L387.496 240.334C387.474 240.603 387.405 240.866 387.293 241.111C387.154 241.341 386.96 241.533 386.729 241.669C386.497 241.806 386.236 241.883 385.967 241.893C385.431 241.91 384.896 241.837 384.383 241.678L380.572 240.723C380.405 240.693 380.247 240.628 380.107 240.532C379.99 240.419 379.906 240.276 379.863 240.12C379.82 239.963 379.819 239.798 379.861 239.64C379.916 239.319 380.056 239.019 380.102 238.698C380.196 238.072 379.933 237.43 380.026 236.808C380.118 236.413 380.26 236.031 380.45 235.671C381.72 232.869 380.983 229.597 381.415 226.554C381.804 224.159 382.817 221.908 384.354 220.028C385.302 218.841 386.391 217.774 387.597 216.849C388.072 216.482 388.825 215.725 389.423 215.581C390.189 215.421 390.028 216.38 390.155 216.913Z" fill="#F9CF00"/>
<path d="M361.314 180.503C361.035 181.39 361.471 182.367 361.272 183.271C361.056 184.269 360.116 184.962 359.849 185.964C359.425 187.49 360.721 188.88 361.67 190.148C365.184 194.857 364.723 201.375 363.52 207.119C362.553 211.728 361.214 216.251 359.519 220.645C358.989 222.01 358.405 223.397 357.363 224.42C359.311 223.862 361.382 223.299 363.334 223.841C365.807 224.525 367.941 226.922 370.448 226.377C371.955 226.043 373.014 224.707 374.369 223.967C376.91 222.602 379.971 223.46 382.804 223.9C383.414 224.043 384.053 224.011 384.646 223.807C385.099 223.564 385.484 223.21 385.764 222.78C387.028 221.16 387.785 219.205 387.94 217.158C388.007 216.139 387.857 215.117 387.498 214.16C387.14 213.203 386.582 212.333 385.861 211.608C385.26 211.042 384.54 210.585 384.079 209.917C383.63 209.137 383.389 208.255 383.38 207.356C383.045 202.706 384.18 197.96 383.012 193.462C382.588 191.86 381.898 190.326 381.712 188.686C381.479 186.644 382.033 184.459 381.22 182.591C380.581 181.107 379.171 180.055 377.651 179.514C376.13 178.973 374.504 178.821 372.891 178.668C370.571 178.474 362.284 177.481 361.314 180.503Z" fill="#33313F"/>
<g opacity="0.1">
<path opacity="0.1" d="M363.52 207.119C362.558 211.709 361.226 216.214 359.54 220.59C359.832 220.011 360.078 219.402 360.311 218.798C362.008 214.405 363.347 209.881 364.312 205.272C365.519 199.524 365.981 193.014 362.466 188.301C361.619 187.177 360.531 185.96 360.569 184.641C360.256 185.04 360.013 185.488 359.849 185.968C359.426 187.494 360.721 188.885 361.67 190.153C365.185 194.857 364.723 201.375 363.52 207.119Z" fill="black"/>
<path opacity="0.1" d="M361.323 182.844C361.663 182.423 361.916 181.939 362.068 181.42C362.133 180.792 362.116 180.158 362.017 179.535C361.691 179.78 361.446 180.117 361.314 180.503C361.064 181.251 361.352 182.063 361.323 182.844Z" fill="black"/>
<path opacity="0.1" d="M386.56 220.92C386.28 221.349 385.895 221.701 385.442 221.943C384.85 222.151 384.21 222.184 383.6 222.036C380.767 221.613 377.672 220.742 375.165 222.108C373.806 222.843 372.751 224.179 371.24 224.517C368.737 225.075 366.603 222.678 364.13 221.981C362.377 221.495 360.531 221.896 358.765 222.403C358.414 223.15 357.94 223.833 357.363 224.424C359.311 223.866 361.382 223.304 363.334 223.845C365.807 224.53 367.941 226.926 370.448 226.381C371.955 226.047 373.014 224.711 374.369 223.972C376.91 222.606 379.971 223.464 382.804 223.904C383.415 224.048 384.053 224.015 384.646 223.811C385.099 223.568 385.484 223.215 385.764 222.784C386.531 221.773 387.124 220.642 387.517 219.436C387.234 219.953 386.914 220.449 386.56 220.92Z" fill="black"/>
</g>
</g>
<defs>
<linearGradient id="paint0_linear_250:2402" x1="326.134" y1="259.211" x2="390.921" y2="259.211" gradientUnits="userSpaceOnUse">
<stop stop-color="#808080" stop-opacity="0.25"/>
<stop offset="0.54" stop-color="#808080" stop-opacity="0.12"/>
<stop offset="1" stop-color="#808080" stop-opacity="0.1"/>
</linearGradient>
<clipPath id="clip0_250:2402">
<rect width="493.813" height="340.298" fill="white" transform="translate(0.671387 0.3508)"/>
</clipPath>
</defs>
</svg>
