<svg width="244" height="60" viewBox="0 0 244 60" fill="none" xmlns="http://www.w3.org/2000/svg">
<path d="M33.2555 44.7207C32.6283 47.0026 31.7097 49.0311 30.4999 50.8058C29.2901 52.5805 27.8788 54.0765 26.2657 55.2935C24.6527 56.5105 22.9053 57.4232 21.0234 58.0317C19.1416 58.6911 17.2373 59.0205 15.3107 59.0205C12.7567 59.0205 10.5612 58.5134 8.72416 57.4993C6.93191 56.4344 5.45331 55.0905 4.28836 53.468C3.1682 51.8454 2.3393 50.0199 1.80163 47.9914C1.26395 45.9125 0.995117 43.8332 0.995117 41.7543C0.995117 38.0019 1.77923 34.7565 3.34743 32.0182C4.96045 29.2799 7.20075 27.2515 10.0683 25.9332C7.91765 24.4119 6.37184 22.6625 5.43092 20.6848C4.48999 18.7072 4.01953 16.6282 4.01953 14.4476C4.01953 12.7743 4.28836 11.1009 4.82603 9.42747C5.36371 7.75409 6.19261 6.25808 7.31277 4.93977C8.43293 3.62145 9.79951 2.55657 11.4125 1.74512C13.0704 0.883182 15.0194 0.452057 17.2597 0.452057C18.4695 0.452057 19.6792 0.604179 20.889 0.908431C22.1436 1.21268 23.2637 1.74512 24.2495 2.50575C25.2352 3.21557 26.0193 4.20437 26.6018 5.4722C27.229 6.68921 27.5427 8.23572 27.5427 10.112C27.5427 12.0389 27.2067 13.5601 26.5346 14.6758C25.8625 15.7915 24.9664 16.3492 23.8462 16.3492C22.6364 16.3492 21.4491 15.6647 20.2841 14.2955C20.9114 13.9913 21.5163 13.3828 22.0988 12.47C22.726 11.5064 23.0397 10.2894 23.0397 8.81898C23.0397 7.85541 22.8829 7.04429 22.5692 6.38497C22.2556 5.67516 21.8299 5.09189 21.2923 4.63551C20.7994 4.17913 20.2393 3.84964 19.612 3.6467C18.9848 3.44376 18.3351 3.34244 17.663 3.34244C16.4532 3.34244 15.3779 3.64669 14.4369 4.25519C13.496 4.8637 12.7119 5.67514 12.0846 6.68921C11.4573 7.65278 10.9645 8.76817 10.606 10.036C10.2924 11.253 10.1356 12.4952 10.1356 13.7631C10.1356 14.3208 10.1804 15.183 10.27 16.3492C10.4044 17.4649 10.718 18.6564 11.2109 19.9242C11.7486 21.1412 12.5103 22.333 13.496 23.4991C14.5265 24.6148 15.9155 25.4007 17.663 25.8571C14.7058 26.6177 12.4207 28.3419 10.8076 31.0294C9.23944 33.6663 8.45533 36.8102 8.45533 40.4612C8.45533 44.1122 9.30665 47.1295 11.0093 49.5127C12.7567 51.8454 15.4227 53.0116 19.0072 53.0116C20.6202 53.0116 22.0988 52.7834 23.443 52.327C24.8319 51.8198 26.0417 51.1608 27.0722 50.3494C28.1476 49.4874 29.0662 48.5239 29.8278 47.459C30.5894 46.3433 31.172 45.1771 31.5753 43.9601L33.2555 44.7207ZM56.1915 4.40733V45.4813C56.1915 45.9885 56.2141 46.6223 56.2587 47.3829C56.3036 48.1436 56.4157 48.9042 56.5948 49.6648C56.819 50.3746 57.1324 51.0087 57.5357 51.5664C57.9389 52.0736 58.4992 52.327 59.2159 52.327C61.4115 52.327 63.0245 49.5635 64.055 44.0362H66.5417C66.0489 47.2308 65.4217 49.7661 64.6599 51.6425C63.8982 53.468 63.0917 54.8623 62.2403 55.8259C61.3892 56.7895 60.5155 57.398 59.6192 57.6514C58.7231 57.9557 57.9166 58.1078 57.1996 58.1078C56.1692 58.1078 55.2732 57.9049 54.5113 57.4993C53.7946 57.0938 53.1671 56.5613 52.6294 55.902C52.1367 55.2427 51.7334 54.482 51.4197 53.6201C51.1062 52.7582 50.8597 51.8454 50.6804 50.8818C50.0083 52.8595 48.9106 54.5581 47.3871 55.978C45.9085 57.398 44.0939 58.1078 41.9432 58.1078C40.599 58.1078 39.2325 57.8036 37.8434 57.1951C36.4992 56.5865 35.2672 55.5977 34.1469 54.2286C33.0716 52.8086 32.1756 51.0087 31.4586 48.8281C30.7865 46.5971 30.4504 43.884 30.4504 40.6894C30.4504 38.3567 30.6746 35.9227 31.1225 33.3873C31.6156 30.852 32.3772 28.5445 33.4076 26.4656C34.4384 24.3866 35.7599 22.6624 37.373 21.2933C38.986 19.9242 40.935 19.2396 43.2202 19.2396C43.7578 19.2396 44.3181 19.3157 44.9004 19.4678C45.5279 19.5691 46.1101 19.772 46.6478 20.0763C47.2304 20.3806 47.7681 20.8117 48.2608 21.3694C48.7539 21.8766 49.1571 22.5103 49.4706 23.2709V5.4722L56.1915 4.40733ZM43.6234 52.327C44.2955 52.327 44.9676 52.1241 45.6397 51.7185C46.3567 51.2621 46.9839 50.6789 47.5215 49.9691C48.1041 49.2084 48.5746 48.3209 48.9329 47.3069C49.2916 46.2928 49.4706 45.2024 49.4706 44.0362V26.6938C49.1571 25.8823 48.6641 25.1473 47.992 24.4879C47.3648 23.7781 46.536 23.4231 45.5053 23.4231C44.0716 23.4231 42.8395 23.9808 41.8088 25.0965C40.7783 26.1613 39.9495 27.5305 39.322 29.2039C38.6948 30.8264 38.2244 32.6267 37.9106 34.6043C37.6418 36.5312 37.5074 38.3822 37.5074 40.1569C37.5074 44.5178 38.0227 47.6363 39.0532 49.5127C40.1285 51.389 41.652 52.327 43.6234 52.327ZM86.7282 19.6199V45.4813C86.7282 46.0898 86.7505 46.7997 86.7954 47.6111C86.8403 48.3717 86.9521 49.1071 87.1314 49.8169C87.3554 50.5267 87.6691 51.1353 88.0723 51.6425C88.5205 52.0988 89.1477 52.327 89.9542 52.327C90.3126 52.327 90.6935 52.2762 91.0968 52.1749C91.5449 52.0736 91.9033 51.9719 92.1721 51.8706C92.217 52.1241 92.2393 52.3523 92.2393 52.5552C92.2842 52.7581 92.3065 52.9863 92.3065 53.2398C92.3065 54.761 91.7912 55.9528 90.7607 56.8147C89.7303 57.6767 88.5651 58.1078 87.2658 58.1078C85.8768 58.1078 84.6224 57.5754 83.5021 56.5105C82.3819 55.3948 81.6203 53.544 81.217 50.9579C80.3656 53.4427 79.2457 55.2682 77.8566 56.4344C76.4675 57.5501 75.0115 58.1078 73.488 58.1078C72.1887 58.1078 70.9563 57.9049 69.7915 57.4993C68.6266 57.0938 67.6185 56.4344 66.7671 55.5217C65.9157 54.5581 65.2436 53.3411 64.7508 51.8706C64.258 50.3494 64.0115 48.4986 64.0115 46.318V19.6199H70.7324V45.4813C70.7324 47.9662 71.1134 49.7409 71.875 50.8058C72.6366 51.8198 73.6001 52.327 74.7649 52.327C75.3921 52.327 76.0196 52.1496 76.6468 51.7946C77.274 51.389 77.8343 50.831 78.327 50.1212C78.8198 49.4114 79.2231 48.5491 79.5368 47.535C79.8505 46.521 80.0073 45.3545 80.0073 44.0362V19.6199H86.7282ZM127.374 44.7207C126.747 47.0026 125.829 49.0311 124.619 50.8058C123.409 52.5805 121.998 54.0765 120.385 55.2935C118.772 56.5105 117.024 57.4232 115.142 58.0317C113.261 58.6911 111.356 59.0205 109.43 59.0205C106.876 59.0205 104.68 58.5134 102.843 57.4993C101.051 56.4344 99.5723 55.0905 98.4074 53.468C97.2871 51.8454 96.4583 50.0199 95.9207 47.9914C95.383 45.9125 95.1141 43.8332 95.1141 41.7543C95.1141 38.0019 95.8981 34.7565 97.4665 32.0182C99.0795 29.2799 101.32 27.2515 104.187 25.9332C102.037 24.4119 100.491 22.6625 99.5499 20.6848C98.609 18.7072 98.1385 16.6282 98.1385 14.4476C98.1385 12.7743 98.4074 11.1009 98.9451 9.42747C99.4827 7.75409 100.312 6.25808 101.432 4.93977C102.552 3.62145 103.919 2.55657 105.532 1.74512C107.189 0.883182 109.138 0.452057 111.379 0.452057C112.589 0.452057 113.798 0.604179 115.008 0.908431C116.262 1.21268 117.383 1.74512 118.368 2.50575C119.354 3.21557 120.138 4.20437 120.721 5.4722C121.348 6.68921 121.662 8.23572 121.662 10.112C121.662 12.0389 121.326 13.5601 120.654 14.6758C119.982 15.7915 119.085 16.3492 117.965 16.3492C116.755 16.3492 115.568 15.6647 114.403 14.2955C115.03 13.9913 115.635 13.3828 116.218 12.47C116.845 11.5064 117.159 10.2894 117.159 8.81898C117.159 7.85541 117.002 7.04429 116.688 6.38497C116.375 5.67516 115.949 5.09189 115.411 4.63551C114.918 4.17913 114.358 3.84964 113.731 3.6467C113.104 3.44376 112.454 3.34244 111.782 3.34244C110.572 3.34244 109.497 3.64669 108.556 4.25519C107.615 4.8637 106.831 5.67514 106.204 6.68921C105.576 7.65278 105.083 8.76817 104.725 10.036C104.411 11.253 104.255 12.4952 104.255 13.7631C104.255 14.3208 104.299 15.183 104.389 16.3492C104.523 17.4649 104.837 18.6564 105.33 19.9242C105.868 21.1412 106.629 22.333 107.615 23.4991C108.645 24.6148 110.035 25.4007 111.782 25.8571C108.825 26.6177 106.54 28.3419 104.927 31.0294C103.358 33.6663 102.574 36.8102 102.574 40.4612C102.574 44.1122 103.425 47.1295 105.128 49.5127C106.876 51.8454 109.542 53.0116 113.126 53.0116C114.739 53.0116 116.218 52.7834 117.562 52.327C118.951 51.8198 120.161 51.1608 121.191 50.3494C122.267 49.4874 123.185 48.5239 123.947 47.459C124.708 46.3433 125.291 45.1771 125.694 43.9601L127.374 44.7207ZM147.152 32.0182C147.152 34.9086 146.928 37.9003 146.48 40.9936C146.076 44.0362 145.382 46.8252 144.396 49.3606C143.411 51.8959 142.134 54.0004 140.565 55.6738C138.997 57.2964 137.048 58.1078 134.718 58.1078C133.553 58.1078 132.411 57.8796 131.29 57.4232C130.215 56.9669 129.229 56.3075 128.333 55.4456C127.482 54.5837 126.787 53.4932 126.25 52.1749C125.757 50.8566 125.51 49.3606 125.51 47.6872V19.6199H132.231V45.4813C132.231 46.3433 132.276 47.18 132.366 47.9914C132.456 48.8029 132.635 49.5379 132.903 50.1973C133.217 50.8058 133.62 51.313 134.113 51.7185C134.651 52.1241 135.323 52.327 136.129 52.327C137.519 52.327 138.683 51.7693 139.624 50.6536C140.565 49.4874 141.327 47.9914 141.909 46.1659C142.537 44.3404 142.985 42.312 143.254 40.0809C143.522 37.799 143.657 35.5424 143.657 33.3113C143.657 31.8913 143.612 30.4969 143.522 29.1278C143.433 27.7078 143.276 26.4403 143.052 25.3246C142.828 25.5781 142.537 25.7558 142.178 25.8571C141.82 25.9079 141.529 25.9332 141.305 25.9332C140.229 25.9332 139.423 25.502 138.885 24.6401C138.347 23.7782 138.078 22.8654 138.078 21.9018C138.078 20.8878 138.37 20.0002 138.952 19.2396C139.535 18.4282 140.386 18.0226 141.506 18.0226C142.268 18.0226 142.985 18.276 143.657 18.7832C144.374 19.2904 144.979 20.1015 145.471 21.2172C146.009 22.2821 146.412 23.7021 146.681 25.4768C146.995 27.2515 147.152 29.432 147.152 32.0182ZM173.391 29.1278C173.391 32.6775 172.092 35.644 169.493 38.0272C166.939 40.4104 163.377 41.8811 158.807 42.4388C158.986 44.4673 159.3 46.1151 159.748 47.3829C160.241 48.6507 160.823 49.6648 161.495 50.4254C162.167 51.1353 162.929 51.6425 163.78 51.9467C164.676 52.2001 165.595 52.327 166.536 52.327C168.687 52.327 170.703 51.6933 172.585 50.4254C174.467 49.1576 175.99 47.0279 177.155 44.0362H179.306C178.723 45.9125 177.917 47.7124 176.886 49.4366C175.855 51.11 174.646 52.606 173.257 53.9244C171.868 55.1922 170.367 56.2062 168.754 56.9669C167.141 57.7275 165.483 58.1078 163.78 58.1078C162.212 58.1078 160.689 57.8036 159.21 57.1951C157.776 56.5865 156.499 55.5977 155.379 54.2286C154.259 52.8086 153.34 50.9831 152.624 48.7521C151.952 46.521 151.616 43.7827 151.616 40.5373C151.616 38.4075 151.817 36.1003 152.22 33.6155C152.668 31.1307 153.385 28.8236 154.371 26.6938C155.402 24.564 156.723 22.7893 158.336 21.3694C159.994 19.9494 162.033 19.2396 164.452 19.2396C165.572 19.2396 166.648 19.3917 167.679 19.696C168.754 19.9494 169.717 20.4566 170.568 21.2172C171.42 21.9271 172.092 22.9159 172.585 24.1837C173.122 25.4515 173.391 27.0993 173.391 29.1278ZM158.74 39.4724C161.921 38.9147 164.43 37.6469 166.267 35.6692C168.149 33.6916 169.09 31.2576 169.09 28.3672C169.09 26.4403 168.798 25.0712 168.216 24.2598C167.634 23.3978 166.805 22.9667 165.729 22.9667C164.564 22.9667 163.534 23.4739 162.638 24.4879C161.786 25.502 161.069 26.8207 160.487 28.4432C159.905 30.0153 159.456 31.79 159.143 33.7677C158.874 35.6945 158.74 37.596 158.74 39.4724ZM183.82 19.6199V25.4007C184.492 24.0316 185.164 22.9414 185.836 22.13C186.553 21.2681 187.27 20.634 187.987 20.2284C188.704 19.8229 189.376 19.5691 190.003 19.4678C190.675 19.3157 191.302 19.2396 191.885 19.2396C193.901 19.2396 195.514 19.6707 196.724 20.5327C197.978 21.3946 198.919 22.5103 199.546 23.8795C200.174 25.1978 200.577 26.6685 200.756 28.2911C200.98 29.8632 201.092 31.3844 201.092 32.8549C201.092 33.7676 201.07 34.7817 201.025 35.8974C200.98 36.9623 200.936 38.078 200.891 39.2442C200.846 40.3599 200.801 41.5008 200.756 42.667C200.711 43.7827 200.689 44.822 200.689 45.7856C200.689 46.1912 200.711 46.7744 200.756 47.535C200.801 48.2449 200.913 48.955 201.092 49.6648C201.272 50.3746 201.563 51.0087 201.966 51.5664C202.369 52.0736 202.952 52.327 203.713 52.327C204.744 52.327 205.663 51.6677 206.469 50.3494C207.32 49.0311 208.015 46.9266 208.553 44.0362H211.039C210.546 47.2308 209.919 49.7661 209.157 51.6425C208.396 53.468 207.589 54.8623 206.738 55.8259C205.886 56.7895 205.035 57.398 204.184 57.6514C203.332 57.9557 202.549 58.1078 201.832 58.1078C200.398 58.1078 199.188 57.8036 198.202 57.1951C197.216 56.5357 196.41 55.6738 195.783 54.6089C195.156 53.544 194.685 52.3018 194.371 50.8818C194.103 49.4619 193.968 47.9914 193.968 46.4702C193.968 46.0138 193.968 45.1771 193.968 43.9601C194.013 42.6923 194.035 41.3487 194.035 39.9287C194.08 38.5088 194.103 37.1652 194.103 35.8974C194.147 34.6296 194.17 33.7424 194.17 33.2352C194.17 31.6126 194.058 30.2687 193.834 29.2039C193.61 28.139 193.296 27.3023 192.893 26.6938C192.49 26.0853 192.019 25.6542 191.481 25.4007C190.989 25.1473 190.451 25.0204 189.868 25.0204C188.479 25.0204 187.27 25.6541 186.239 26.922C185.253 28.1898 184.447 30.3196 183.82 33.3113V57.6514H177.099V19.6199H183.82ZM215.26 8.05835V19.6199H220.435V22.2821H215.26V45.4813C215.26 46.0898 215.282 46.7997 215.327 47.6111C215.372 48.3717 215.484 49.1071 215.663 49.8169C215.887 50.5267 216.201 51.1353 216.604 51.6425C217.052 52.0988 217.657 52.327 218.419 52.327C219.628 52.327 220.771 51.6424 221.846 50.2733C222.966 48.9042 223.84 46.8252 224.467 44.0362H226.954C226.192 47.2308 225.364 49.7661 224.467 51.6425C223.616 53.468 222.72 54.8623 221.779 55.8259C220.838 56.7895 219.897 57.398 218.956 57.6514C218.06 57.9557 217.231 58.1078 216.469 58.1078C214.856 58.1078 213.535 57.7783 212.504 57.119C211.474 56.4092 210.667 55.5217 210.085 54.4568C209.502 53.3919 209.099 52.2257 208.875 50.9579C208.651 49.6396 208.539 48.3465 208.539 47.0787V22.2821H206.254V19.6199H208.539V9.12324L215.26 8.05835ZM237.73 17.262C238.805 22.13 239.701 26.1105 240.418 29.2039C241.135 32.2464 241.695 34.8325 242.098 36.9623C242.546 39.0412 242.86 40.8923 243.039 42.5149C243.218 44.1375 243.308 45.9377 243.308 47.9154C243.308 49.7917 242.95 51.389 242.233 52.7073C241.516 53.9752 240.62 55.0145 239.544 55.8259C238.469 56.6374 237.326 57.2203 236.117 57.5754C234.907 57.9304 233.831 58.1078 232.89 58.1078C230.919 58.1078 229.284 57.7527 227.984 57.0429C226.73 56.3331 225.722 55.4456 224.96 54.3807C224.198 53.265 223.661 52.048 223.347 50.7297C223.033 49.3606 222.876 48.0675 222.876 46.8505C222.876 45.5322 223.101 44.3912 223.548 43.4276C224.041 42.4136 224.624 41.7034 225.296 41.2979C226.461 37.4947 227.604 33.7424 228.724 30.0405C229.844 26.2882 230.583 22.5356 230.941 18.7832L237.73 17.262ZM236.184 47.0787C236.184 45.5066 236.094 44.1122 235.915 42.8952C235.78 41.6782 235.557 40.3343 235.243 38.8639C234.929 37.3934 234.526 35.6184 234.033 33.5395C233.585 31.4097 233.047 28.6967 232.42 25.4007C232.151 28.2403 231.591 30.9533 230.74 33.5395C229.933 36.1256 229.194 38.7878 228.522 41.5261C228.925 41.8303 229.261 42.2615 229.53 42.8192C229.844 43.3263 230 44.0109 230 44.8728C230 45.8364 229.777 46.5715 229.328 47.0787C228.881 47.5859 228.387 47.8393 227.85 47.8393C227.133 47.8393 226.528 47.4842 226.035 46.7744C226.394 48.5491 227.021 49.9438 227.917 50.9579C228.813 51.9215 230 52.4031 231.479 52.4031C232.913 52.4031 234.056 51.9975 234.907 51.1861C235.758 50.3241 236.184 48.955 236.184 47.0787Z" fill="black"/>
</svg>
