<svg width="168" height="40" viewBox="0 0 168 40" fill="none" xmlns="http://www.w3.org/2000/svg">
<path d="M22.3667 30.2338C21.9319 31.7922 21.295 33.1776 20.4562 34.3896C19.6175 35.6017 18.6389 36.6234 17.5206 37.4546C16.4023 38.2857 15.1907 38.9091 13.886 39.3247C12.5813 39.775 11.261 40 9.92523 40C8.15453 40 6.63235 39.6536 5.35869 38.9611C4.11609 38.2338 3.09095 37.3159 2.28327 36.2078C1.50664 35.0996 0.931946 33.8529 0.559168 32.4675C0.186389 31.0477 0 29.6276 0 28.2078C0 25.6451 0.543642 23.4286 1.63091 21.5584C2.74924 19.6883 4.30248 18.303 6.29064 17.4026C4.79952 16.3636 3.72779 15.1688 3.07542 13.8182C2.42306 12.4675 2.09688 11.0477 2.09688 9.55844C2.09688 8.41558 2.28327 7.27272 2.65605 6.12986C3.02883 4.987 3.60352 3.96529 4.38015 3.06493C5.15678 2.16457 6.10425 1.4373 7.22258 0.883113C8.37199 0.294442 9.72331 0 11.2766 0C12.1153 0 12.9541 0.103894 13.7928 0.311686C14.6626 0.519478 15.4392 0.883114 16.1227 1.40259C16.8061 1.88737 17.3497 2.56269 17.7536 3.42856C18.1884 4.25973 18.4059 5.31594 18.4059 6.5974C18.4059 7.91334 18.173 8.95231 17.707 9.71429C17.241 10.4763 16.6197 10.8571 15.8431 10.8571C15.0043 10.8571 14.1811 10.3896 13.3734 9.45455C13.8083 9.24676 14.2277 8.83117 14.6316 8.20779C15.0665 7.54971 15.2839 6.71854 15.2839 5.71429C15.2839 5.0562 15.1752 4.50224 14.9577 4.05195C14.7403 3.56717 14.4452 3.16882 14.0724 2.85713C13.7307 2.54545 13.3424 2.32042 12.9075 2.18182C12.4726 2.04322 12.0221 1.97402 11.5561 1.97402C10.7174 1.97402 9.97183 2.18181 9.31946 2.59739C8.6671 3.01298 8.12346 3.56716 7.68856 4.25973C7.25366 4.91781 6.91193 5.67958 6.66342 6.54545C6.44596 7.37662 6.33724 8.22503 6.33724 9.0909C6.33724 9.47178 6.36831 10.0607 6.43043 10.8571C6.52362 11.6191 6.74109 12.4328 7.08279 13.2987C7.45557 14.1299 7.98367 14.9438 8.6671 15.7403C9.38159 16.5022 10.3446 17.039 11.5561 17.3507C9.50585 17.8701 7.92154 19.0477 6.80321 20.8831C5.71594 22.6841 5.1723 24.8312 5.1723 27.3247C5.1723 29.8182 5.76254 31.8789 6.943 33.5065C8.15453 35.0996 10.0029 35.8961 12.4881 35.8961C13.6064 35.8961 14.6316 35.7403 15.5635 35.4286C16.5265 35.0822 17.3653 34.6321 18.0798 34.0779C18.8253 33.4893 19.4622 32.8312 19.9903 32.1039C20.5183 31.3419 20.9222 30.5455 21.2018 29.7143L22.3667 30.2338ZM38.2687 2.7013V30.7532C38.2687 31.0996 38.2844 31.5325 38.3153 32.052C38.3464 32.5714 38.4242 33.0909 38.5483 33.6104C38.7037 34.0952 38.9211 34.5282 39.2006 34.9091C39.4802 35.2555 39.8687 35.4286 40.3656 35.4286C41.8878 35.4286 43.0061 33.5412 43.7206 29.7662H45.4447C45.103 31.9481 44.6682 33.6796 44.14 34.961C43.6119 36.2078 43.0527 37.1601 42.4625 37.8182C41.8724 38.4763 41.2666 38.8919 40.6452 39.0649C40.0239 39.2727 39.4648 39.3766 38.9677 39.3766C38.2532 39.3766 37.632 39.238 37.1038 38.9611C36.6069 38.6841 36.1718 38.3204 35.799 37.8701C35.4574 37.4199 35.1778 36.9004 34.9603 36.3117C34.743 35.723 34.572 35.0996 34.4477 34.4416C33.9817 35.7922 33.2207 36.9523 32.1644 37.9221C31.1393 38.8919 29.8812 39.3766 28.3901 39.3766C27.4581 39.3766 26.5107 39.1688 25.5476 38.7533C24.6157 38.3377 23.7615 37.6623 22.9848 36.7273C22.2392 35.7575 21.618 34.5282 21.1209 33.039C20.6549 31.5152 20.4219 29.6623 20.4219 27.4805C20.4219 25.8874 20.5774 24.225 20.8879 22.4935C21.2297 20.762 21.7578 19.1861 22.4722 17.7662C23.1868 16.3464 24.1031 15.1688 25.2214 14.2338C26.3398 13.2987 27.6911 12.8312 29.2754 12.8312C29.6482 12.8312 30.0366 12.8831 30.4403 12.987C30.8754 13.0562 31.2791 13.1948 31.6519 13.4026C32.0558 13.6104 32.4286 13.9048 32.7702 14.2857C33.1121 14.6321 33.3916 15.0649 33.609 15.5844V3.42856L38.2687 2.7013ZM29.555 35.4286C30.021 35.4286 30.4869 35.29 30.9529 35.013C31.45 34.7013 31.8849 34.303 32.2576 33.8182C32.6615 33.2987 32.9877 32.6926 33.2362 32C33.4848 31.3074 33.609 30.5627 33.609 29.7662V17.9221C33.3916 17.3679 33.0498 16.8659 32.5838 16.4156C32.149 15.9308 31.5743 15.6883 30.8597 15.6883C29.8657 15.6883 29.0115 16.0692 28.2969 16.8312C27.5824 17.5584 27.0078 18.4935 26.5728 19.6364C26.1379 20.7445 25.8117 21.974 25.5942 23.3247C25.4078 24.6406 25.3146 25.9048 25.3146 27.1169C25.3146 30.0952 25.672 32.225 26.3864 33.5065C27.1319 34.788 28.1882 35.4286 29.555 35.4286ZM59.4403 13.0909V30.7532C59.4403 31.1688 59.4558 31.6536 59.4869 32.2078C59.5181 32.7273 59.5956 33.2295 59.7199 33.7143C59.8752 34.1991 60.0927 34.6147 60.3723 34.961C60.683 35.2727 61.1178 35.4286 61.677 35.4286C61.9255 35.4286 62.1896 35.3939 62.4692 35.3247C62.7799 35.2555 63.0283 35.1861 63.2147 35.1169C63.2459 35.29 63.2613 35.4458 63.2613 35.5844C63.2924 35.723 63.3079 35.8789 63.3079 36.052C63.3079 37.0909 62.9506 37.9048 62.2362 38.4935C61.5217 39.0822 60.7139 39.3766 59.8131 39.3766C58.85 39.3766 57.9804 39.013 57.2037 38.2857C56.427 37.5237 55.8989 36.2597 55.6194 34.4935C55.0291 36.1906 54.2526 37.4373 53.2895 38.2338C52.3264 38.9958 51.3169 39.3766 50.2607 39.3766C49.3598 39.3766 48.5054 39.238 47.6978 38.9611C46.8902 38.6841 46.1912 38.2338 45.6009 37.6104C45.0106 36.9523 44.5447 36.1211 44.203 35.1169C43.8614 34.0779 43.6904 32.8139 43.6904 31.3247V13.0909H48.3502V30.7532C48.3502 32.4503 48.6143 33.6623 49.1423 34.3896C49.6704 35.0822 50.3384 35.4286 51.146 35.4286C51.5809 35.4286 52.0159 35.3074 52.4507 35.0649C52.8856 34.788 53.274 34.4069 53.6157 33.9221C53.9573 33.4373 54.2369 32.8484 54.4544 32.1558C54.6719 31.4633 54.7806 30.6666 54.7806 29.7662V13.0909H59.4403ZM87.6212 30.2338C87.1862 31.7922 86.5495 33.1776 85.7107 34.3896C84.872 35.6017 83.8934 36.6234 82.7751 37.4546C81.6567 38.2857 80.4452 38.9091 79.1405 39.3247C77.8358 39.775 76.5154 40 75.1797 40C73.409 40 71.8868 39.6536 70.6132 38.9611C69.3705 38.2338 68.3454 37.3159 67.5378 36.2078C66.7611 35.0996 66.1864 33.8529 65.8137 32.4675C65.4409 31.0477 65.2545 29.6276 65.2545 28.2078C65.2545 25.6451 65.798 23.4286 66.8854 21.5584C68.0037 19.6883 69.5569 18.303 71.5451 17.4026C70.054 16.3636 68.9823 15.1688 68.3299 13.8182C67.6776 12.4675 67.3514 11.0477 67.3514 9.55844C67.3514 8.41558 67.5378 7.27272 67.9105 6.12986C68.2833 4.987 68.8579 3.96529 69.6346 3.06493C70.4111 2.16457 71.3587 1.4373 72.4771 0.883113C73.6264 0.294442 74.9777 0 76.531 0C77.3698 0 78.2085 0.103894 79.0473 0.311686C79.917 0.519478 80.6937 0.883114 81.3772 1.40259C82.0605 1.88737 82.6042 2.56269 83.0081 3.42856C83.4429 4.25973 83.6604 5.31594 83.6604 6.5974C83.6604 7.91334 83.4274 8.95231 82.9615 9.71429C82.4955 10.4763 81.8741 10.8571 81.0976 10.8571C80.2588 10.8571 79.4355 10.3896 78.6279 9.45455C79.0628 9.24676 79.4821 8.83117 79.8861 8.20779C80.3209 7.54971 80.5384 6.71854 80.5384 5.71429C80.5384 5.0562 80.4296 4.50224 80.2122 4.05195C79.9947 3.56717 79.6997 3.16882 79.3269 2.85713C78.985 2.54545 78.5968 2.32042 78.1619 2.18182C77.7269 2.04322 77.2766 1.97402 76.8106 1.97402C75.9719 1.97402 75.2263 2.18181 74.574 2.59739C73.9216 3.01298 73.3779 3.56716 72.943 4.25973C72.508 4.91781 72.1664 5.67958 71.9179 6.54545C71.7004 7.37662 71.5917 8.22503 71.5917 9.0909C71.5917 9.47178 71.6227 10.0607 71.6849 10.8571C71.7781 11.6191 71.9954 12.4328 72.3373 13.2987C72.7101 14.1299 73.2381 14.9438 73.9216 15.7403C74.636 16.5022 75.5991 17.039 76.8106 17.3507C74.7603 17.8701 73.176 19.0477 72.0577 20.8831C70.9703 22.6841 70.4268 24.8312 70.4268 27.3247C70.4268 29.8182 71.0169 31.8789 72.1975 33.5065C73.409 35.0996 75.2573 35.8961 77.7426 35.8961C78.8609 35.8961 79.886 35.7403 80.818 35.4286C81.7809 35.0822 82.6196 34.6321 83.3343 34.0779C84.0798 33.4893 84.7165 32.8312 85.2447 32.1039C85.7728 31.3419 86.1767 30.5455 86.4563 29.7143L87.6212 30.2338ZM101.333 21.5584C101.333 23.5325 101.178 25.5757 100.867 27.6883C100.588 29.7662 100.106 31.6711 99.4226 33.4026C98.7393 35.1341 97.854 36.5714 96.7666 37.7143C95.6794 38.8224 94.3281 39.3766 92.7126 39.3766C91.905 39.3766 91.1128 39.2208 90.3361 38.9091C89.5906 38.5974 88.9073 38.1471 88.2859 37.5584C87.6958 36.9698 87.2141 36.225 86.8413 35.3247C86.4997 34.4243 86.3288 33.4026 86.3288 32.2597V13.0909H90.9885V30.7532C90.9885 31.3419 91.0196 31.9134 91.0817 32.4675C91.144 33.0217 91.2681 33.5237 91.4545 33.974C91.672 34.3896 91.9516 34.736 92.2932 35.013C92.666 35.29 93.132 35.4286 93.6912 35.4286C94.6542 35.4286 95.4619 35.0477 96.1142 34.2857C96.7666 33.4893 97.2948 32.4675 97.6985 31.2208C98.1336 29.974 98.4441 28.5887 98.6305 27.0649C98.8168 25.5065 98.9101 23.9653 98.9101 22.4416C98.9101 21.4718 98.8791 20.5195 98.8169 19.5844C98.7548 18.6146 98.6461 17.749 98.4907 16.987C98.3354 17.1601 98.1336 17.2815 97.8849 17.3507C97.6365 17.3854 97.4346 17.4026 97.2791 17.4026C96.5336 17.4026 95.9744 17.1082 95.6016 16.5195C95.2289 15.9308 95.0425 15.3074 95.0425 14.6494C95.0425 13.9568 95.2445 13.3506 95.6482 12.8312C96.0522 12.277 96.6424 12 97.4189 12C97.9472 12 98.4441 12.1731 98.9101 12.5195C99.4072 12.8659 99.8265 13.4198 100.168 14.1818C100.541 14.9091 100.821 15.8789 101.007 17.0909C101.224 18.303 101.333 19.7922 101.333 21.5584ZM119.525 19.5844C119.525 22.0087 118.624 24.0347 116.823 25.6623C115.052 27.29 112.582 28.2945 109.414 28.6753C109.538 30.0607 109.756 31.1861 110.066 32.052C110.408 32.9178 110.812 33.6104 111.278 34.1299C111.744 34.6147 112.272 34.9611 112.862 35.1688C113.483 35.3419 114.12 35.4286 114.773 35.4286C116.264 35.4286 117.662 34.9958 118.966 34.1299C120.271 33.264 121.327 31.8095 122.135 29.7662H123.626C123.222 31.0477 122.663 32.277 121.949 33.4545C121.234 34.5974 120.395 35.6191 119.432 36.5195C118.469 37.3854 117.429 38.0779 116.31 38.5974C115.192 39.1169 114.042 39.3766 112.862 39.3766C111.775 39.3766 110.719 39.1688 109.693 38.7533C108.699 38.3377 107.814 37.6623 107.037 36.7273C106.261 35.7575 105.624 34.5108 105.127 32.987C104.661 31.4633 104.428 29.5932 104.428 27.3766C104.428 25.9221 104.568 24.3464 104.847 22.6493C105.158 20.9523 105.655 19.3766 106.338 17.9221C107.053 16.4675 107.969 15.2555 109.088 14.2857C110.237 13.3159 111.651 12.8312 113.328 12.8312C114.105 12.8312 114.85 12.9351 115.565 13.1429C116.31 13.3159 116.978 13.6623 117.568 14.1818C118.159 14.6666 118.624 15.3419 118.966 16.2078C119.339 17.0737 119.525 18.1991 119.525 19.5844ZM109.367 26.6494C111.573 26.2685 113.312 25.4026 114.586 24.052C115.891 22.7013 116.543 21.039 116.543 19.0649C116.543 17.749 116.341 16.8139 115.938 16.2597C115.534 15.6711 114.959 15.3766 114.213 15.3766C113.406 15.3766 112.691 15.723 112.07 16.4156C111.48 17.1081 110.983 18.0087 110.579 19.1169C110.175 20.1905 109.864 21.4026 109.647 22.7533C109.46 24.0692 109.367 25.3679 109.367 26.6494ZM126.756 13.0909V17.039C127.222 16.1039 127.688 15.3594 128.154 14.8052C128.651 14.2165 129.148 13.7835 129.645 13.5065C130.142 13.2295 130.608 13.0562 131.043 12.987C131.509 12.8831 131.943 12.8312 132.347 12.8312C133.745 12.8312 134.864 13.1256 135.702 13.7143C136.572 14.3029 137.225 15.0649 137.659 16C138.094 16.9004 138.374 17.9048 138.498 19.013C138.653 20.0867 138.731 21.1256 138.731 22.1299C138.731 22.7532 138.716 23.4458 138.685 24.2078C138.653 24.9351 138.622 25.6971 138.591 26.4935C138.56 27.2555 138.529 28.0347 138.498 28.8312C138.467 29.5931 138.452 30.303 138.452 30.961C138.452 31.238 138.467 31.6364 138.498 32.1558C138.529 32.6406 138.607 33.1256 138.731 33.6104C138.855 34.0952 139.057 34.5282 139.337 34.9091C139.616 35.2555 140.02 35.4286 140.548 35.4286C141.263 35.4286 141.9 34.9783 142.459 34.0779C143.049 33.1776 143.531 31.7403 143.903 29.7662H145.628C145.286 31.9481 144.851 33.6796 144.323 34.961C143.795 36.2078 143.236 37.1601 142.645 37.8182C142.055 38.4763 141.465 38.8919 140.875 39.0649C140.284 39.2727 139.741 39.3766 139.244 39.3766C138.25 39.3766 137.411 39.1688 136.727 38.7533C136.044 38.303 135.485 37.7143 135.05 36.987C134.615 36.2597 134.289 35.4113 134.071 34.4416C133.885 33.4718 133.792 32.4675 133.792 31.4286C133.792 31.1169 133.792 30.5455 133.792 29.7143C133.823 28.8484 133.838 27.9308 133.838 26.961C133.87 25.9913 133.885 25.0737 133.885 24.2078C133.916 23.3419 133.932 22.736 133.932 22.3896C133.932 21.2815 133.854 20.3636 133.699 19.6364C133.543 18.9091 133.326 18.3377 133.046 17.9221C132.767 17.5065 132.44 17.2121 132.068 17.039C131.726 16.8659 131.353 16.7792 130.949 16.7792C129.986 16.7792 129.148 17.212 128.433 18.0779C127.75 18.9438 127.19 20.3983 126.756 22.4416V39.0649H122.096V13.0909H126.756ZM148.554 5.1948V13.0909H152.142V14.9091H148.554V30.7532C148.554 31.1688 148.569 31.6536 148.6 32.2078C148.631 32.7273 148.709 33.2295 148.833 33.7143C148.989 34.1991 149.206 34.6147 149.486 34.961C149.796 35.2727 150.216 35.4286 150.744 35.4286C151.582 35.4286 152.375 34.961 153.12 34.026C153.897 33.0909 154.503 31.6711 154.937 29.7662H156.662C156.134 31.9481 155.559 33.6796 154.937 34.961C154.347 36.2078 153.726 37.1601 153.074 37.8182C152.421 38.4763 151.769 38.8919 151.116 39.0649C150.495 39.2727 149.921 39.3766 149.392 39.3766C148.274 39.3766 147.358 39.1516 146.643 38.7013C145.929 38.2165 145.37 37.6104 144.966 36.8831C144.562 36.1559 144.282 35.3594 144.127 34.4935C143.972 33.5932 143.894 32.71 143.894 31.8442V14.9091H142.31V13.0909H143.894V5.92208L148.554 5.1948ZM164.132 11.4805C164.878 14.8052 165.499 17.5237 165.996 19.6364C166.493 21.7143 166.882 23.4805 167.161 24.9351C167.472 26.3549 167.689 27.6191 167.814 28.7273C167.938 29.8354 168 31.0649 168 32.4156C168 33.697 167.752 34.788 167.254 35.6883C166.758 36.5542 166.136 37.264 165.391 37.8182C164.645 38.3724 163.853 38.7705 163.014 39.013C162.175 39.2555 161.43 39.3766 160.777 39.3766C159.411 39.3766 158.277 39.1341 157.376 38.6493C156.506 38.1646 155.807 37.5585 155.279 36.8312C154.751 36.0692 154.378 35.238 154.161 34.3377C153.943 33.4026 153.834 32.5195 153.834 31.6883C153.834 30.788 153.99 30.0087 154.3 29.3507C154.642 28.6581 155.046 28.1731 155.512 27.8961C156.32 25.2987 157.112 22.736 157.888 20.2078C158.665 17.6451 159.178 15.0822 159.426 12.5195L164.132 11.4805ZM163.061 31.8442C163.061 30.7705 162.999 29.8182 162.874 28.987C162.781 28.1559 162.626 27.238 162.408 26.2338C162.191 25.2295 161.911 24.0172 161.57 22.5974C161.259 21.1429 160.886 19.29 160.451 17.039C160.265 18.9783 159.877 20.8312 159.286 22.5974C158.727 24.3636 158.215 26.1818 157.749 28.0519C158.028 28.2597 158.261 28.5542 158.448 28.9351C158.665 29.2815 158.774 29.749 158.774 30.3377C158.774 30.9958 158.618 31.4978 158.308 31.8442C157.997 32.1905 157.655 32.3636 157.283 32.3636C156.786 32.3636 156.366 32.1212 156.024 31.6364C156.273 32.8484 156.708 33.8009 157.329 34.4935C157.951 35.1516 158.774 35.4805 159.799 35.4805C160.793 35.4805 161.585 35.2035 162.175 34.6494C162.766 34.0607 163.061 33.1256 163.061 31.8442Z" fill="white"/>
</svg>
