<svg width="414" height="393" viewBox="0 0 414 393" fill="none" xmlns="http://www.w3.org/2000/svg">
<path d="M159.846 357.95L149.065 367.635L157.633 353.606C150.883 341.662 139.842 331.339 139.842 331.339C139.842 331.339 116.938 352.751 116.938 369.583C116.938 386.414 127.193 392.291 139.842 392.291C152.492 392.291 162.747 386.414 162.747 369.583C162.747 365.836 161.61 361.863 159.846 357.95Z" fill="#F2F2F2"/>
<path d="M146.292 368.159V368.989C146.242 378.632 144.575 386.157 141.304 391.455C141.258 391.533 141.207 391.607 141.161 391.685L140.795 391.467L140.446 391.254C144.074 385.532 145.358 377.445 145.404 369.034C145.408 368.763 145.412 368.487 145.408 368.212C145.396 364.651 145.172 361.049 144.815 357.55C144.789 357.279 144.76 357.004 144.731 356.729C144.234 352.112 143.518 347.701 142.786 343.869C142.735 343.598 142.681 343.327 142.626 343.06C141.359 336.579 140.067 331.884 139.772 330.845C139.738 330.718 139.717 330.648 139.713 330.631L140.113 330.52L140.117 330.516L140.521 330.405C140.526 330.422 140.597 330.656 140.715 331.091C141.165 332.718 142.335 337.133 143.485 342.957C143.535 343.22 143.59 343.491 143.64 343.762C144.238 346.871 144.823 350.346 145.286 353.993C145.404 354.909 145.509 355.813 145.602 356.704C145.636 356.979 145.665 357.254 145.69 357.525C146.078 361.308 146.278 364.853 146.292 368.159Z" fill="white"/>
<path d="M143.485 342.957C143.203 342.994 142.917 343.031 142.626 343.06C141.837 343.139 141.045 343.179 140.252 343.179C136.873 343.183 133.536 342.448 130.487 341.027C130.31 341.244 130.133 341.462 129.952 341.684C133.16 343.212 136.683 344.004 140.252 344C141.098 344 141.944 343.956 142.786 343.869C143.072 343.84 143.358 343.803 143.64 343.762C145.968 343.436 148.232 342.767 150.354 341.778C150.173 341.552 149.996 341.331 149.824 341.113C147.815 342.029 145.679 342.65 143.485 342.957Z" fill="white"/>
<path d="M145.602 356.704C145.311 356.72 145.021 356.728 144.73 356.728C144.642 356.733 144.549 356.733 144.461 356.733C140.8 356.733 137.192 355.869 133.947 354.215C130.702 352.56 127.914 350.165 125.823 347.233C125.654 347.475 125.486 347.717 125.322 347.964C127.502 350.931 130.375 353.348 133.703 355.016C137.032 356.684 140.72 357.554 144.461 357.554C144.579 357.554 144.697 357.554 144.815 357.55C145.109 357.546 145.4 357.538 145.69 357.525C150.184 357.301 154.517 355.818 158.17 353.254C158.036 353.011 157.901 352.769 157.762 352.527C154.212 355.044 149.985 356.496 145.602 356.704Z" fill="white"/>
<path d="M146.292 368.159C145.998 368.183 145.703 368.2 145.408 368.212C145.093 368.225 144.777 368.233 144.461 368.233C139.541 368.227 134.755 366.667 130.82 363.785C126.885 360.903 124.012 356.856 122.632 352.247C122.443 352.58 122.254 352.909 122.073 353.241C123.628 357.839 126.628 361.841 130.647 364.68C134.666 367.518 139.5 369.049 144.461 369.054C144.777 369.054 145.093 369.05 145.404 369.034C145.703 369.025 145.998 369.009 146.292 368.988C152.244 368.534 157.796 365.89 161.824 361.591C161.736 361.287 161.635 360.988 161.534 360.684C157.643 365.015 152.176 367.696 146.292 368.159Z" fill="white"/>
<path d="M413.401 21.0461H0.599016C0.440474 21.0456 0.288624 20.9837 0.176712 20.8742C0.064799 20.7646 0.00195312 20.6162 0.00195312 20.4615C0.00195312 20.3068 0.064799 20.1584 0.176712 20.0488C0.288624 19.9392 0.440474 19.8774 0.599016 19.8769H413.401C413.559 19.8774 413.711 19.9392 413.823 20.0488C413.935 20.1584 413.998 20.3068 413.998 20.4615C413.998 20.6162 413.935 20.7646 413.823 20.8742C413.711 20.9837 413.559 21.0456 413.401 21.0461Z" fill="#CACACA"/>
<path d="M14.0843 12.8615C17.7241 12.8615 20.6748 9.98235 20.6748 6.43074C20.6748 2.87914 17.7241 0 14.0843 0C10.4445 0 7.4939 2.87914 7.4939 6.43074C7.4939 9.98235 10.4445 12.8615 14.0843 12.8615Z" fill="#56A33B"/>
<path d="M36.8512 12.8615C40.491 12.8615 43.4416 9.98235 43.4416 6.43074C43.4416 2.87914 40.491 0 36.8512 0C33.2114 0 30.2607 2.87914 30.2607 6.43074C30.2607 9.98235 33.2114 12.8615 36.8512 12.8615Z" fill="#56A33B"/>
<path d="M59.6183 12.8615C63.2581 12.8615 66.2087 9.98235 66.2087 6.43074C66.2087 2.87914 63.2581 0 59.6183 0C55.9785 0 53.0278 2.87914 53.0278 6.43074C53.0278 9.98235 55.9785 12.8615 59.6183 12.8615Z" fill="#56A33B"/>
<path d="M399.76 3.93348H383.584C383.266 3.93242 382.963 3.80876 382.739 3.58961C382.515 3.37045 382.389 3.07366 382.389 2.76426C382.389 2.45486 382.515 2.15807 382.739 1.93892C382.963 1.71976 383.266 1.59611 383.584 1.59504H399.76C399.918 1.59451 400.074 1.62436 400.22 1.68288C400.366 1.7414 400.498 1.82744 400.61 1.93607C400.722 2.04469 400.81 2.17376 400.871 2.31588C400.931 2.458 400.963 2.61038 400.963 2.76426C400.963 2.91815 400.931 3.07052 400.871 3.21264C400.81 3.35476 400.722 3.48383 400.61 3.59246C400.498 3.70108 400.366 3.78713 400.22 3.84565C400.074 3.90417 399.918 3.93402 399.76 3.93348Z" fill="#3F3D56"/>
<path d="M399.76 8.31807H383.584C383.266 8.317 382.963 8.19334 382.739 7.97419C382.515 7.75503 382.389 7.45824 382.389 7.14884C382.389 6.83944 382.515 6.54266 382.739 6.3235C382.963 6.10434 383.266 5.98069 383.584 5.97962H399.76C399.918 5.97909 400.074 6.00894 400.22 6.06746C400.366 6.12598 400.498 6.21202 400.61 6.32065C400.722 6.42927 400.81 6.55834 400.871 6.70046C400.931 6.84258 400.963 6.99496 400.963 7.14884C400.963 7.30273 400.931 7.4551 400.871 7.59722C400.81 7.73935 400.722 7.86841 400.61 7.97704C400.498 8.08567 400.366 8.17171 400.22 8.23023C400.074 8.28875 399.918 8.3186 399.76 8.31807Z" fill="#3F3D56"/>
<path d="M399.76 12.7027H383.584C383.266 12.7016 382.963 12.578 382.739 12.3588C382.515 12.1396 382.389 11.8429 382.389 11.5335C382.389 11.2241 382.515 10.9273 382.739 10.7081C382.963 10.489 383.266 10.3653 383.584 10.3642H399.76C399.918 10.3637 400.074 10.3936 400.22 10.4521C400.366 10.5106 400.498 10.5966 400.61 10.7053C400.722 10.8139 400.81 10.943 400.871 11.0851C400.931 11.2272 400.963 11.3796 400.963 11.5335C400.963 11.6873 400.931 11.8397 400.871 11.9818C400.81 12.124 400.722 12.253 400.61 12.3617C400.498 12.4703 400.366 12.5563 400.22 12.6148C400.074 12.6734 399.918 12.7032 399.76 12.7027Z" fill="#3F3D56"/>
<path d="M390.733 47.4844H12.436V243.055H390.733V47.4844Z" fill="#F0F0F0"/>
<path d="M390.733 84.092V82.1741H317.094V47.4844H315.128V82.1741H241.488V47.4844H239.523V82.1741H165.883V47.4844H163.918V82.1741H90.278V47.4844H88.3125V82.1741H12.436V84.092H88.3125V122.415H12.436V124.333H88.3125V162.656H12.436V164.574H88.3125V202.89H12.436V204.808H88.3125V243.055H90.278V204.808H163.918V243.055H165.883V204.808H239.523V243.055H241.488V204.808H315.128V243.055H317.094V204.808H390.733V202.89H317.094V164.574H390.733V162.656H317.094V124.333H390.733V122.415H317.094V84.092L390.733 84.092ZM163.918 202.89H90.278V164.574H163.918V202.89ZM163.918 162.656H90.278V124.333H163.918V162.656ZM163.918 122.415H90.278V84.092H163.918V122.415ZM239.523 202.89H165.883V164.574H239.523V202.89ZM239.523 162.656H165.883V124.333H239.523V162.656ZM239.523 122.415H165.883V84.092H239.523V122.415ZM315.128 202.891H241.488V164.574H315.128V202.891ZM315.128 162.656H241.488V124.333H315.128V162.656ZM315.128 122.415H241.488V84.0921H315.128V122.415Z" fill="white"/>
<path d="M130.236 93.412H104.927V117.32H130.236V93.412Z" fill="#CACACA"/>
<path d="M363.241 170.826H337.932V194.733H363.241V170.826Z" fill="#CACACA"/>
<path d="M138.098 210.578H112.79V234.486H138.098V210.578Z" fill="#CACACA"/>
<path d="M145.577 88.9764H120.269V112.884H145.577V88.9764Z" fill="#F9CF00"/>
<path d="M264.546 188.356L294.579 162.247L303.439 166.53L267.419 203.395L264.546 188.356Z" fill="#FFB6B6"/>
<path d="M298.532 171.221C302.479 171.221 305.679 168.098 305.679 164.246C305.679 160.395 302.479 157.272 298.532 157.272C294.584 157.272 291.384 160.395 291.384 164.246C291.384 168.098 294.584 171.221 298.532 171.221Z" fill="#FFB6B6"/>
<path d="M236.435 384.875H229.328L225.948 358.129L236.436 358.13L236.435 384.875Z" fill="#FFB6B6"/>
<path d="M238.247 391.597L215.333 391.596V391.313C215.334 389.005 216.273 386.792 217.946 385.16C219.618 383.528 221.887 382.611 224.252 382.611H224.253L238.248 382.611L238.247 391.597Z" fill="#2F2E41"/>
<path d="M210.704 384.875H203.598L200.217 358.129L210.705 358.13L210.704 384.875Z" fill="#FFB6B6"/>
<path d="M212.516 391.597L189.603 391.596V391.313C189.603 389.005 190.543 386.792 192.215 385.16C193.888 383.528 196.156 382.611 198.521 382.611H198.522L212.517 382.611L212.516 391.597Z" fill="#2F2E41"/>
<path d="M242.403 231.989C242.403 231.989 260.272 230.594 254.554 261.281C248.836 291.967 236.992 375.91 236.992 375.91L226.254 377.35L219.91 265.372L215.111 377.35L201.454 375.91L188.083 255.701C188.083 255.701 183.79 246.036 188.081 239.361C192.372 232.686 242.403 231.989 242.403 231.989Z" fill="#2F2E41"/>
<path d="M230.968 155.97L235.929 153.377C235.929 153.377 248.151 152.36 253.139 166.37L266.368 185.866L287.811 167.734L297.102 174.01L270.079 205.481L258.842 206.882L234.541 176.195L230.968 155.97Z" fill="#3F3D56"/>
<path d="M212.966 99.3864C192.583 99.3864 186.878 121.234 186.878 133.56C186.878 145.886 198.558 144.021 212.966 144.021C219.15 144.021 224.828 144.362 229.299 143.779L231.449 138.655L233.18 142.901C236.85 141.585 239.054 138.911 239.054 133.56C239.054 121.234 234.05 99.3864 212.966 99.3864Z" fill="#2F2E41"/>
<path d="M212.878 144.001C222.573 144.001 230.433 136.332 230.433 126.871C230.433 117.411 222.573 109.742 212.878 109.742C203.183 109.742 195.323 117.411 195.323 126.871C195.323 136.332 203.183 144.001 212.878 144.001Z" fill="#FFB6B6"/>
<path d="M192.595 125.191H199.539L202.602 116.822L203.214 125.191H206.533L208.32 120.309L208.677 125.191H233.336C233.336 120.382 231.378 115.77 227.893 112.369C224.408 108.968 219.681 107.058 214.752 107.058H211.179C206.25 107.058 201.523 108.968 198.038 112.369C194.553 115.77 192.595 120.382 192.595 125.191Z" fill="#2F2E41"/>
<path d="M309.967 137.796H284.659V161.703H309.967V137.796Z" fill="#F9CF00"/>
<path d="M247.958 225.678C245.262 225.712 237.144 178.707 237.144 178.707L235.929 153.377L227.058 153.086V152.517C227.058 151.373 226.592 150.277 225.764 149.468C224.935 148.66 223.812 148.206 222.64 148.206H205.745C204.623 148.206 203.543 148.624 202.725 149.374C201.907 150.124 201.412 151.149 201.342 152.242L194.385 152.014L182.337 189.364C182.337 189.364 193.439 224.067 188.081 239.361C188.081 239.361 240.284 243.735 250.278 234.026C250.278 234.026 250.653 225.644 247.958 225.678Z" fill="#3F3D56"/>
<path d="M197.375 156.668L194.385 152.014C194.385 152.014 184.657 149.668 180.652 155.957C176.647 162.247 164.875 196.328 164.875 196.328L177.026 200.512L190.814 181.65L197.375 156.668Z" fill="#3F3D56"/>
<path d="M227.772 181.036H202.464V204.943H227.772V181.036Z" fill="#F9CF00"/>
<path d="M183.047 189.677L174.242 188.768C173.686 189.925 173.407 191.191 173.426 192.469C173.445 193.747 173.762 195.004 174.353 196.145C174.944 197.286 175.793 198.281 176.835 199.054C177.878 199.828 179.088 200.36 180.372 200.61L215.211 207.395L211.577 196.474L183.047 189.677Z" fill="#FFB6B6"/>
<path d="M215.316 207.521C219.263 207.521 222.463 204.398 222.463 200.547C222.463 196.695 219.263 193.572 215.316 193.572C211.369 193.572 208.169 196.695 208.169 200.547C208.169 204.398 211.369 207.521 215.316 207.521Z" fill="#FFB6B6"/>
<path d="M206.394 207.733L179.852 201.815C177.929 201.381 176.153 200.47 174.696 199.17C173.24 197.87 172.152 196.225 171.538 194.394L170.465 191.167L177.354 185.877L208.911 194.484L206.394 207.733Z" fill="#3F3D56"/>
<path d="M355.539 393H83.2235C83.034 393 82.8522 392.927 82.7181 392.796C82.5841 392.665 82.5088 392.488 82.5088 392.303C82.5088 392.118 82.5841 391.94 82.7181 391.809C82.8522 391.679 83.034 391.605 83.2235 391.605H355.539C355.729 391.605 355.911 391.679 356.045 391.809C356.179 391.94 356.254 392.118 356.254 392.303C356.254 392.488 356.179 392.665 356.045 392.796C355.911 392.927 355.729 393 355.539 393Z" fill="#CACACA"/>
</svg>
