<svg width="60" height="60" viewBox="0 0 60 60" fill="none" xmlns="http://www.w3.org/2000/svg">
<circle cx="30" cy="30" r="30" fill="#4484CE"/>
<path d="M29.4166 21.8205L15.3339 33.3461V45.7856C15.3339 46.1077 15.4627 46.4166 15.6919 46.6443C15.9211 46.8721 16.2319 47 16.556 47L25.1155 46.978C25.4386 46.9764 25.7479 46.8477 25.9757 46.6202C26.2036 46.3926 26.3315 46.0846 26.3315 45.7636V38.4991C26.3315 38.177 26.4603 37.8681 26.6895 37.6403C26.9187 37.4126 27.2295 37.2846 27.5537 37.2846H32.4422C32.7663 37.2846 33.0772 37.4126 33.3064 37.6403C33.5355 37.8681 33.6643 38.177 33.6643 38.4991V45.7583C33.6638 45.9181 33.695 46.0764 33.7562 46.2242C33.8174 46.3719 33.9074 46.5063 34.0209 46.6194C34.1344 46.7326 34.2693 46.8224 34.4179 46.8837C34.5664 46.9449 34.7256 46.9765 34.8864 46.9765L43.4429 47C43.767 47 44.0778 46.8721 44.307 46.6443C44.5362 46.4166 44.665 46.1077 44.665 45.7856V33.3378L30.5853 21.8205C30.4198 21.6879 30.2136 21.6156 30.001 21.6156C29.7884 21.6156 29.5822 21.6879 29.4166 21.8205ZM51.6617 29.6543L45.2761 24.4239V13.9108C45.2761 13.6693 45.1795 13.4376 45.0076 13.2668C44.8357 13.096 44.6026 13 44.3595 13H40.082C39.8389 13 39.6058 13.096 39.4339 13.2668C39.262 13.4376 39.1654 13.6693 39.1654 13.9108V19.422L32.3268 13.8311C31.6706 13.2945 30.8471 13.0011 29.9972 13.0011C29.1473 13.0011 28.3237 13.2945 27.6675 13.8311L8.33265 29.6543C8.23983 29.7305 8.16304 29.8242 8.10667 29.9299C8.05029 30.0356 8.01543 30.1514 8.00408 30.2705C7.99273 30.3896 8.00511 30.5098 8.04052 30.6241C8.07593 30.7385 8.13367 30.8448 8.21043 30.937L10.1582 33.2899C10.2348 33.3825 10.3289 33.459 10.4353 33.5153C10.5417 33.5716 10.6582 33.6065 10.7782 33.618C10.8982 33.6295 11.0192 33.6174 11.1345 33.5823C11.2497 33.5472 11.3569 33.4899 11.4498 33.4137L29.4166 18.7085C29.5822 18.576 29.7884 18.5037 30.001 18.5037C30.2136 18.5037 30.4198 18.576 30.5853 18.7085L48.5529 33.4137C48.6457 33.4899 48.7526 33.5473 48.8677 33.5825C48.9828 33.6177 49.1038 33.63 49.2236 33.6187C49.3435 33.6074 49.46 33.5728 49.5664 33.5168C49.6728 33.4608 49.767 33.3845 49.8438 33.2922L51.7915 30.9393C51.8682 30.8466 51.9257 30.7397 51.9607 30.6248C51.9957 30.51 52.0075 30.3894 51.9954 30.27C51.9833 30.1505 51.9477 30.0347 51.8904 29.929C51.8331 29.8234 51.7554 29.73 51.6617 29.6543Z" fill="white"/>
</svg>
