<svg width="121" height="121" viewBox="0 0 121 121" fill="none" xmlns="http://www.w3.org/2000/svg">
<path d="M60.5 1.89062C28.1308 1.89062 1.89062 28.1308 1.89062 60.5C1.89062 92.8692 28.1308 119.109 60.5 119.109C92.8692 119.109 119.109 92.8692 119.109 60.5C119.109 28.1308 92.8692 1.89062 60.5 1.89062ZM60.5 13.2344C86.6218 13.2344 107.766 34.3742 107.766 60.5C107.766 86.6218 86.6258 107.766 60.5 107.766C34.3782 107.766 13.2344 86.6258 13.2344 60.5C13.2344 34.3782 34.3742 13.2344 60.5 13.2344ZM93.6341 44.0201L88.3083 38.6512C87.2053 37.5393 85.4097 37.532 84.2978 38.6352L50.8923 71.7721L36.7618 57.527C35.6588 56.4151 33.8632 56.4077 32.7513 57.5107L27.3822 62.8366C26.2702 63.9395 26.2629 65.7351 27.3661 66.8473L48.8202 88.4751C49.9231 89.587 51.7188 89.5944 52.8307 88.4912L93.6183 48.0309C94.73 46.9277 94.7371 45.1321 93.6341 44.0201Z" fill="white"/>
</svg>
